{
.appVersion = "3150";
.formatVersion = 3;
DisplayStrings = (
"ABCDEFGHIJ
KLMNOPQR
STUVWXYZ.,;:-!?“”  
1234567890 12 
ÁĂǍÂÄÀĀÅÃ
 
",
"HONO---- 
DIE GNU TYPOGRAPHIE 
",
"DESIGNING THE USER INTERFACE: STRATEGIES FOR EFFECTIVE HUMAN-COMPUTER INTERACTION SECOND EDITION
      
FINITE MATHEMATICS WITH APPLICATIONS GOODMAN AND RATTI 

ISSUE 8 NEW TYPE DESIGN",
"KNOWLEDGE TRIUMPHANT: 
THE CONCEPT OF KNOWLEDGE IN MEDIEVAL ISLAM BY FRANZ ROSENTHAL  ",
"01234567890 ",
" OHOn  O OHHSOOHHO 
ABCDEFGHIJKLMNOPQRSTUVWXYZ. 
DIE GNU TYPOGRAFIE
DESIGNING THE USER INTERFACE.    ",
"ABCDEFGHIJKLMNOPQRSTUVWXYZ  ",
A,
P,
L,
D,
I
);
axes = (
{
name = Weight;
tag = wght;
},
{
name = Width;
tag = wdth;
}
);
customParameters = (
{
name = fsType;
value = (
);
},
{
name = "Write lastChange";
value = 0;
},
{
name = "Use Typo Metrics";
value = 1;
},
{
name = "Use Line Breaks";
value = 1;
},
{
name = "Enforce Compatibility Check";
value = 0;
},
{
name = "Axis Mappings";
value = {
wdth = {
75 = 75;
125 = 125;
};
wght = {
400 = 180;
500 = 200;
600 = 212;
700 = 220;
};
};
}
);
date = "2021-11-25 19:11:22 +0000";
familyName = Blocksync;
fontMaster = (
{
axesValues = (
180,
75
);
customParameters = (
{
name = hheaAscender;
value = 1069;
},
{
name = hheaDescender;
value = -424;
},
{
name = hheaLineGap;
value = 0;
},
{
name = typoAscender;
value = 1069;
},
{
name = typoDescender;
value = -424;
},
{
name = typoLineGap;
value = 0;
},
{
name = underlinePosition;
value = -113;
},
{
name = winAscent;
value = 1189;
},
{
name = winDescent;
value = 474;
}
);
iconName = Light_Condensed;
id = m005;
metricValues = (
{
over = 11;
pos = 846;
},
{
over = 11;
pos = 800;
},
{
over = 11;
pos = 606;
},
{
over = -11;
},
{
over = -11;
pos = -200;
},
{
}
);
name = "Condensed Regular";
},
{
axesValues = (
180,
75
);
customParameters = (
{
name = hheaAscender;
value = 1069;
},
{
name = hheaDescender;
value = -424;
},
{
name = hheaLineGap;
value = 0;
},
{
name = typoAscender;
value = 1069;
},
{
name = typoDescender;

glyphs = (
{
color = 5;
glyphname = A;
kernLeft = A;
kernRight = A;
layers = (
{
anchors = (
{
name = bottom;
pos = (274,0);
},
{
name = top;
pos = (274,800);
}
);
layerId = m01;
shapes = (
{
closed = 1;
nodes = (
(174,0,ls),
(197,0,o),
(216,10,o),
(219,46,cs),
(229,137,ls),
(231,154,o),
(234,160,o),
(251,160,cs),
(297,160,ls),
(314,160,o),
(318,154,o),
(320,137,cs),
(329,46,ls),
(333,10,o),
(352,0,o),
(375,0,cs),
(491,0,ls),
(526,0,o),
(537,11,o),
(537,46,cs),
(537,69,o),
(529,114,o),
(526,137,cs),
(434,754,ls),
(430,789,o),
(411,800,o),
(377,800,cs),
(171,800,ls),
(137,800,o),
(119,789,o),
(114,754,cs),
(23,137,ls),
(19,114,o),
(11,69,o),
(11,46,cs),
(11,11,o),
(23,0,o),
(57,0,cs)
);
},
{
closed = 1;
nodes = (
(245,331,o),
(240,337,o),
(240,350,cs),
(240,358,o),
(241,366,o),
(242,378,cs),
(263,606,ls),
(264,621,o),
(267,629,o),
(274,629,cs),
(281,629,o),
(285,621,o),
(286,606,cs),
(306,378,ls),
(307,366,o),
(309,358,o),
(309,350,cs),
(309,337,o),
(303,331,o),
(286,331,cs),
(263,331,ls)
);
}
);
width = 549;
},
{
anchors = (
{
name = bottom;
pos = (309,0);
},
{
name = tmp;
pos = (309,331);
},
{
name = top;
pos = (309,800);
}
);
associatedMasterId = m01;
layerId = "5D24E92C-7759-4DC5-8685-4175C3E8CE77";
name = "Sep 12, 22, 19:56";
shapes = (
{
closed = 1;
nodes = (
(177,0,ls),
(200,0,o),
(216,11,o),
(223,46,cs),
(240,137,ls),
(245,161,o),
(251,171,o),
(274,171,cs),
(343,171,ls),
(366,171,o),
(373,161,o),
(377,137,cs),
(394,46,ls),
(401,11,o),
(417,0,o),
(440,0,cs),
(560,0,ls),
(594,0,o),
(606,11,o),
(606,46,cs),
(606,91,o),
(497,606,o),
(471,732,cs),
(459,789,o),
(446,800,o),
(411,800,cs),
(206,800,ls),
(171,800,o),
(158,789,o),
(146,732,cs),
(120,606,o),
(11,91,o),
(11,46,cs),
(11,11,o),
(23,0,o),
(57,0,cs)
);
},
{
closed = 1;
nodes = (
(269,331,o),
(263,337,o),
(263,354,cs),
(263,377,o),
(278,480,o),
(293,606,cs),
(294,617,o),
(297,629,o),
(309,629,cs),
(320,629,o),
(322,616,o),
(323,606,cs),
(339,479,o),
(354,377,o),
(354,354,cs),
(354,337,o),
(349,331,o),
(331,331,cs),
(286,331,ls)
);
}
);
width = 617;
},
{
anchors = (
{
name = bottom;
pos = (274,0);
},
{
name = top;
pos = (274,800);
}
);
layerId = "6ABCF30A-460E-4EED-802C-9E4699B7E7F6";
shapes = (
{
closed = 1;
nodes = (
(211,0,ls),
(234,0,o),
(257,10,o),
(257,46,cs),
(257,126,ls),
(257,143,o),
(262,149,o),
(273,149,cs),
(275,149,ls),
(287,149,o),
(291,143,o),
(291,126,cs),
(291,46,ls),
(291,10,o),
(314,0,o),
(337,0,cs),
(491,0,ls),
(526,0,o),
(537,11,o),
(537,46,cs),
(537,69,o),
(531,103,o),
(529,137,cs),
(491,754,ls),
(489,789,o),
(469,800,o),
(434,800,cs),
(114,800,ls),
(80,800,o),
(59,789,o),
(57,754,cs),
(19,137,ls),
(17,103,o),
(11,69,o),
(11,46,cs),
(11,11,o),
(23,0,o),
(57,0,cs)
);
},
{
closed = 1;
nodes = (
(262,320,o),
(257,329,o),
(257,342,cs),
(257,351,o),
(257,355,o),
(257,367,cs),
(257,606,ls),
(257,621,o),
(264,629,o),
(274,629,cs),
(285,629,o),
(291,621,o),
(291,606,cs),
(291,367,ls),
(291,355,o),
(291,351,o),
(291,342,cs),
(291,329,o),
(287,320,o),
(275,320,cs),
(273,320,ls)
);
}
);
width = 549;
},
{
anchors = (
{
name = bottom;
pos = (331,0);
},
{
name = top;
pos = (331,800);
}
);
layerId = m003;
shapes = (
{
closed = 1;
nodes = (
(179,0,ls),
(202,0,o),
(219,11,o),
(225,46,cs),
(240,137,ls),
(242,154,o),
(248,160,o),
(263,160,cs),
(400,160,ls),
(415,160,o),
(421,154,o),
(423,137,cs),
(438,46,ls),
(443,11,o),
(461,0,o),
(483,0,cs),
(594,0,ls),
(629,0,o),
(640,11,o),
(640,46,cs),
(640,69,o),
(632,114,o),
(628,137,cs),
(503,754,ls),
(496,789,o),
(480,800,o),
(446,800,cs),
(217,800,ls),
(183,800,o),
(167,789,o),
(160,754,cs),
(35,137,ls),
(31,114,o),
(23,69,o),
(23,46,cs),
(23,11,o),
(34,0,o),
(69,0,cs)
);
},
{
closed = 1;
nodes = (
(280,331,o),
(274,337,o),
(274,350,cs),
(274,358,o),
(275,366,o),
(278,378,cs),
(314,606,ls),
(317,621,o),
(320,629,o),
(331,629,cs),
(342,629,o),
(346,621,o),
(349,606,cs),
(385,378,ls),
(387,366,o),
(389,358,o),
(389,350,cs),
(389,337,o),
(383,331,o),
(366,331,cs),
(297,331,ls)
);
}
);
width = 663;
},
{
anchors = (
{
name = bottom;
pos = (309,0);
},
{
name = tmp;
pos = (309,331);
},
{
name = top;
pos = (309,800);
}
);
associatedMasterId = m003;
layerId = "64016166-7810-45FC-B17F-B453738BECC0";
name = "Sep 12, 22, 19:56";
shapes = (
{
closed = 1;
nodes = (
(177,0,ls),
(200,0,o),
(216,11,o),
(223,46,cs),
(240,137,ls),
(245,161,o),
(251,171,o),
(274,171,cs),
(343,171,ls),
(366,171,o),
(373,161,o),
(377,137,cs),
(394,46,ls),
(401,11,o),
(417,0,o),
(440,0,cs),
(560,0,ls),
(594,0,o),
(606,11,o),
(606,46,cs),
(606,91,o),
(497,606,o),
(471,732,cs),
(459,789,o),
(446,800,o),
(411,800,cs),
(206,800,ls),
(171,800,o),
(158,789,o),
(146,732,cs),
(120,606,o),
(11,91,o),
(11,46,cs),
(11,11,o),
(23,0,o),
(57,0,cs)
);
},
{
closed = 1;
nodes = (
(269,331,o),
(263,337,o),
(263,354,cs),
(263,377,o),
(278,480,o),
(293,606,cs),
(294,617,o),
(297,629,o),
(309,629,cs),
(320,629,o),
(322,616,o),
(323,606,cs),
(339,479,o),
(354,377,o),
(354,354,cs),
(354,337,o),
(349,331,o),
(331,331,cs),
(286,331,ls)
);
}
);
width = 617;
},
{
anchors = (
{
name = bottom;
pos = (331,0);
},
{
name = top;
pos = (331,800);
}
);
layerId = m004;
shapes = (
{
closed = 1;
nodes = (
(269,0,ls),
(303,0,o),
(314,11,o),
(314,46,cs),
(314,137,ls),
(314,154,o),
(319,160,o),
(330,160,cs),
(333,160,ls),
(344,160,o),
(349,154,o),
(349,137,cs),
(349,46,ls),
(349,11,o),
(360,0,o),
(394,0,cs),
(606,0,ls),
(640,0,o),
(652,11,o),
(652,46,cs),
(652,69,o),
(642,114,o),
(639,137,cs),
(560,754,ls),
(555,789,o),
(537,800,o),
(503,800,cs),
(160,800,ls),
(126,800,o),
(107,789,o),
(103,754,cs),
(24,137,ls),
(21,114,o),
(11,69,o),
(11,46,cs),
(11,11,o),
(23,0,o),
(57,0,cs)
);
},
{
closed = 1;
nodes = (
(319,343,o),
(314,352,o),
(314,365,cs),
(314,374,o),
(314,378,o),
(314,390,cs),
(314,606,ls),
(314,621,o),
(321,629,o),
(331,629,cs),
(342,629,o),
(349,621,o),
(349,606,cs),
(349,390,ls),
(349,378,o),
(349,374,o),
(349,365,cs),
(349,352,o),
(344,343,o),
(333,343,cs),
(330,343,ls)
);
}
);
width = 663;
},
{
anchors = (
{
name = bottom;
pos = (274,0);
},
{
name = top;
pos = (274,800);
}
);
associatedMasterId = "6ABCF30A-460E-4EED-802C-9E4699B7E7F6";
layerId = "A0012EF1-9C51-4D86-8EF5-B9C2BAB8F47B";
name = "Feb 18, 23 at 20:51";
shapes = (
{
closed = 1;
nodes = (
(174,0,ls),
(197,0,o),
(216,10,o),
(219,46,cs),
(229,149,ls),
(230,166,o),
(234,171,o),
(251,171,cs),
(297,171,ls),
(314,171,o),
(319,166,o),
(320,149,cs),
(329,46,ls),
(333,10,o),
(352,0,o),
(375,0,cs),
(491,0,ls),
(526,0,o),
(537,11,o),
(537,46,cs),
(537,57,o),
(534,90,o),
(526,146,cs),
(448,732,ls),
(442,777,o),
(434,800,o),
(389,800,cs),
(160,800,ls),
(114,800,o),
(106,777,o),
(101,732,cs),
(23,146,ls),
(16,94,o),
(11,57,o),
(11,46,cs),
(11,11,o),
(23,0,o),
(57,0,cs)
);
},
{
closed = 1;
nodes = (
(245,331,o),
(240,337,o),
(240,350,cs),
(240,358,o),
(240,366,o),
(241,378,cs),
(257,606,ls),
(258,618,o),
(263,629,o),
(274,629,cs),
(286,629,o),
(290,618,o),
(291,606,cs),
(307,378,ls),
(309,366,o),
(309,358,o),
(309,350,cs),
(309,337,o),
(303,331,o),
(286,331,cs),
(263,331,ls)
);
}
);
width = 549;
},
{
anchors = (
{
name = bottom;
pos = (274,0);
},
{
name = top;
pos = (274,800);
}
);
layerId = m005;
shapes = (
{
closed = 1;
nodes = (
(174,0,ls),
(197,0,o),
(216,10,o),
(219,46,cs),
(229,137,ls),
(231,154,o),
(234,160,o),
(251,160,cs),
(297,160,ls),
(314,160,o),
(318,154,o),
(320,137,cs),
(329,46,ls),
(333,10,o),
(352,0,o),
(375,0,cs),
(491,0,ls),
(526,0,o),
(537,11,o),
(537,46,cs),
(537,69,o),
(529,114,o),
(526,137,cs),
(434,754,ls),
(430,789,o),
(411,800,o),
(377,800,cs),
(171,800,ls),
(137,800,o),
(119,789,o),
(114,754,cs),
(23,137,ls),
(19,114,o),
(11,69,o),
(11,46,cs),
(11,11,o),
(23,0,o),
(57,0,cs)
);
},
{
closed = 1;
nodes = (
(245,331,o),
(240,337,o),
(240,350,cs),
(240,358,o),
(241,366,o),
(242,378,cs),
(263,606,ls),
(264,621,o),
(267,629,o),
(274,629,cs),
(281,629,o),
(285,621,o),
(286,606,cs),
(306,378,ls),
(307,366,o),
(309,358,o),
(309,350,cs),
(309,337,o),
(303,331,o),
(286,331,cs),
(263,331,ls)
);
}
);
width = 549;
},
{
anchors = (
{
name = bottom;
pos = (309,0);
},
{
name = tmp;
pos = (309,331);
},
{
name = top;
pos = (309,800);
}
);
associatedMasterId = m005;
layerId = "5DE80013-8064-4236-9F71-3CB790C03DD8";
name = "Sep 12, 22, 19:56";
shapes = (
{
closed = 1;
nodes = (
(177,0,ls),
(200,0,o),
(216,11,o),
(223,46,cs),
(240,137,ls),
(245,161,o),
(251,171,o),
(274,171,cs),
(343,171,ls),
(366,171,o),
(373,161,o),
(377,137,cs),
(394,46,ls),
(401,11,o),
(417,0,o),
(440,0,cs),
(560,0,ls),
(594,0,o),
(606,11,o),
(606,46,cs),
(606,91,o),
(497,606,o),
(471,732,cs),
(459,789,o),
(446,800,o),
(411,800,cs),
(206,800,ls),
(171,800,o),
(158,789,o),
(146,732,cs),
(120,606,o),
(11,91,o),
(11,46,cs),
(11,11,o),
(23,0,o),
(57,0,cs)
);
},
{
closed = 1;
nodes = (
(269,331,o),
(263,337,o),
(263,354,cs),
(263,377,o),
(278,480,o),
(293,606,cs),
(294,617,o),
(297,629,o),
(309,629,cs),
(320,629,o),
(322,616,o),
(323,606,cs),
(339,479,o),
(354,377,o),
(354,354,cs),
(354,337,o),
(349,331,o),
(331,331,cs),
(286,331,ls)
);
}
);
width = 617;
}
);
unicode = 65;
},
{
color = 5;
glyphname = Aogonek;
layers = (
{
layerId = m01;
shapes = (
{
closed = 1;
nodes = (
(185,0,ls),
(208,0,o),
(216,10,o),
(219,46,cs),
(229,137,ls),
(231,154,o),
(234,160,o),
(251,160,cs),
(297,160,ls),
(314,160,o),
(318,154,o),
(320,137,cs),
(329,46,ls),
(333,10,o),
(359,10,o),
(359,-11,cs),
(359,-34,o),
(318,-45,o),
(318,-106,cs),
(318,-169,o),
(379,-200,o),
(491,-200,cs),
(507,-200,o),
(514,-189,o),
(514,-177,cs),
(514,-119,ls),
(514,-105,o),
(507,-96,o),
(491,-96,cs),
(455,-96,o),
(423,-81,o),
(423,-58,cs),
(423,-31,o),
(456,0,o),
(491,0,cs),
(526,0,o),
(537,11,o),
(537,46,cs),
(537,69,o),
(529,114,o),
(526,137,cs),
(434,754,ls),
(430,789,o),
(411,800,o),
(377,800,cs),
(171,800,ls),
(137,800,o),
(119,789,o),
(114,754,cs),
(23,137,ls),
(19,114,o),
(11,69,o),
(11,46,cs),
(11,11,o),
(23,0,o),
(57,0,cs)
);
},
{
closed = 1;
nodes = (
(245,331,o),
(240,337,o),
(240,350,cs),
(240,358,o),
(241,366,o),
(242,378,cs),
(263,606,ls),
(264,621,o),
(267,629,o),
(274,629,cs),
(281,629,o),
(285,621,o),
(286,606,cs),
(306,378,ls),
(307,366,o),
(309,358,o),
(309,350,cs),
(309,337,o),
(303,331,o),
(286,331,cs),
(263,331,ls)
);
}
);
width = 549;
},
{
layerId = "6ABCF30A-460E-4EED-802C-9E4699B7E7F6";
shapes = (
{
closed = 1;
nodes = (
(185,0,ls),
(208,0,o),
(216,10,o),
(219,46,cs),
(229,137,ls),
(231,154,o),
(234,160,o),
(251,160,cs),
(297,160,ls),
(314,160,o),
(318,154,o),
(320,137,cs),
(329,46,ls),
(333,10,o),
(359,10,o),
(359,-11,cs),
(359,-34,o),
(318,-45,o),
(318,-106,cs),
(318,-169,o),
(379,-200,o),
(491,-200,cs),
(507,-200,o),
(514,-189,o),
(514,-177,cs),
(514,-119,ls),
(514,-105,o),
(507,-96,o),
(491,-96,cs),
(455,-96,o),
(423,-81,o),
(423,-58,cs),
(423,-31,o),
(456,0,o),
(491,0,cs),
(526,0,o),
(537,11,o),
(537,46,cs),
(537,69,o),
(529,114,o),
(526,137,cs),
(434,754,ls),
(430,789,o),
(411,800,o),
(377,800,cs),
(171,800,ls),
(137,800,o),
(119,789,o),
(114,754,cs),
(23,137,ls),
(19,114,o),
(11,69,o),
(11,46,cs),
(11,11,o),
(23,0,o),
(57,0,cs)
);
},
{
closed = 1;
nodes = (
(245,331,o),
(240,337,o),
(240,350,cs),
(240,358,o),
(241,366,o),
(242,378,cs),
(263,606,ls),
(264,621,o),
(267,629,o),
(274,629,cs),
(281,629,o),
(285,621,o),
(286,606,cs),
(306,378,ls),
(307,366,o),
(309,358,o),
(309,350,cs),
(309,337,o),
(303,331,o),
(286,331,cs),
(263,331,ls)
);
}
);
width = 549;
},
{
layerId = m003;
shapes = (
{
closed = 1;
nodes = (
(185,0,ls),
(208,0,o),
(216,10,o),
(219,46,cs),
(229,137,ls),
(231,154,o),
(234,160,o),
(251,160,cs),
(297,160,ls),
(314,160,o),
(318,154,o),
(320,137,cs),
(329,46,ls),
(333,10,o),
(359,10,o),
(359,-11,cs),
(359,-34,o),
(318,-45,o),
(318,-106,cs),
(318,-169,o),
(379,-200,o),
(491,-200,cs),
(507,-200,o),
(514,-189,o),
(514,-177,cs),
(514,-119,ls),
(514,-105,o),
(507,-96,o),
(491,-96,cs),
(455,-96,o),
(423,-81,o),
(423,-58,cs),
(423,-31,o),
(456,0,o),
(491,0,cs),
(526,0,o),
(537,11,o),
(537,46,cs),
(537,69,o),
(529,114,o),
(526,137,cs),
(434,754,ls),
(430,789,o),
(411,800,o),
(377,800,cs),
(171,800,ls),
(137,800,o),
(119,789,o),
(114,754,cs),
(23,137,ls),
(19,114,o),
(11,69,o),
(11,46,cs),
(11,11,o),
(23,0,o),
(57,0,cs)
);
},
{
closed = 1;
nodes = (
(245,331,o),
(240,337,o),
(240,350,cs),
(240,358,o),
(241,366,o),
(242,378,cs),
(263,606,ls),
(264,621,o),
(267,629,o),
(274,629,cs),
(281,629,o),
(285,621,o),
(286,606,cs),
(306,378,ls),
(307,366,o),
(309,358,o),
(309,350,cs),
(309,337,o),
(303,331,o),
(286,331,cs),
(263,331,ls)
);
}
);
width = 549;
},
{
layerId = m004;
shapes = (
{
closed = 1;
nodes = (
(185,0,ls),
(208,0,o),
(216,10,o),
(219,46,cs),
(229,137,ls),
(231,154,o),
(234,160,o),
(251,160,cs),
(297,160,ls),
(314,160,o),
(318,154,o),
(320,137,cs),
(329,46,ls),
(333,10,o),
(359,10,o),
(359,-11,cs),
(359,-34,o),
(318,-45,o),
(318,-106,cs),
(318,-169,o),
(379,-200,o),
(491,-200,cs),
(507,-200,o),
(514,-189,o),
(514,-177,cs),
(514,-119,ls),
(514,-105,o),
(507,-96,o),
(491,-96,cs),
(455,-96,o),
(423,-81,o),
(423,-58,cs),
(423,-31,o),
(456,0,o),
(491,0,cs),
(526,0,o),
(537,11,o),
(537,46,cs),
(537,69,o),
(529,114,o),
(526,137,cs),
(434,754,ls),
(430,789,o),
(411,800,o),
(377,800,cs),
(171,800,ls),
(137,800,o),
(119,789,o),
(114,754,cs),
(23,137,ls),
(19,114,o),
(11,69,o),
(11,46,cs),
(11,11,o),
(23,0,o),
(57,0,cs)
);
},
{
closed = 1;
nodes = (
(245,331,o),
(240,337,o),
(240,350,cs),
(240,358,o),
(241,366,o),
(242,378,cs),
(263,606,ls),
(264,621,o),
(267,629,o),
(274,629,cs),
(281,629,o),
(285,621,o),
(286,606,cs),
(306,378,ls),
(307,366,o),
(309,358,o),
(309,350,cs),
(309,337,o),
(303,331,o),
(286,331,cs),
(263,331,ls)
);
}
);
width = 549;
},
{
layerId = m005;
shapes = (
{
closed = 1;
nodes = (
(185,0,ls),
(208,0,o),
(216,10,o),
(219,46,cs),
(229,137,ls),
(231,154,o),
(234,160,o),
(251,160,cs),
(297,160,ls),
(314,160,o),
(318,154,o),
(320,137,cs),
(329,46,ls),
(333,10,o),
(359,10,o),
(359,-11,cs),
(359,-34,o),
(318,-45,o),
(318,-106,cs),
(318,-169,o),
(379,-200,o),
(491,-200,cs),
(507,-200,o),
(514,-189,o),
(514,-177,cs),
(514,-119,ls),
(514,-105,o),
(507,-96,o),
(491,-96,cs),
(455,-96,o),
(423,-81,o),
(423,-58,cs),
(423,-31,o),
(456,0,o),
(491,0,cs),
(526,0,o),
(537,11,o),
(537,46,cs),
(537,69,o),
(529,114,o),
(526,137,cs),
(434,754,ls),
(430,789,o),
(411,800,o),
(377,800,cs),
(171,800,ls),
(137,800,o),
(119,789,o),
(114,754,cs),
(23,137,ls),
(19,114,o),
(11,69,o),
(11,46,cs),
(11,11,o),
(23,0,o),
(57,0,cs)
);
},
{
closed = 1;
nodes = (
(245,331,o),
(240,337,o),
(240,350,cs),
(240,358,o),
(241,366,o),
(242,378,cs),
(263,606,ls),
(264,621,o),
(267,629,o),
(274,629,cs),
(281,629,o),
(285,621,o),
(286,606,cs),
(306,378,ls),
(307,366,o),
(309,358,o),
(309,350,cs),
(309,337,o),
(303,331,o),
(286,331,cs),
(263,331,ls)
);
}
);
width = 549;
}
);
unicode = 260;
},
{
color = 5;
glyphname = AE;
layers = (
{
layerId = m01;
shapes = (
{
closed = 1;
nodes = (
(663,0,ls),
(697,0,o),
(709,11,o),
(709,46,cs),
(709,126,ls),
(709,160,o),
(697,171,o),
(663,171,cs),
(537,171,ls),
(520,171,o),
(514,177,o),
(514,194,cs),
(514,309,ls),
(514,326,o),
(520,331,o),
(537,331,cs),
(617,331,ls),
(652,331,o),
(663,343,o),
(663,377,cs),
(663,446,ls),
(663,480,o),
(652,491,o),
(617,491,cs),
(537,491,ls),
(520,491,o),
(514,497,o),
(514,514,cs),
(514,606,ls),
(514,623,o),
(520,629,o),
(537,629,cs),
(663,629,ls),
(697,629,o),
(709,640,o),
(709,674,cs),
(709,754,ls),
(709,789,o),
(697,800,o),
(663,800,cs),
(171,800,ls),
(137,800,o),
(119,789,o),
(114,754,cs),
(23,137,ls),
(19,114,o),
(11,69,o),
(11,46,cs),
(11,11,o),
(23,0,o),
(57,0,cs),
(185,0,ls),
(208,0,o),
(216,10,o),
(219,46,cs),
(229,137,ls),
(231,154,o),
(234,160,o),
(251,160,cs),
(286,160,ls),
(303,160,o),
(309,154,o),
(309,137,cs),
(309,46,ls),
(309,11,o),
(320,0,o),
(354,0,cs)
);
},
{
closed = 1;
nodes = (
(240,358,o),
(241,366,o),
(242,378,cs),
(263,606,ls),
(264,621,o),
(267,629,o),
(274,629,cs),
(281,629,o),
(285,621,o),
(286,606,cs),
(306,378,ls),
(307,366,o),
(309,358,o),
(309,350,cs),
(309,337,o),
(303,331,o),
(286,331,cs),
(263,331,ls),
(245,331,o),
(240,337,o),
(240,350,cs)
);
}
);
width = 720;
},
{
layerId = "6ABCF30A-460E-4EED-802C-9E4699B7E7F6";
shapes = (
{
closed = 1;
nodes = (
(663,0,ls),
(697,0,o),
(709,11,o),
(709,46,cs),
(709,126,ls),
(709,160,o),
(697,171,o),
(663,171,cs),
(537,171,ls),
(520,171,o),
(514,177,o),
(514,194,cs),
(514,309,ls),
(514,326,o),
(520,331,o),
(537,331,cs),
(617,331,ls),
(652,331,o),
(663,343,o),
(663,377,cs),
(663,446,ls),
(663,480,o),
(652,491,o),
(617,491,cs),
(537,491,ls),
(520,491,o),
(514,497,o),
(514,514,cs),
(514,606,ls),
(514,623,o),
(520,629,o),
(537,629,cs),
(663,629,ls),
(697,629,o),
(709,640,o),
(709,674,cs),
(709,754,ls),
(709,789,o),
(697,800,o),
(663,800,cs),
(171,800,ls),
(137,800,o),
(119,789,o),
(114,754,cs),
(23,137,ls),
(19,114,o),
(11,69,o),
(11,46,cs),
(11,11,o),
(23,0,o),
(57,0,cs),
(185,0,ls),
(208,0,o),
(216,10,o),
(219,46,cs),
(229,137,ls),
(231,154,o),
(234,160,o),
(251,160,cs),
(286,160,ls),
(303,160,o),
(309,154,o),
(309,137,cs),
(309,46,ls),
(309,11,o),
(320,0,o),
(354,0,cs)
);
},
{
closed = 1;
nodes = (
(240,358,o),
(241,366,o),
(242,378,cs),
(263,606,ls),
(264,621,o),
(267,629,o),
(274,629,cs),
(281,629,o),
(285,621,o),
(286,606,cs),
(306,378,ls),
(307,366,o),
(309,358,o),
(309,350,cs),
(309,337,o),
(303,331,o),
(286,331,cs),
(263,331,ls),
(245,331,o),
(240,337,o),
(240,350,cs)
);
}
);
width = 720;
},
{
layerId = m003;
shapes = (
{
closed = 1;
nodes = (
(663,0,ls),
(697,0,o),
(709,11,o),
(709,46,cs),
(709,126,ls),
(709,160,o),
(697,171,o),
(663,171,cs),
(537,171,ls),
(520,171,o),
(514,177,o),
(514,194,cs),
(514,309,ls),
(514,326,o),
(520,331,o),
(537,331,cs),
(617,331,ls),
(652,331,o),
(663,343,o),
(663,377,cs),
(663,446,ls),
(663,480,o),
(652,491,o),
(617,491,cs),
(537,491,ls),
(520,491,o),
(514,497,o),
(514,514,cs),
(514,606,ls),
(514,623,o),
(520,629,o),
(537,629,cs),
(663,629,ls),
(697,629,o),
(709,640,o),
(709,674,cs),
(709,754,ls),
(709,789,o),
(697,800,o),
(663,800,cs),
(171,800,ls),
(137,800,o),
(119,789,o),
(114,754,cs),
(23,137,ls),
(19,114,o),
(11,69,o),
(11,46,cs),
(11,11,o),
(23,0,o),
(57,0,cs),
(185,0,ls),
(208,0,o),
(216,10,o),
(219,46,cs),
(229,137,ls),
(231,154,o),
(234,160,o),
(251,160,cs),
(286,160,ls),
(303,160,o),
(309,154,o),
(309,137,cs),
(309,46,ls),
(309,11,o),
(320,0,o),
(354,0,cs)
);
},
{
closed = 1;
nodes = (
(240,358,o),
(241,366,o),
(242,378,cs),
(263,606,ls),
(264,621,o),
(267,629,o),
(274,629,cs),
(281,629,o),
(285,621,o),
(286,606,cs),
(306,378,ls),
(307,366,o),
(309,358,o),
(309,350,cs),
(309,337,o),
(303,331,o),
(286,331,cs),
(263,331,ls),
(245,331,o),
(240,337,o),
(240,350,cs)
);
}
);
width = 720;
},
{
layerId = m004;
shapes = (
{
closed = 1;
nodes = (
(663,0,ls),
(697,0,o),
(709,11,o),
(709,46,cs),
(709,126,ls),
(709,160,o),
(697,171,o),
(663,171,cs),
(537,171,ls),
(520,171,o),
(514,177,o),
(514,194,cs),
(514,309,ls),
(514,326,o),
(520,331,o),
(537,331,cs),
(617,331,ls),
(652,331,o),
(663,343,o),
(663,377,cs),
(663,446,ls),
(663,480,o),
(652,491,o),
(617,491,cs),
(537,491,ls),
(520,491,o),
(514,497,o),
(514,514,cs),
(514,606,ls),
(514,623,o),
(520,629,o),
(537,629,cs),
(663,629,ls),
(697,629,o),
(709,640,o),
(709,674,cs),
(709,754,ls),
(709,789,o),
(697,800,o),
(663,800,cs),
(171,800,ls),
(137,800,o),
(119,789,o),
(114,754,cs),
(23,137,ls),
(19,114,o),
(11,69,o),
(11,46,cs),
(11,11,o),
(23,0,o),
(57,0,cs),
(185,0,ls),
(208,0,o),
(216,10,o),
(219,46,cs),
(229,137,ls),
(231,154,o),
(234,160,o),
(251,160,cs),
(286,160,ls),
(303,160,o),
(309,154,o),
(309,137,cs),
(309,46,ls),
(309,11,o),
(320,0,o),
(354,0,cs)
);
},
{
closed = 1;
nodes = (
(240,358,o),
(241,366,o),
(242,378,cs),
(263,606,ls),
(264,621,o),
(267,629,o),
(274,629,cs),
(281,629,o),
(285,621,o),
(286,606,cs),
(306,378,ls),
(307,366,o),
(309,358,o),
(309,350,cs),
(309,337,o),
(303,331,o),
(286,331,cs),
(263,331,ls),
(245,331,o),
(240,337,o),
(240,350,cs)
);
}
);
width = 720;
},
{
layerId = m005;
shapes = (
{
closed = 1;
nodes = (
(663,0,ls),
(697,0,o),
(709,11,o),
(709,46,cs),
(709,126,ls),
(709,160,o),
(697,171,o),
(663,171,cs),
(537,171,ls),
(520,171,o),
(514,177,o),
(514,194,cs),
(514,309,ls),
(514,326,o),
(520,331,o),
(537,331,cs),
(617,331,ls),
(652,331,o),
(663,343,o),
(663,377,cs),
(663,446,ls),
(663,480,o),
(652,491,o),
(617,491,cs),
(537,491,ls),
(520,491,o),
(514,497,o),
(514,514,cs),
(514,606,ls),
(514,623,o),
(520,629,o),
(537,629,cs),
(663,629,ls),
(697,629,o),
(709,640,o),
(709,674,cs),
(709,754,ls),
(709,789,o),
(697,800,o),
(663,800,cs),
(171,800,ls),
(137,800,o),
(119,789,o),
(114,754,cs),
(23,137,ls),
(19,114,o),
(11,69,o),
(11,46,cs),
(11,11,o),
(23,0,o),
(57,0,cs),
(185,0,ls),
(208,0,o),
(216,10,o),
(219,46,cs),
(229,137,ls),
(231,154,o),
(234,160,o),
(251,160,cs),
(286,160,ls),
(303,160,o),
(309,154,o),
(309,137,cs),
(309,46,ls),
(309,11,o),
(320,0,o),
(354,0,cs)
);
},
{
closed = 1;
nodes = (
(240,358,o),
(241,366,o),
(242,378,cs),
(263,606,ls),
(264,621,o),
(267,629,o),
(274,629,cs),
(281,629,o),
(285,621,o),
(286,606,cs),
(306,378,ls),
(307,366,o),
(309,358,o),
(309,350,cs),
(309,337,o),
(303,331,o),
(286,331,cs),
(263,331,ls),
(245,331,o),
(240,337,o),
(240,350,cs)
);
}
);
width = 720;
}
);
unicode = 198;
},
{
color = 5;
glyphname = B;
kernLeft = H;
kernRight = B;
layers = (
{
layerId = m01;
shapes = (
{
closed = 1;
nodes = (
(320,0,ls),
(469,0,o),
(537,69,o),
(537,206,cs),
(537,240,ls),
(537,343,o),
(475,385,o),
(446,400,cs),
(440,403,o),
(434,406,o),
(434,411,cs),
(434,417,o),
(439,418,o),
(446,423,cs),
(472,440,o),
(514,480,o),
(514,560,cs),
(514,594,ls),
(514,743,o),
(423,800,o),
(274,800,cs),
(69,800,ls),
(34,800,o),
(23,789,o),
(23,754,cs),
(23,46,ls),
(23,11,o),
(33,0,o),
(67,0,cs)
);
},
{
closed = 1;
nodes = (
(234,160,o),
(229,166,o),
(229,183,cs),
(229,309,ls),
(229,326,o),
(234,331,o),
(251,331,cs),
(274,331,ls),
(309,331,o),
(320,320,o),
(320,263,cs),
(320,229,ls),
(320,171,o),
(309,160,o),
(274,160,cs),
(251,160,ls)
);
},
{
closed = 1;
nodes = (
(234,491,o),
(229,497,o),
(229,514,cs),
(229,617,ls),
(229,634,o),
(234,640,o),
(251,640,cs),
(274,640,ls),
(309,640,o),
(320,629,o),
(320,583,cs),
(320,549,ls),
(320,503,o),
(309,491,o),
(274,491,cs),
(251,491,ls)
);
}
);
width = 549;
},
{
layerId = "6ABCF30A-460E-4EED-802C-9E4699B7E7F6";
shapes = (
{
closed = 1;
nodes = (
(320,0,ls),
(469,0,o),
(537,69,o),
(537,206,cs),
(537,240,ls),
(537,343,o),
(475,385,o),
(446,400,cs),
(440,403,o),
(434,406,o),
(434,411,cs),
(434,417,o),
(439,418,o),
(446,423,cs),
(472,440,o),
(514,480,o),
(514,560,cs),
(514,594,ls),
(514,743,o),
(423,800,o),
(274,800,cs),
(57,800,ls),
(23,800,o),
(11,789,o),
(11,754,cs),
(11,46,ls),
(11,11,o),
(22,0,o),
(56,0,cs)
);
},
{
closed = 1;
nodes = (
(256,160,o),
(251,169,o),
(251,182,cs),
(251,309,ls),
(251,323,o),
(256,331,o),
(267,331,cs),
(270,331,ls),
(281,331,o),
(286,323,o),
(286,309,cs),
(286,182,ls),
(286,169,o),
(281,160,o),
(270,160,cs),
(267,160,ls)
);
},
{
closed = 1;
nodes = (
(256,491,o),
(251,501,o),
(251,513,cs),
(251,617,ls),
(251,632,o),
(256,640,o),
(267,640,cs),
(270,640,ls),
(281,640,o),
(286,632,o),
(286,617,cs),
(286,513,ls),
(286,501,o),
(281,491,o),
(270,491,cs),
(267,491,ls)
);
}
);
width = 549;
},
{
associatedMasterId = m01;
layerId = "1F86786A-E2E1-4B03-8217-A17D87EDEBA0";
name = "Sep 27, 22, 18:53";
shapes = (
{
closed = 1;
nodes = (
(343,0,ls),
(480,0,o),
(537,79,o),
(537,206,cs),
(537,250,ls),
(537,337,o),
(473,395,o),
(446,411,cs),
(438,416,o),
(434,417,o),
(434,423,cs),
(434,429,o),
(439,431,o),
(446,434,cs),
(473,449,o),
(514,490,o),
(514,594,cs),
(514,720,o),
(434,800,o),
(309,800,cs),
(69,800,ls),
(34,800,o),
(23,789,o),
(23,754,cs),
(23,46,ls),
(23,11,o),
(33,0,o),
(67,0,cs)
);
},
{
closed = 1;
nodes = (
(234,160,o),
(229,166,o),
(229,183,cs),
(229,309,ls),
(229,326,o),
(234,331,o),
(251,331,cs),
(274,331,ls),
(303,331,o),
(320,309,o),
(320,274,cs),
(320,217,ls),
(320,183,o),
(304,160,o),
(274,160,cs),
(251,160,ls)
);
},
{
closed = 1;
nodes = (
(234,491,o),
(229,497,o),
(229,514,cs),
(229,617,ls),
(229,634,o),
(234,640,o),
(251,640,cs),
(274,640,ls),
(309,640,o),
(320,629,o),
(320,594,cs),
(320,537,ls),
(320,503,o),
(309,491,o),
(274,491,cs),
(251,491,ls)
);
}
);
visible = 1;
width = 549;
},
{
layerId = m003;
shapes = (
{
closed = 1;
nodes = (
(423,0,ls),
(572,0,o),
(640,80,o),
(640,217,cs),
(640,229,ls),
(640,331,o),
(578,385,o),
(549,400,cs),
(543,403,o),
(537,406,o),
(537,411,cs),
(537,417,o),
(542,418,o),
(549,423,cs),
(575,440,o),
(617,491,o),
(617,572,cs),
(617,583,ls),
(617,732,o),
(526,800,o),
(377,800,cs),
(80,800,ls),
(46,800,o),
(34,789,o),
(34,754,cs),
(34,46,ls),
(34,11,o),
(45,0,o),
(79,0,cs)
);
},
{
closed = 1;
nodes = (
(246,160,o),
(240,166,o),
(240,183,cs),
(240,309,ls),
(240,326,o),
(246,331,o),
(263,331,cs),
(354,331,ls),
(400,331,o),
(423,309,o),
(423,251,cs),
(423,240,ls),
(423,183,o),
(400,160,o),
(354,160,cs),
(263,160,ls)
);
},
{
closed = 1;
nodes = (
(246,491,o),
(240,497,o),
(240,514,cs),
(240,617,ls),
(240,634,o),
(246,640,o),
(263,640,cs),
(354,640,ls),
(400,640,o),
(423,617,o),
(423,572,cs),
(423,560,ls),
(423,514,o),
(400,491,o),
(354,491,cs),
(263,491,ls)
);
}
);
width = 663;
},
{
associatedMasterId = m003;
layerId = "BDA0295F-6776-4860-98CC-70822E475A7E";
name = "Sep 27, 22, 18:53";
shapes = (
{
closed = 1;
nodes = (
(343,0,ls),
(480,0,o),
(537,79,o),
(537,206,cs),
(537,250,ls),
(537,337,o),
(473,395,o),
(446,411,cs),
(438,416,o),
(434,417,o),
(434,423,cs),
(434,429,o),
(439,431,o),
(446,434,cs),
(473,449,o),
(514,490,o),
(514,594,cs),
(514,720,o),
(434,800,o),
(309,800,cs),
(69,800,ls),
(34,800,o),
(23,789,o),
(23,754,cs),
(23,46,ls),
(23,11,o),
(33,0,o),
(67,0,cs)
);
},
{
closed = 1;
nodes = (
(234,160,o),
(229,166,o),
(229,183,cs),
(229,309,ls),
(229,326,o),
(234,331,o),
(251,331,cs),
(274,331,ls),
(303,331,o),
(320,309,o),
(320,274,cs),
(320,217,ls),
(320,183,o),
(304,160,o),
(274,160,cs),
(251,160,ls)
);
},
{
closed = 1;
nodes = (
(234,491,o),
(229,497,o),
(229,514,cs),
(229,617,ls),
(229,634,o),
(234,640,o),
(251,640,cs),
(274,640,ls),
(309,640,o),
(320,629,o),
(320,594,cs),
(320,537,ls),
(320,503,o),
(309,491,o),
(274,491,cs),
(251,491,ls)
);
}
);
width = 549;
},
{
layerId = m004;
shapes = (
{
closed = 1;
nodes = (
(434,0,ls),
(583,0,o),
(652,80,o),
(652,217,cs),
(652,229,ls),
(652,331,o),
(590,385,o),
(560,400,cs),
(554,403,o),
(549,406,o),
(549,411,cs),
(549,417,o),
(553,418,o),
(560,423,cs),
(586,440,o),
(629,491,o),
(629,572,cs),
(629,583,ls),
(629,732,o),
(537,800,o),
(389,800,cs),
(69,800,ls),
(34,800,o),
(23,789,o),
(23,754,cs),
(23,46,ls),
(23,11,o),
(33,0,o),
(67,0,cs)
);
},
{
closed = 1;
nodes = (
(313,160,o),
(309,169,o),
(309,182,cs),
(309,309,ls),
(309,323,o),
(313,331,o),
(325,331,cs),
(327,331,ls),
(338,331,o),
(343,323,o),
(343,309,cs),
(343,182,ls),
(343,169,o),
(338,160,o),
(327,160,cs),
(325,160,ls)
);
},
{
closed = 1;
nodes = (
(313,491,o),
(309,501,o),
(309,513,cs),
(309,617,ls),
(309,632,o),
(313,640,o),
(325,640,cs),
(327,640,ls),
(338,640,o),
(343,632,o),
(343,617,cs),
(343,513,ls),
(343,501,o),
(338,491,o),
(327,491,cs),
(325,491,ls)
);
}
);
width = 663;
},
{
layerId = m005;
shapes = (
{
closed = 1;
nodes = (
(320,0,ls),
(469,0,o),
(537,69,o),
(537,206,cs),
(537,240,ls),
(537,343,o),
(475,385,o),
(446,400,cs),
(440,403,o),
(434,406,o),
(434,411,cs),
(434,417,o),
(439,418,o),
(446,423,cs),
(472,440,o),
(514,480,o),
(514,560,cs),
(514,594,ls),
(514,743,o),
(423,800,o),
(274,800,cs),
(69,800,ls),
(34,800,o),
(23,789,o),
(23,754,cs),
(23,46,ls),
(23,11,o),
(33,0,o),
(67,0,cs)
);
},
{
closed = 1;
nodes = (
(234,160,o),
(229,166,o),
(229,183,cs),
(229,309,ls),
(229,326,o),
(234,331,o),
(251,331,cs),
(274,331,ls),
(309,331,o),
(320,320,o),
(320,263,cs),
(320,229,ls),
(320,171,o),
(309,160,o),
(274,160,cs),
(251,160,ls)
);
},
{
closed = 1;
nodes = (
(234,491,o),
(229,497,o),
(229,514,cs),
(229,617,ls),
(229,634,o),
(234,640,o),
(251,640,cs),
(274,640,ls),
(309,640,o),
(320,629,o),
(320,583,cs),
(320,549,ls),
(320,503,o),
(309,491,o),
(274,491,cs),
(251,491,ls)
);
}
);
width = 549;
},
{
associatedMasterId = m005;
layerId = "A8F039DB-5029-4A6B-802D-BE68FCABC482";
name = "Sep 27, 22, 18:53";
shapes = (
{
closed = 1;
nodes = (
(343,0,ls),
(480,0,o),
(537,79,o),
(537,206,cs),
(537,250,ls),
(537,337,o),
(473,395,o),
(446,411,cs),
(438,416,o),
(434,417,o),
(434,423,cs),
(434,429,o),
(439,431,o),
(446,434,cs),
(473,449,o),
(514,490,o),
(514,594,cs),
(514,720,o),
(434,800,o),
(309,800,cs),
(69,800,ls),
(34,800,o),
(23,789,o),
(23,754,cs),
(23,46,ls),
(23,11,o),
(33,0,o),
(67,0,cs)
);
},
{
closed = 1;
nodes = (
(234,160,o),
(229,166,o),
(229,183,cs),
(229,309,ls),
(229,326,o),
(234,331,o),
(251,331,cs),
(274,331,ls),
(303,331,o),
(320,309,o),
(320,274,cs),
(320,217,ls),
(320,183,o),
(304,160,o),
(274,160,cs),
(251,160,ls)
);
},
{
closed = 1;
nodes = (
(234,491,o),
(229,497,o),
(229,514,cs),
(229,617,ls),
(229,634,o),
(234,640,o),
(251,640,cs),
(274,640,ls),
(309,640,o),
(320,629,o),
(320,594,cs),
(320,537,ls),
(320,503,o),
(309,491,o),
(274,491,cs),
(251,491,ls)
);
}
);
width = 549;
}
);
unicode = 66;
},
{
color = 5;
glyphname = C;
kernLeft = O;
kernRight = C;
layers = (
{
anchors = (
{
name = top;
pos = (271,800);
}
);
layerId = m01;
shapes = (
{
closed = 1;
nodes = (
(431,-11,o),
(511,69,o),
(511,229,cs),
(511,280,ls),
(511,314,o),
(499,326,o),
(465,326,cs),
(362,326,ls),
(328,326,o),
(317,314,o),
(317,280,cs),
(317,217,ls),
(317,183,o),
(305,160,o),
(271,160,cs),
(237,160,o),
(225,183,o),
(225,217,cs),
(225,583,ls),
(225,617,o),
(237,640,o),
(271,640,cs),
(305,640,o),
(317,617,o),
(317,583,cs),
(317,531,ls),
(317,497,o),
(328,486,o),
(362,486,cs),
(465,486,ls),
(499,486,o),
(511,497,o),
(511,531,cs),
(511,572,ls),
(511,732,o),
(431,812,o),
(271,812,cs),
(111,812,o),
(19,732,o),
(19,572,cs),
(19,229,ls),
(19,69,o),
(111,-11,o),
(271,-11,cs)
);
}
);
width = 526;
},
{
anchors = (
{
name = top;
pos = (274,800);
}
);
layerId = "6ABCF30A-460E-4EED-802C-9E4699B7E7F6";
shapes = (
{
closed = 1;
nodes = (
(431,-11,o),
(514,69,o),
(514,229,cs),
(514,349,ls),
(514,383,o),
(503,394,o),
(469,394,cs),
(334,394,ls),
(299,394,o),
(288,383,o),
(288,349,cs),
(288,183,ls),
(288,168,o),
(282,160,o),
(271,160,cs),
(259,160,o),
(254,168,o),
(254,183,cs),
(254,617,ls),
(254,632,o),
(259,640,o),
(271,640,cs),
(282,640,o),
(288,632,o),
(288,617,cs),
(288,474,ls),
(288,440,o),
(299,429,o),
(334,429,cs),
(469,429,ls),
(503,429,o),
(514,440,o),
(514,474,cs),
(514,572,ls),
(514,732,o),
(431,812,o),
(271,812,cs),
(111,812,o),
(11,732,o),
(11,572,cs),
(11,229,ls),
(11,69,o),
(111,-11,o),
(271,-11,cs)
);
}
);
width = 526;
},
{
anchors = (
{
name = top;
pos = (271,800);
}
);
associatedMasterId = m01;
layerId = "3405DB48-7A6C-4C40-A5AE-AE671BCFF720";
name = "Sep 27, 22, 20:39";
shapes = (
{
closed = 1;
nodes = (
(431,-11,o),
(522,69,o),
(522,229,cs),
(522,572,ls),
(522,732,o),
(431,812,o),
(271,812,cs),
(111,812,o),
(19,732,o),
(19,572,cs),
(19,229,ls),
(19,69,o),
(111,-11,o),
(271,-11,cs)
);
},
{
closed = 1;
nodes = (
(237,160,o),
(225,183,o),
(225,217,cs),
(225,583,ls),
(225,617,o),
(237,640,o),
(271,640,cs),
(305,640,o),
(317,617,o),
(317,583,cs),
(317,217,ls),
(317,183,o),
(305,160,o),
(271,160,cs)
);
}
);
width = 542;
},
{
anchors = (
{
name = top;
pos = (320,800);
}
);
layerId = m003;
shapes = (
{
closed = 1;
nodes = (
(545,-11,o),
(606,103,o),
(606,263,cs),
(606,297,ls),
(606,331,o),
(594,343,o),
(560,343,cs),
(457,343,ls),
(423,343,o),
(411,331,o),
(411,297,cs),
(411,286,ls),
(411,206,o),
(400,160,o),
(320,160,cs),
(251,160,o),
(240,206,o),
(240,286,cs),
(240,514,ls),
(240,594,o),
(251,640,o),
(320,640,cs),
(400,640,o),
(411,594,o),
(411,514,cs),
(411,503,ls),
(411,469,o),
(423,457,o),
(457,457,cs),
(560,457,ls),
(594,457,o),
(606,469,o),
(606,503,cs),
(606,537,ls),
(606,720,o),
(537,812,o),
(320,812,cs),
(103,812,o),
(34,720,o),
(34,503,cs),
(34,297,ls),
(34,80,o),
(111,-11,o),
(328,-11,cs)
);
}
);
width = 640;
},
{
anchors = (
{
name = top;
pos = (271,800);
}
);
associatedMasterId = m003;
layerId = "FC8C7B94-0A88-42DE-B572-402C25F1834A";
name = "Sep 27, 22, 20:39";
shapes = (
{
closed = 1;
nodes = (
(431,-11,o),
(522,69,o),
(522,229,cs),
(522,572,ls),
(522,732,o),
(431,812,o),
(271,812,cs),
(111,812,o),
(19,732,o),
(19,572,cs),
(19,229,ls),
(19,69,o),
(111,-11,o),
(271,-11,cs)
);
},
{
closed = 1;
nodes = (
(237,160,o),
(225,183,o),
(225,217,cs),
(225,583,ls),
(225,617,o),
(237,640,o),
(271,640,cs),
(305,640,o),
(317,617,o),
(317,583,cs),
(317,217,ls),
(317,183,o),
(305,160,o),
(271,160,cs)
);
}
);
width = 542;
},
{
anchors = (
{
name = top;
pos = (271,800);
}
);
layerId = m004;
shapes = (
{
closed = 1;
nodes = (
(511,-11,o),
(629,80,o),
(629,263,cs),
(629,349,ls),
(629,383,o),
(617,394,o),
(583,394,cs),
(391,394,ls),
(357,394,o),
(345,383,o),
(345,349,cs),
(345,183,ls),
(345,168,o),
(339,160,o),
(328,160,cs),
(317,160,o),
(311,168,o),
(311,183,cs),
(311,617,ls),
(311,632,o),
(317,640,o),
(328,640,cs),
(339,640,o),
(345,632,o),
(345,617,cs),
(345,474,ls),
(345,440,o),
(357,429,o),
(391,429,cs),
(583,429,ls),
(617,429,o),
(629,440,o),
(629,474,cs),
(629,537,ls),
(629,720,o),
(511,812,o),
(328,812,cs),
(145,812,o),
(11,720,o),
(11,537,cs),
(11,263,ls),
(11,80,o),
(145,-11,o),
(328,-11,cs)
);
}
);
width = 640;
},
{
anchors = (
{
name = top;
pos = (271,800);
}
);
associatedMasterId = m004;
layerId = "77A2E3CE-5FA8-434D-9AB1-2D05E020B86E";
name = "Feb 18, 23 at 12:41";
shapes = (
{
closed = 1;
nodes = (
(534,-11,o),
(633,80,o),
(633,297,cs),
(633,503,ls),
(633,720,o),
(534,812,o),
(328,812,cs),
(122,812,o),
(23,720,o),
(23,503,cs),
(23,297,ls),
(23,80,o),
(122,-11,o),
(328,-11,cs)
);
},
{
closed = 1;
nodes = (
(259,160,o),
(229,206,o),
(229,286,cs),
(229,514,ls),
(229,594,o),
(259,640,o),
(328,640,cs),
(397,640,o),
(427,594,o),
(427,514,cs),
(427,286,ls),
(427,206,o),
(397,160,o),
(328,160,cs)
);
}
);
visible = 1;
width = 640;
},
{
anchors = (
{
name = top;
pos = (271,800);
}
);
layerId = m005;
shapes = (
{
closed = 1;
nodes = (
(431,-11,o),
(511,69,o),
(511,229,cs),
(511,280,ls),
(511,314,o),
(499,326,o),
(465,326,cs),
(362,326,ls),
(328,326,o),
(317,314,o),
(317,280,cs),
(317,217,ls),
(317,183,o),
(305,160,o),
(271,160,cs),
(237,160,o),
(225,183,o),
(225,217,cs),
(225,583,ls),
(225,617,o),
(237,640,o),
(271,640,cs),
(305,640,o),
(317,617,o),
(317,583,cs),
(317,531,ls),
(317,497,o),
(328,486,o),
(362,486,cs),
(465,486,ls),
(499,486,o),
(511,497,o),
(511,531,cs),
(511,572,ls),
(511,732,o),
(431,812,o),
(271,812,cs),
(111,812,o),
(19,732,o),
(19,572,cs),
(19,229,ls),
(19,69,o),
(111,-11,o),
(271,-11,cs)
);
}
);
width = 526;
},
{
anchors = (
{
name = top;
pos = (271,800);
}
);
associatedMasterId = m005;
layerId = "17A475A5-BD1D-470A-881E-C56C9500F4E9";
name = "Sep 27, 22, 20:39";
shapes = (
{
closed = 1;
nodes = (
(431,-11,o),
(522,69,o),
(522,229,cs),
(522,572,ls),
(522,732,o),
(431,812,o),
(271,812,cs),
(111,812,o),
(19,732,o),
(19,572,cs),
(19,229,ls),
(19,69,o),
(111,-11,o),
(271,-11,cs)
);
},
{
closed = 1;
nodes = (
(237,160,o),
(225,183,o),
(225,217,cs),
(225,583,ls),
(225,617,o),
(237,640,o),
(271,640,cs),
(305,640,o),
(317,617,o),
(317,583,cs),
(317,217,ls),
(317,183,o),
(305,160,o),
(271,160,cs)
);
}
);
width = 542;
}
);
unicode = 67;
},
{
color = 5;
glyphname = Ccedilla;
layers = (
{
layerId = m01;
shapes = (
{
closed = 1;
nodes = (
(233,-257,o),
(391,-215,o),
(391,-105,cs),
(391,-53,o),
(371,-37,o),
(371,-22,cs),
(371,-3,o),
(399,10,o),
(417,21,cs),
(486,57,o),
(522,127,o),
(522,229,cs),
(522,280,ls),
(522,314,o),
(511,326,o),
(477,326,cs),
(362,326,ls),
(328,326,o),
(317,314,o),
(317,280,cs),
(317,217,ls),
(317,183,o),
(305,160,o),
(271,160,cs),
(237,160,o),
(225,183,o),
(225,217,cs),
(225,583,ls),
(225,617,o),
(237,640,o),
(271,640,cs),
(305,640,o),
(317,617,o),
(317,583,cs),
(317,531,ls),
(317,497,o),
(328,486,o),
(362,486,cs),
(477,486,ls),
(511,486,o),
(522,497,o),
(522,531,cs),
(522,572,ls),
(522,732,o),
(431,812,o),
(271,812,cs),
(111,812,o),
(19,732,o),
(19,572,cs),
(19,229,ls),
(19,123,o),
(59,53,o),
(131,17,cs),
(147,9,o),
(174,-1,o),
(190,-16,cs),
(199,-25,o),
(232,-31,o),
(255,-33,cs),
(271,-34,o),
(297,-82,o),
(297,-97,cs),
(297,-135,o),
(227,-141,o),
(174,-141,cs),
(152,-141,o),
(139,-136,o),
(139,-171,cs),
(139,-237,ls),
(139,-250,o),
(147,-257,o),
(161,-257,cs)
);
}
);
width = 536;
},
{
layerId = "6ABCF30A-460E-4EED-802C-9E4699B7E7F6";
shapes = (
{
closed = 1;
nodes = (
(233,-257,o),
(391,-215,o),
(391,-105,cs),
(391,-53,o),
(371,-37,o),
(371,-22,cs),
(371,-3,o),
(399,10,o),
(417,21,cs),
(486,57,o),
(522,127,o),
(522,229,cs),
(522,280,ls),
(522,314,o),
(511,326,o),
(477,326,cs),
(362,326,ls),
(328,326,o),
(317,314,o),
(317,280,cs),
(317,217,ls),
(317,183,o),
(305,160,o),
(271,160,cs),
(237,160,o),
(225,183,o),
(225,217,cs),
(225,583,ls),
(225,617,o),
(237,640,o),
(271,640,cs),
(305,640,o),
(317,617,o),
(317,583,cs),
(317,531,ls),
(317,497,o),
(328,486,o),
(362,486,cs),
(477,486,ls),
(511,486,o),
(522,497,o),
(522,531,cs),
(522,572,ls),
(522,732,o),
(431,812,o),
(271,812,cs),
(111,812,o),
(19,732,o),
(19,572,cs),
(19,229,ls),
(19,123,o),
(59,53,o),
(131,17,cs),
(147,9,o),
(174,-1,o),
(190,-16,cs),
(199,-25,o),
(232,-31,o),
(255,-33,cs),
(271,-34,o),
(297,-82,o),
(297,-97,cs),
(297,-135,o),
(227,-141,o),
(174,-141,cs),
(152,-141,o),
(139,-136,o),
(139,-171,cs),
(139,-237,ls),
(139,-250,o),
(147,-257,o),
(161,-257,cs)
);
}
);
width = 536;
},
{
layerId = m003;
shapes = (
{
closed = 1;
nodes = (
(233,-257,o),
(391,-215,o),
(391,-105,cs),
(391,-53,o),
(371,-37,o),
(371,-22,cs),
(371,-3,o),
(399,10,o),
(417,21,cs),
(486,57,o),
(522,127,o),
(522,229,cs),
(522,280,ls),
(522,314,o),
(511,326,o),
(477,326,cs),
(362,326,ls),
(328,326,o),
(317,314,o),
(317,280,cs),
(317,217,ls),
(317,183,o),
(305,160,o),
(271,160,cs),
(237,160,o),
(225,183,o),
(225,217,cs),
(225,583,ls),
(225,617,o),
(237,640,o),
(271,640,cs),
(305,640,o),
(317,617,o),
(317,583,cs),
(317,531,ls),
(317,497,o),
(328,486,o),
(362,486,cs),
(477,486,ls),
(511,486,o),
(522,497,o),
(522,531,cs),
(522,572,ls),
(522,732,o),
(431,812,o),
(271,812,cs),
(111,812,o),
(19,732,o),
(19,572,cs),
(19,229,ls),
(19,123,o),
(59,53,o),
(131,17,cs),
(147,9,o),
(174,-1,o),
(190,-16,cs),
(199,-25,o),
(232,-31,o),
(255,-33,cs),
(271,-34,o),
(297,-82,o),
(297,-97,cs),
(297,-135,o),
(227,-141,o),
(174,-141,cs),
(152,-141,o),
(139,-136,o),
(139,-171,cs),
(139,-237,ls),
(139,-250,o),
(147,-257,o),
(161,-257,cs)
);
}
);
width = 536;
},
{
layerId = m004;
shapes = (
{
closed = 1;
nodes = (
(233,-257,o),
(391,-215,o),
(391,-105,cs),
(391,-53,o),
(371,-37,o),
(371,-22,cs),
(371,-3,o),
(399,10,o),
(417,21,cs),
(486,57,o),
(522,127,o),
(522,229,cs),
(522,280,ls),
(522,314,o),
(511,326,o),
(477,326,cs),
(362,326,ls),
(328,326,o),
(317,314,o),
(317,280,cs),
(317,217,ls),
(317,183,o),
(305,160,o),
(271,160,cs),
(237,160,o),
(225,183,o),
(225,217,cs),
(225,583,ls),
(225,617,o),
(237,640,o),
(271,640,cs),
(305,640,o),
(317,617,o),
(317,583,cs),
(317,531,ls),
(317,497,o),
(328,486,o),
(362,486,cs),
(477,486,ls),
(511,486,o),
(522,497,o),
(522,531,cs),
(522,572,ls),
(522,732,o),
(431,812,o),
(271,812,cs),
(111,812,o),
(19,732,o),
(19,572,cs),
(19,229,ls),
(19,123,o),
(59,53,o),
(131,17,cs),
(147,9,o),
(174,-1,o),
(190,-16,cs),
(199,-25,o),
(232,-31,o),
(255,-33,cs),
(271,-34,o),
(297,-82,o),
(297,-97,cs),
(297,-135,o),
(227,-141,o),
(174,-141,cs),
(152,-141,o),
(139,-136,o),
(139,-171,cs),
(139,-237,ls),
(139,-250,o),
(147,-257,o),
(161,-257,cs)
);
}
);
width = 536;
},
{
layerId = m005;
shapes = (
{
closed = 1;
nodes = (
(233,-257,o),
(391,-215,o),
(391,-105,cs),
(391,-53,o),
(371,-37,o),
(371,-22,cs),
(371,-3,o),
(399,10,o),
(417,21,cs),
(486,57,o),
(522,127,o),
(522,229,cs),
(522,280,ls),
(522,314,o),
(511,326,o),
(477,326,cs),
(362,326,ls),
(328,326,o),
(317,314,o),
(317,280,cs),
(317,217,ls),
(317,183,o),
(305,160,o),
(271,160,cs),
(237,160,o),
(225,183,o),
(225,217,cs),
(225,583,ls),
(225,617,o),
(237,640,o),
(271,640,cs),
(305,640,o),
(317,617,o),
(317,583,cs),
(317,531,ls),
(317,497,o),
(328,486,o),
(362,486,cs),
(477,486,ls),
(511,486,o),
(522,497,o),
(522,531,cs),
(522,572,ls),
(522,732,o),
(431,812,o),
(271,812,cs),
(111,812,o),
(19,732,o),
(19,572,cs),
(19,229,ls),
(19,123,o),
(59,53,o),
(131,17,cs),
(147,9,o),
(174,-1,o),
(190,-16,cs),
(199,-25,o),
(232,-31,o),
(255,-33,cs),
(271,-34,o),
(297,-82,o),
(297,-97,cs),
(297,-135,o),
(227,-141,o),
(174,-141,cs),
(152,-141,o),
(139,-136,o),
(139,-171,cs),
(139,-237,ls),
(139,-250,o),
(147,-257,o),
(161,-257,cs)
);
}
);
width = 536;
}
);
unicode = 199;
},
{
color = 5;
glyphname = D;
kernLeft = H;
kernRight = O;
layers = (
{
anchors = (
{
name = top;
pos = (291,800);
}
);
layerId = m01;
shapes = (
{
closed = 1;
nodes = (
(320,0,ls),
(469,0,o),
(537,69,o),
(537,217,cs),
(537,583,ls),
(537,732,o),
(446,800,o),
(297,800,cs),
(80,800,ls),
(46,800,o),
(34,789,o),
(34,754,cs),
(34,46,ls),
(34,11,o),
(46,0,o),
(80,0,cs)
);
},
{
closed = 1;
nodes = (
(246,171,o),
(240,177,o),
(240,194,cs),
(240,606,ls),
(240,623,o),
(246,629,o),
(263,629,cs),
(286,629,ls),
(320,629,o),
(331,617,o),
(331,572,cs),
(331,229,ls),
(331,183,o),
(320,171,o),
(286,171,cs),
(263,171,ls)
);
}
);
width = 560;
},
{
anchors = (
{
name = top;
pos = (274,800);
}
);
layerId = "6ABCF30A-460E-4EED-802C-9E4699B7E7F6";
shapes = (
{
closed = 1;
nodes = (
(331,0,ls),
(480,0,o),
(543,69,o),
(543,217,cs),
(543,583,ls),
(543,732,o),
(457,800,o),
(309,800,cs),
(65,800,ls),
(33,800,o),
(17,784,o),
(17,752,cs),
(17,46,ls),
(17,11,o),
(29,0,o),
(63,0,cs)
);
},
{
closed = 1;
nodes = (
(269,171,o),
(264,179,o),
(264,195,cs),
(264,605,ls),
(264,621,o),
(269,629,o),
(279,629,cs),
(281,629,ls),
(291,629,o),
(296,621,o),
(296,605,cs),
(296,195,ls),
(296,179,o),
(291,171,o),
(281,171,cs),
(279,171,ls)
);
}
);
width = 560;
},
{
anchors = (
{
name = top;
pos = (389,800);
}
);
layerId = m003;
shapes = (
{
closed = 1;
nodes = (
(366,0,ls),
(549,0,o),
(640,80,o),
(640,274,cs),
(640,526,ls),
(640,720,o),
(526,800,o),
(343,800,cs),
(80,800,ls),
(46,800,o),
(34,789,o),
(34,754,cs),
(34,46,ls),
(34,11,o),
(46,0,o),
(80,0,cs)
);
},
{
closed = 1;
nodes = (
(246,171,o),
(240,177,o),
(240,194,cs),
(240,606,ls),
(240,623,o),
(246,629,o),
(263,629,cs),
(331,629,ls),
(400,629,o),
(434,594,o),
(434,514,cs),
(434,286,ls),
(434,206,o),
(400,171,o),
(331,171,cs),
(263,171,ls)
);
}
);
width = 663;
},
{
anchors = (
{
name = top;
pos = (263,800);
}
);
layerId = m004;
shapes = (
{
closed = 1;
nodes = (
(377,0,ls),
(560,0,o),
(652,80,o),
(652,274,cs),
(652,526,ls),
(652,720,o),
(537,800,o),
(354,800,cs),
(57,800,ls),
(23,800,o),
(11,789,o),
(11,754,cs),
(11,46,ls),
(11,11,o),
(23,0,o),
(57,0,cs)
);
},
{
closed = 1;
nodes = (
(313,171,o),
(309,181,o),
(309,193,cs),
(309,606,ls),
(309,621,o),
(313,629,o),
(325,629,cs),
(327,629,ls),
(338,629,o),
(343,621,o),
(343,606,cs),
(343,193,ls),
(343,181,o),
(338,171,o),
(327,171,cs),
(325,171,ls)
);
}
);
width = 663;
},
{
anchors = (
{
name = top;
pos = (291,800);
}
);
layerId = m005;
shapes = (
{
closed = 1;
nodes = (
(286,0,ls),
(423,0,o),
(526,114,o),
(526,343,cs),
(526,457,ls),
(526,686,o),
(423,800,o),
(263,800,cs),
(80,800,ls),
(57,800,o),
(46,789,o),
(46,766,cs),
(46,34,ls),
(46,11,o),
(57,0,o),
(80,0,cs)
);
},
{
closed = 1;
nodes = (
(166,91,o),
(160,97,o),
(160,114,cs),
(160,686,ls),
(160,703,o),
(166,709,o),
(183,709,cs),
(251,709,ls),
(331,709,o),
(423,674,o),
(423,423,cs),
(423,377,ls),
(423,126,o),
(331,91,o),
(251,91,cs),
(183,91,ls)
);
}
);
width = 560;
}
);
unicode = 68;
},
{
color = 5;
glyphname = Eth;
layers = (
{
layerId = m01;
shapes = (
{
closed = 1;
nodes = (
(349,0,ls),
(497,0,o),
(566,69,o),
(566,217,cs),
(566,583,ls),
(566,732,o),
(474,800,o),
(326,800,cs),
(109,800,ls),
(74,800,o),
(63,789,o),
(63,754,cs),
(63,511,ls),
(63,494,o),
(57,488,o),
(40,488,cs),
(34,488,ls),
(17,488,o),
(11,482,o),
(11,465,cs),
(11,351,ls),
(11,334,o),
(17,328,o),
(34,328,cs),
(40,328,ls),
(57,328,o),
(63,322,o),
(63,305,cs),
(63,46,ls),
(63,11,o),
(74,0,o),
(109,0,cs)
);
},
{
closed = 1;
nodes = (
(269,305,ls),
(269,322,o),
(274,328,o),
(291,328,cs),
(297,328,ls),
(314,328,o),
(320,334,o),
(320,351,cs),
(320,465,ls),
(320,482,o),
(314,488,o),
(297,488,cs),
(291,488,ls),
(274,488,o),
(269,494,o),
(269,511,cs),
(269,606,ls),
(269,623,o),
(274,629,o),
(291,629,cs),
(314,629,ls),
(349,629,o),
(360,617,o),
(360,572,cs),
(360,229,ls),
(360,183,o),
(349,171,o),
(314,171,cs),
(291,171,ls),
(274,171,o),
(269,177,o),
(269,194,cs)
);
}
);
width = 585;
},
{
layerId = "6ABCF30A-460E-4EED-802C-9E4699B7E7F6";
shapes = (
{
closed = 1;
nodes = (
(349,0,ls),
(497,0,o),
(566,69,o),
(566,217,cs),
(566,583,ls),
(566,732,o),
(474,800,o),
(326,800,cs),
(109,800,ls),
(74,800,o),
(63,789,o),
(63,754,cs),
(63,511,ls),
(63,494,o),
(57,488,o),
(40,488,cs),
(34,488,ls),
(17,488,o),
(11,482,o),
(11,465,cs),
(11,351,ls),
(11,334,o),
(17,328,o),
(34,328,cs),
(40,328,ls),
(57,328,o),
(63,322,o),
(63,305,cs),
(63,46,ls),
(63,11,o),
(74,0,o),
(109,0,cs)
);
},
{
closed = 1;
nodes = (
(269,305,ls),
(269,322,o),
(274,328,o),
(291,328,cs),
(297,328,ls),
(314,328,o),
(320,334,o),
(320,351,cs),
(320,465,ls),
(320,482,o),
(314,488,o),
(297,488,cs),
(291,488,ls),
(274,488,o),
(269,494,o),
(269,511,cs),
(269,606,ls),
(269,623,o),
(274,629,o),
(291,629,cs),
(314,629,ls),
(349,629,o),
(360,617,o),
(360,572,cs),
(360,229,ls),
(360,183,o),
(349,171,o),
(314,171,cs),
(291,171,ls),
(274,171,o),
(269,177,o),
(269,194,cs)
);
}
);
width = 585;
},
{
layerId = m003;
shapes = (
{
closed = 1;
nodes = (
(349,0,ls),
(497,0,o),
(566,69,o),
(566,217,cs),
(566,583,ls),
(566,732,o),
(474,800,o),
(326,800,cs),
(109,800,ls),
(74,800,o),
(63,789,o),
(63,754,cs),
(63,511,ls),
(63,494,o),
(57,488,o),
(40,488,cs),
(34,488,ls),
(17,488,o),
(11,482,o),
(11,465,cs),
(11,351,ls),
(11,334,o),
(17,328,o),
(34,328,cs),
(40,328,ls),
(57,328,o),
(63,322,o),
(63,305,cs),
(63,46,ls),
(63,11,o),
(74,0,o),
(109,0,cs)
);
},
{
closed = 1;
nodes = (
(269,305,ls),
(269,322,o),
(274,328,o),
(291,328,cs),
(297,328,ls),
(314,328,o),
(320,334,o),
(320,351,cs),
(320,465,ls),
(320,482,o),
(314,488,o),
(297,488,cs),
(291,488,ls),
(274,488,o),
(269,494,o),
(269,511,cs),
(269,606,ls),
(269,623,o),
(274,629,o),
(291,629,cs),
(314,629,ls),
(349,629,o),
(360,617,o),
(360,572,cs),
(360,229,ls),
(360,183,o),
(349,171,o),
(314,171,cs),
(291,171,ls),
(274,171,o),
(269,177,o),
(269,194,cs)
);
}
);
width = 585;
},
{
layerId = m004;
shapes = (
{
closed = 1;
nodes = (
(349,0,ls),
(497,0,o),
(566,69,o),
(566,217,cs),
(566,583,ls),
(566,732,o),
(474,800,o),
(326,800,cs),
(109,800,ls),
(74,800,o),
(63,789,o),
(63,754,cs),
(63,511,ls),
(63,494,o),
(57,488,o),
(40,488,cs),
(34,488,ls),
(17,488,o),
(11,482,o),
(11,465,cs),
(11,351,ls),
(11,334,o),
(17,328,o),
(34,328,cs),
(40,328,ls),
(57,328,o),
(63,322,o),
(63,305,cs),
(63,46,ls),
(63,11,o),
(74,0,o),
(109,0,cs)
);
},
{
closed = 1;
nodes = (
(269,305,ls),
(269,322,o),
(274,328,o),
(291,328,cs),
(297,328,ls),
(314,328,o),
(320,334,o),
(320,351,cs),
(320,465,ls),
(320,482,o),
(314,488,o),
(297,488,cs),
(291,488,ls),
(274,488,o),
(269,494,o),
(269,511,cs),
(269,606,ls),
(269,623,o),
(274,629,o),
(291,629,cs),
(314,629,ls),
(349,629,o),
(360,617,o),
(360,572,cs),
(360,229,ls),
(360,183,o),
(349,171,o),
(314,171,cs),
(291,171,ls),
(274,171,o),
(269,177,o),
(269,194,cs)
);
}
);
width = 585;
},
{
layerId = m005;
shapes = (
{
closed = 1;
nodes = (
(349,0,ls),
(497,0,o),
(566,69,o),
(566,217,cs),
(566,583,ls),
(566,732,o),
(474,800,o),
(326,800,cs),
(109,800,ls),
(74,800,o),
(63,789,o),
(63,754,cs),
(63,511,ls),
(63,494,o),
(57,488,o),
(40,488,cs),
(34,488,ls),
(17,488,o),
(11,482,o),
(11,465,cs),
(11,351,ls),
(11,334,o),
(17,328,o),
(34,328,cs),
(40,328,ls),
(57,328,o),
(63,322,o),
(63,305,cs),
(63,46,ls),
(63,11,o),
(74,0,o),
(109,0,cs)
);
},
{
closed = 1;
nodes = (
(269,305,ls),
(269,322,o),
(274,328,o),
(291,328,cs),
(297,328,ls),
(314,328,o),
(320,334,o),
(320,351,cs),
(320,465,ls),
(320,482,o),
(314,488,o),
(297,488,cs),
(291,488,ls),
(274,488,o),
(269,494,o),
(269,511,cs),
(269,606,ls),
(269,623,o),
(274,629,o),
(291,629,cs),
(314,629,ls),
(349,629,o),
(360,617,o),
(360,572,cs),
(360,229,ls),
(360,183,o),
(349,171,o),
(314,171,cs),
(291,171,ls),
(274,171,o),
(269,177,o),
(269,194,cs)
);
}
);
width = 585;
}
);
unicode = 208;
},
{
color = 5;
glyphname = E;
kernLeft = H;
kernRight = E;
layers = (
{
anchors = (
{
name = top;
pos = (230,800);
}
);
layerId = m01;
shapes = (
{
closed = 1;
nodes = (
(366,0,ls),
(400,0,o),
(411,11,o),
(411,46,cs),
(411,126,ls),
(411,160,o),
(400,171,o),
(366,171,cs),
(263,171,ls),
(246,171,o),
(240,177,o),
(240,194,cs),
(240,309,ls),
(240,326,o),
(246,331,o),
(263,331,cs),
(331,331,ls),
(366,331,o),
(377,343,o),
(377,377,cs),
(377,446,ls),
(377,480,o),
(366,491,o),
(331,491,cs),
(263,491,ls),
(246,491,o),
(240,497,o),
(240,514,cs),
(240,606,ls),
(240,623,o),
(246,629,o),
(263,629,cs),
(366,629,ls),
(400,629,o),
(411,640,o),
(411,674,cs),
(411,754,ls),
(411,789,o),
(400,800,o),
(366,800,cs),
(80,800,ls),
(46,800,o),
(34,789,o),
(34,754,cs),
(34,46,ls),
(34,11,o),
(46,0,o),
(80,0,cs)
);
}
);
width = 434;
},
{
anchors = (
{
name = top;
pos = (213,800);
}
);
layerId = "6ABCF30A-460E-4EED-802C-9E4699B7E7F6";
shapes = (
{
closed = 1;
nodes = (
(377,0,ls),
(411,0,o),
(423,11,o),
(423,46,cs),
(423,205,ls),
(423,239,o),
(411,251,o),
(377,251,cs),
(280,251,ls),
(265,251,o),
(257,257,o),
(257,267,cs),
(257,270,ls),
(257,280,o),
(265,286,o),
(280,286,cs),
(354,286,ls),
(389,286,o),
(400,298,o),
(400,333,cs),
(400,473,ls),
(400,507,o),
(389,514,o),
(354,514,cs),
(280,514,ls),
(265,514,o),
(257,520,o),
(257,530,cs),
(257,533,ls),
(257,543,o),
(265,549,o),
(280,549,cs),
(377,549,ls),
(411,549,o),
(423,555,o),
(423,590,cs),
(423,754,ls),
(423,789,o),
(411,800,o),
(377,800,cs),
(63,800,ls),
(29,800,o),
(17,789,o),
(17,754,cs),
(17,46,ls),
(17,11,o),
(29,0,o),
(63,0,cs)
);
}
);
width = 434;
},
{
anchors = (
{
name = top;
pos = (218,800);
}
);
layerId = m003;
shapes = (
{
closed = 1;
nodes = (
(474,0,ls),
(509,0,o),
(520,11,o),
(520,46,cs),
(520,126,ls),
(520,160,o),
(509,171,o),
(474,171,cs),
(263,171,ls),
(246,171,o),
(240,177,o),
(240,194,cs),
(240,309,ls),
(240,326,o),
(246,331,o),
(263,331,cs),
(429,331,ls),
(463,331,o),
(474,343,o),
(474,377,cs),
(474,446,ls),
(474,480,o),
(463,491,o),
(429,491,cs),
(263,491,ls),
(246,491,o),
(240,497,o),
(240,514,cs),
(240,606,ls),
(240,623,o),
(246,629,o),
(263,629,cs),
(474,629,ls),
(509,629,o),
(520,640,o),
(520,674,cs),
(520,754,ls),
(520,789,o),
(509,800,o),
(474,800,cs),
(80,800,ls),
(46,800,o),
(34,789,o),
(34,754,cs),
(34,46,ls),
(34,11,o),
(46,0,o),
(80,0,cs)
);
}
);
width = 549;
},
{
anchors = (
{
name = top;
pos = (275,800);
}
);
layerId = m004;
shapes = (
{
closed = 1;
nodes = (
(491,0,ls),
(526,0,o),
(537,11,o),
(537,46,cs),
(537,200,ls),
(537,234,o),
(526,246,o),
(491,246,cs),
(343,246,ls),
(328,246,o),
(320,251,o),
(320,263,cs),
(320,265,ls),
(320,277,o),
(328,282,o),
(343,282,cs),
(446,282,ls),
(480,282,o),
(491,294,o),
(491,328,cs),
(491,478,ls),
(491,512,o),
(480,523,o),
(446,523,cs),
(343,523,ls),
(328,523,o),
(320,529,o),
(320,541,cs),
(320,543,ls),
(320,554,o),
(328,560,o),
(343,560,cs),
(491,560,ls),
(526,560,o),
(537,572,o),
(537,606,cs),
(537,754,ls),
(537,789,o),
(526,800,o),
(491,800,cs),
(63,800,ls),
(29,800,o),
(17,789,o),
(17,754,cs),
(17,46,ls),
(17,11,o),
(29,0,o),
(63,0,cs)
);
}
);
width = 549;
},
{
anchors = (
{
name = top;
pos = (230,800);
}
);
backgroundImage = {
imagePath = "../../../../Desktop/Screenshot 2023-02-24 at 11.51.48 PM.png";
locked = 1;
pos = (-1058,-301);
scale = (7.5389,7.5389);
};
layerId = m005;
shapes = (
{
closed = 1;
nodes = (
(343,0,ls),
(377,0,o),
(389,11,o),
(389,46,cs),
(389,46,ls),
(389,80,o),
(377,91,o),
(343,91,cs),
(171,91,ls),
(154,91,o),
(149,97,o),
(149,114,cs),
(149,343,ls),
(149,360,o),
(154,366,o),
(171,366,cs),
(286,366,ls),
(320,366,o),
(331,377,o),
(331,411,cs),
(331,423,ls),
(331,457,o),
(320,469,o),
(286,469,cs),
(171,469,ls),
(154,469,o),
(149,474,o),
(149,491,cs),
(149,674,ls),
(149,692,o),
(154,697,o),
(171,697,cs),
(343,697,ls),
(377,697,o),
(389,709,o),
(389,743,cs),
(389,754,ls),
(389,789,o),
(377,800,o),
(343,800,cs),
(103,800,ls),
(69,800,o),
(57,789,o),
(57,754,cs),
(57,46,ls),
(57,11,o),
(69,0,o),
(103,0,cs)
);
}
);
width = 434;
}
);
unicode = 69;
},
{
color = 5;
glyphname = Eogonek;
layers = (
{
layerId = m01;
shapes = (
{
closed = 1;
nodes = (
(224,0,ls),
(238,0,o),
(245,-3,o),
(245,-14,cs),
(245,-42,o),
(203,-45,o),
(203,-106,cs),
(203,-169,o),
(265,-200,o),
(377,-200,cs),
(393,-200,o),
(400,-189,o),
(400,-177,cs),
(400,-119,ls),
(400,-105,o),
(393,-96,o),
(377,-96,cs),
(341,-96,o),
(309,-81,o),
(309,-58,cs),
(309,-31,o),
(342,0,o),
(377,0,cs),
(411,0,o),
(423,11,o),
(423,46,cs),
(423,126,ls),
(423,160,o),
(411,171,o),
(377,171,cs),
(251,171,ls),
(234,171,o),
(229,177,o),
(229,194,cs),
(229,309,ls),
(229,326,o),
(234,331,o),
(251,331,cs),
(331,331,ls),
(366,331,o),
(377,343,o),
(377,377,cs),
(377,446,ls),
(377,480,o),
(366,491,o),
(331,491,cs),
(251,491,ls),
(234,491,o),
(229,497,o),
(229,514,cs),
(229,606,ls),
(229,623,o),
(234,629,o),
(251,629,cs),
(377,629,ls),
(411,629,o),
(423,640,o),
(423,674,cs),
(423,754,ls),
(423,789,o),
(411,800,o),
(377,800,cs),
(69,800,ls),
(34,800,o),
(23,789,o),
(23,754,cs),
(23,46,ls),
(23,11,o),
(34,0,o),
(69,0,cs)
);
}
);
width = 440;
},
{
layerId = "6ABCF30A-460E-4EED-802C-9E4699B7E7F6";
shapes = (
{
closed = 1;
nodes = (
(224,0,ls),
(238,0,o),
(245,-3,o),
(245,-14,cs),
(245,-42,o),
(203,-45,o),
(203,-106,cs),
(203,-169,o),
(265,-200,o),
(377,-200,cs),
(393,-200,o),
(400,-189,o),
(400,-177,cs),
(400,-119,ls),
(400,-105,o),
(393,-96,o),
(377,-96,cs),
(341,-96,o),
(309,-81,o),
(309,-58,cs),
(309,-31,o),
(342,0,o),
(377,0,cs),
(411,0,o),
(423,11,o),
(423,46,cs),
(423,126,ls),
(423,160,o),
(411,171,o),
(377,171,cs),
(251,171,ls),
(234,171,o),
(229,177,o),
(229,194,cs),
(229,309,ls),
(229,326,o),
(234,331,o),
(251,331,cs),
(331,331,ls),
(366,331,o),
(377,343,o),
(377,377,cs),
(377,446,ls),
(377,480,o),
(366,491,o),
(331,491,cs),
(251,491,ls),
(234,491,o),
(229,497,o),
(229,514,cs),
(229,606,ls),
(229,623,o),
(234,629,o),
(251,629,cs),
(377,629,ls),
(411,629,o),
(423,640,o),
(423,674,cs),
(423,754,ls),
(423,789,o),
(411,800,o),
(377,800,cs),
(69,800,ls),
(34,800,o),
(23,789,o),
(23,754,cs),
(23,46,ls),
(23,11,o),
(34,0,o),
(69,0,cs)
);
}
);
width = 440;
},
{
layerId = m003;
shapes = (
{
closed = 1;
nodes = (
(224,0,ls),
(238,0,o),
(245,-3,o),
(245,-14,cs),
(245,-42,o),
(203,-45,o),
(203,-106,cs),
(203,-169,o),
(265,-200,o),
(377,-200,cs),
(393,-200,o),
(400,-189,o),
(400,-177,cs),
(400,-119,ls),
(400,-105,o),
(393,-96,o),
(377,-96,cs),
(341,-96,o),
(309,-81,o),
(309,-58,cs),
(309,-31,o),
(342,0,o),
(377,0,cs),
(411,0,o),
(423,11,o),
(423,46,cs),
(423,126,ls),
(423,160,o),
(411,171,o),
(377,171,cs),
(251,171,ls),
(234,171,o),
(229,177,o),
(229,194,cs),
(229,309,ls),
(229,326,o),
(234,331,o),
(251,331,cs),
(331,331,ls),
(366,331,o),
(377,343,o),
(377,377,cs),
(377,446,ls),
(377,480,o),
(366,491,o),
(331,491,cs),
(251,491,ls),
(234,491,o),
(229,497,o),
(229,514,cs),
(229,606,ls),
(229,623,o),
(234,629,o),
(251,629,cs),
(377,629,ls),
(411,629,o),
(423,640,o),
(423,674,cs),
(423,754,ls),
(423,789,o),
(411,800,o),
(377,800,cs),
(69,800,ls),
(34,800,o),
(23,789,o),
(23,754,cs),
(23,46,ls),
(23,11,o),
(34,0,o),
(69,0,cs)
);
}
);
width = 440;
},
{
layerId = m004;
shapes = (
{
closed = 1;
nodes = (
(224,0,ls),
(238,0,o),
(245,-3,o),
(245,-14,cs),
(245,-42,o),
(203,-45,o),
(203,-106,cs),
(203,-169,o),
(265,-200,o),
(377,-200,cs),
(393,-200,o),
(400,-189,o),
(400,-177,cs),
(400,-119,ls),
(400,-105,o),
(393,-96,o),
(377,-96,cs),
(341,-96,o),
(309,-81,o),
(309,-58,cs),
(309,-31,o),
(342,0,o),
(377,0,cs),
(411,0,o),
(423,11,o),
(423,46,cs),
(423,126,ls),
(423,160,o),
(411,171,o),
(377,171,cs),
(251,171,ls),
(234,171,o),
(229,177,o),
(229,194,cs),
(229,309,ls),
(229,326,o),
(234,331,o),
(251,331,cs),
(331,331,ls),
(366,331,o),
(377,343,o),
(377,377,cs),
(377,446,ls),
(377,480,o),
(366,491,o),
(331,491,cs),
(251,491,ls),
(234,491,o),
(229,497,o),
(229,514,cs),
(229,606,ls),
(229,623,o),
(234,629,o),
(251,629,cs),
(377,629,ls),
(411,629,o),
(423,640,o),
(423,674,cs),
(423,754,ls),
(423,789,o),
(411,800,o),
(377,800,cs),
(69,800,ls),
(34,800,o),
(23,789,o),
(23,754,cs),
(23,46,ls),
(23,11,o),
(34,0,o),
(69,0,cs)
);
}
);
width = 440;
},
{
layerId = m005;
shapes = (
{
closed = 1;
nodes = (
(224,0,ls),
(238,0,o),
(245,-3,o),
(245,-14,cs),
(245,-42,o),
(203,-45,o),
(203,-106,cs),
(203,-169,o),
(265,-200,o),
(377,-200,cs),
(393,-200,o),
(400,-189,o),
(400,-177,cs),
(400,-119,ls),
(400,-105,o),
(393,-96,o),
(377,-96,cs),
(341,-96,o),
(309,-81,o),
(309,-58,cs),
(309,-31,o),
(342,0,o),
(377,0,cs),
(411,0,o),
(423,11,o),
(423,46,cs),
(423,126,ls),
(423,160,o),
(411,171,o),
(377,171,cs),
(251,171,ls),
(234,171,o),
(229,177,o),
(229,194,cs),
(229,309,ls),
(229,326,o),
(234,331,o),
(251,331,cs),
(331,331,ls),
(366,331,o),
(377,343,o),
(377,377,cs),
(377,446,ls),
(377,480,o),
(366,491,o),
(331,491,cs),
(251,491,ls),
(234,491,o),
(229,497,o),
(229,514,cs),
(229,606,ls),
(229,623,o),
(234,629,o),
(251,629,cs),
(377,629,ls),
(411,629,o),
(423,640,o),
(423,674,cs),
(423,754,ls),
(423,789,o),
(411,800,o),
(377,800,cs),
(69,800,ls),
(34,800,o),
(23,789,o),
(23,754,cs),
(23,46,ls),
(23,11,o),
(34,0,o),
(69,0,cs)
);
}
);
width = 440;
}
);
unicode = 280;
},
{
color = 5;
glyphname = F;
kernLeft = H;
kernRight = F;
layers = (
{
layerId = m01;
shapes = (
{
closed = 1;
nodes = (
(183,0,ls),
(217,0,o),
(229,11,o),
(229,46,cs),
(229,309,ls),
(229,326,o),
(234,331,o),
(251,331,cs),
(331,331,ls),
(366,331,o),
(377,343,o),
(377,377,cs),
(377,446,ls),
(377,480,o),
(366,491,o),
(331,491,cs),
(251,491,ls),
(234,491,o),
(229,497,o),
(229,514,cs),
(229,606,ls),
(229,623,o),
(234,629,o),
(251,629,cs),
(377,629,ls),
(411,629,o),
(423,640,o),
(423,674,cs),
(423,754,ls),
(423,789,o),
(411,800,o),
(377,800,cs),
(69,800,ls),
(34,800,o),
(23,789,o),
(23,754,cs),
(23,46,ls),
(23,11,o),
(34,0,o),
(69,0,cs)
);
}
);
width = 434;
},
{
layerId = "6ABCF30A-460E-4EED-802C-9E4699B7E7F6";
shapes = (
{
closed = 1;
nodes = (
(229,0,ls),
(263,0,o),
(274,11,o),
(274,46,cs),
(274,277,ls),
(274,287,o),
(282,293,o),
(297,293,cs),
(354,293,ls),
(389,293,o),
(400,305,o),
(400,339,cs),
(400,455,ls),
(400,489,o),
(389,496,o),
(354,496,cs),
(297,496,ls),
(282,496,o),
(274,502,o),
(274,512,cs),
(274,514,ls),
(274,525,o),
(282,530,o),
(297,530,cs),
(377,530,ls),
(411,530,o),
(423,537,o),
(423,572,cs),
(423,754,ls),
(423,789,o),
(411,800,o),
(377,800,cs),
(63,800,ls),
(29,800,o),
(17,789,o),
(17,754,cs),
(17,46,ls),
(17,11,o),
(29,0,o),
(63,0,cs)
);
}
);
width = 434;
},
{
layerId = m003;
shapes = (
{
closed = 1;
nodes = (
(194,0,ls),
(229,0,o),
(240,11,o),
(240,46,cs),
(240,309,ls),
(240,326,o),
(246,331,o),
(263,331,cs),
(446,331,ls),
(480,331,o),
(491,343,o),
(491,377,cs),
(491,446,ls),
(491,480,o),
(480,491,o),
(446,491,cs),
(263,491,ls),
(246,491,o),
(240,497,o),
(240,514,cs),
(240,606,ls),
(240,623,o),
(246,629,o),
(263,629,cs),
(491,629,ls),
(526,629,o),
(537,640,o),
(537,674,cs),
(537,754,ls),
(537,789,o),
(526,800,o),
(491,800,cs),
(80,800,ls),
(46,800,o),
(34,789,o),
(34,754,cs),
(34,46,ls),
(34,11,o),
(46,0,o),
(80,0,cs)
);
}
);
width = 549;
},
{
layerId = m004;
shapes = (
{
closed = 1;
nodes = (
(274,0,ls),
(309,0,o),
(320,11,o),
(320,46,cs),
(320,263,ls),
(320,280,o),
(326,286,o),
(343,286,cs),
(451,286,ls),
(486,286,o),
(497,297,o),
(497,331,cs),
(497,478,ls),
(497,512,o),
(486,523,o),
(451,523,cs),
(343,523,ls),
(328,523,o),
(320,529,o),
(320,541,cs),
(320,543,ls),
(320,554,o),
(328,560,o),
(343,560,cs),
(491,560,ls),
(526,560,o),
(537,572,o),
(537,606,cs),
(537,754,ls),
(537,789,o),
(526,800,o),
(491,800,cs),
(69,800,ls),
(34,800,o),
(23,789,o),
(23,754,cs),
(23,46,ls),
(23,11,o),
(34,0,o),
(69,0,cs)
);
}
);
width = 549;
},
{
layerId = m005;
shapes = (
{
closed = 1;
nodes = (
(183,0,ls),
(217,0,o),
(229,11,o),
(229,46,cs),
(229,309,ls),
(229,326,o),
(234,331,o),
(251,331,cs),
(331,331,ls),
(366,331,o),
(377,343,o),
(377,377,cs),
(377,446,ls),
(377,480,o),
(366,491,o),
(331,491,cs),
(251,491,ls),
(234,491,o),
(229,497,o),
(229,514,cs),
(229,606,ls),
(229,623,o),
(234,629,o),
(251,629,cs),
(377,629,ls),
(411,629,o),
(423,640,o),
(423,674,cs),
(423,754,ls),
(423,789,o),
(411,800,o),
(377,800,cs),
(69,800,ls),
(34,800,o),
(23,789,o),
(23,754,cs),
(23,46,ls),
(23,11,o),
(34,0,o),
(69,0,cs)
);
}
);
width = 434;
}
);
unicode = 70;
},
{
color = 5;
glyphname = G;
kernLeft = O;
kernRight = G;
layers = (
{
anchors = (
{
name = bottom;
pos = (272,0);
},
{
name = top;
pos = (278,800);
}
);
layerId = m01;
shapes = (
{
closed = 1;
nodes = (
(354,-11,o),
(367,40,o),
(394,40,cs),
(417,40,o),
(440,0,o),
(475,0,cs),
(503,0,o),
(514,11,o),
(514,46,cs),
(514,343,ls),
(514,377,o),
(502,389,o),
(469,389,cs),
(337,389,ls),
(303,389,o),
(291,376,o),
(291,343,cs),
(291,297,ls),
(291,264,o),
(303,251,o),
(337,251,cs),
(349,251,ls),
(366,251,o),
(371,246,o),
(371,229,cs),
(371,183,o),
(349,160,o),
(303,160,cs),
(257,160,o),
(234,194,o),
(234,240,cs),
(234,583,ls),
(234,617,o),
(246,640,o),
(280,640,cs),
(314,640,o),
(326,617,o),
(326,583,cs),
(326,531,ls),
(326,497,o),
(337,486,o),
(371,486,cs),
(469,486,ls),
(503,486,o),
(514,497,o),
(514,531,cs),
(514,572,ls),
(514,732,o),
(434,812,o),
(274,812,cs),
(114,812,o),
(29,732,o),
(29,572,cs),
(29,229,ls),
(29,69,o),
(114,-11,o),
(251,-11,cs)
);
}
);
width = 537;
},
{
anchors = (
{
name = bottom;
pos = (269,0);
},
{
name = top;
pos = (274,800);
}
);
layerId = "6ABCF30A-460E-4EED-802C-9E4699B7E7F6";
shapes = (
{
closed = 1;
nodes = (
(351,-11,o),
(365,40,o),
(392,40,cs),
(415,40,o),
(446,0,o),
(481,0,cs),
(509,0,o),
(520,11,o),
(520,46,cs),
(520,377,ls),
(520,411,o),
(507,423,o),
(474,423,cs),
(309,423,ls),
(294,423,o),
(286,415,o),
(286,400,cs),
(286,246,ls),
(286,231,o),
(294,223,o),
(309,223,cs),
(311,223,ls),
(326,223,o),
(334,210,o),
(334,194,cs),
(334,171,o),
(320,160,o),
(296,160,cs),
(266,160,o),
(251,171,o),
(251,194,cs),
(251,617,ls),
(251,632,o),
(257,640,o),
(269,640,cs),
(280,640,o),
(286,630,o),
(286,617,cs),
(286,503,ls),
(286,471,o),
(297,457,o),
(331,457,cs),
(474,457,ls),
(509,457,o),
(520,469,o),
(520,503,cs),
(520,583,ls),
(520,743,o),
(431,812,o),
(271,812,cs),
(111,812,o),
(17,743,o),
(17,583,cs),
(17,217,ls),
(17,57,o),
(111,-11,o),
(248,-11,cs)
);
}
);
width = 537;
},
{
anchors = (
{
name = top;
pos = (274,800);
}
);
associatedMasterId = m01;
layerId = "4CB17326-2D02-41A8-8B60-25F7F13B4B84";
name = "Sep 27, 22, 21:29";
shapes = (
{
closed = 1;
nodes = (
(431,-11,o),
(522,69,o),
(522,229,cs),
(522,280,ls),
(522,314,o),
(511,326,o),
(477,326,cs),
(362,326,ls),
(328,326,o),
(317,314,o),
(317,280,cs),
(317,217,ls),
(317,183,o),
(305,160,o),
(271,160,cs),
(237,160,o),
(225,183,o),
(225,217,cs),
(225,583,ls),
(225,617,o),
(237,640,o),
(271,640,cs),
(305,640,o),
(317,617,o),
(317,583,cs),
(317,531,ls),
(317,497,o),
(328,486,o),
(362,486,cs),
(477,486,ls),
(511,486,o),
(522,497,o),
(522,531,cs),
(522,572,ls),
(522,732,o),
(431,812,o),
(271,812,cs),
(111,812,o),
(19,732,o),
(19,572,cs),
(19,229,ls),
(19,69,o),
(111,-11,o),
(271,-11,cs)
);
}
);
width = 543;
},
{
anchors = (
{
name = bottom;
pos = (269,0);
},
{
name = top;
pos = (274,800);
}
);
layerId = m003;
shapes = (
{
closed = 1;
nodes = (
(431,-11,o),
(470,51,o),
(497,51,cs),
(520,51,o),
(543,0,o),
(578,0,cs),
(606,0,o),
(617,11,o),
(617,46,cs),
(617,343,ls),
(617,377,o),
(605,389,o),
(572,389,cs),
(400,389,ls),
(366,389,o),
(354,376,o),
(354,343,cs),
(354,297,ls),
(354,264,o),
(366,251,o),
(400,251,cs),
(423,251,ls),
(440,251,o),
(446,246,o),
(446,229,cs),
(446,183,o),
(423,160,o),
(331,160,cs),
(251,160,o),
(229,206,o),
(229,286,cs),
(229,514,ls),
(229,594,o),
(251,640,o),
(320,640,cs),
(400,640,o),
(423,594,o),
(423,514,cs),
(423,503,ls),
(423,469,o),
(434,457,o),
(469,457,cs),
(572,457,ls),
(606,457,o),
(617,469,o),
(617,503,cs),
(617,537,ls),
(617,720,o),
(537,812,o),
(320,812,cs),
(103,812,o),
(23,720,o),
(23,503,cs),
(23,297,ls),
(23,80,o),
(111,-11,o),
(305,-11,cs)
);
}
);
width = 640;
},
{
anchors = (
{
name = top;
pos = (274,800);
}
);
associatedMasterId = m003;
layerId = "4176F25A-2F9B-4465-AD17-7621CE0DF228";
name = "Sep 27, 22, 21:29";
shapes = (
{
closed = 1;
nodes = (
(431,-11,o),
(522,69,o),
(522,229,cs),
(522,280,ls),
(522,314,o),
(511,326,o),
(477,326,cs),
(362,326,ls),
(328,326,o),
(317,314,o),
(317,280,cs),
(317,217,ls),
(317,183,o),
(305,160,o),
(271,160,cs),
(237,160,o),
(225,183,o),
(225,217,cs),
(225,583,ls),
(225,617,o),
(237,640,o),
(271,640,cs),
(305,640,o),
(317,617,o),
(317,583,cs),
(317,531,ls),
(317,497,o),
(328,486,o),
(362,486,cs),
(477,486,ls),
(511,486,o),
(522,497,o),
(522,531,cs),
(522,572,ls),
(522,732,o),
(431,812,o),
(271,812,cs),
(111,812,o),
(19,732,o),
(19,572,cs),
(19,229,ls),
(19,69,o),
(111,-11,o),
(271,-11,cs)
);
}
);
width = 543;
},
{
anchors = (
{
name = bottom;
pos = (269,0);
},
{
name = top;
pos = (274,800);
}
);
layerId = m004;
shapes = (
{
closed = 1;
nodes = (
(397,-11,o),
(479,40,o),
(506,40,cs),
(529,40,o),
(554,0,o),
(590,0,cs),
(617,0,o),
(629,11,o),
(629,46,cs),
(629,349,ls),
(629,383,o),
(616,394,o),
(583,394,cs),
(362,394,ls),
(347,394,o),
(339,386,o),
(339,371,cs),
(339,240,ls),
(339,225,o),
(347,217,o),
(362,217,cs),
(370,217,ls),
(386,217,o),
(393,210,o),
(393,194,cs),
(393,171,o),
(379,160,o),
(350,160,cs),
(315,160,o),
(311,171,o),
(311,194,cs),
(311,617,ls),
(311,632,o),
(317,640,o),
(328,640,cs),
(339,640,o),
(345,630,o),
(345,617,cs),
(345,474,ls),
(345,442,o),
(357,429,o),
(391,429,cs),
(583,429,ls),
(617,429,o),
(629,440,o),
(629,474,cs),
(629,560,ls),
(629,754,o),
(522,812,o),
(317,812,cs),
(111,812,o),
(17,754,o),
(17,560,cs),
(17,217,ls),
(17,57,o),
(157,-11,o),
(294,-11,cs)
);
}
);
width = 640;
},
{
anchors = (
{
name = bottom;
pos = (272,0);
},
{
name = top;
pos = (278,800);
}
);
layerId = m005;
shapes = (
{
closed = 1;
nodes = (
(354,-11,o),
(367,40,o),
(394,40,cs),
(417,40,o),
(440,0,o),
(475,0,cs),
(503,0,o),
(514,11,o),
(514,46,cs),
(514,343,ls),
(514,377,o),
(502,389,o),
(469,389,cs),
(337,389,ls),
(303,389,o),
(291,376,o),
(291,343,cs),
(291,297,ls),
(291,264,o),
(303,251,o),
(337,251,cs),
(349,251,ls),
(366,251,o),
(371,246,o),
(371,229,cs),
(371,183,o),
(349,160,o),
(303,160,cs),
(257,160,o),
(234,194,o),
(234,240,cs),
(234,583,ls),
(234,617,o),
(246,640,o),
(280,640,cs),
(314,640,o),
(326,617,o),
(326,583,cs),
(326,531,ls),
(326,497,o),
(337,486,o),
(371,486,cs),
(469,486,ls),
(503,486,o),
(514,497,o),
(514,531,cs),
(514,572,ls),
(514,732,o),
(434,812,o),
(274,812,cs),
(114,812,o),
(29,732,o),
(29,572,cs),
(29,229,ls),
(29,69,o),
(114,-11,o),
(251,-11,cs)
);
}
);
width = 537;
},
{
anchors = (
{
name = top;
pos = (274,800);
}
);
associatedMasterId = m005;
layerId = "F45EB4A4-962A-46A2-A7C7-28D9A2E8CAAE";
name = "Sep 27, 22, 21:29";
shapes = (
{
closed = 1;
nodes = (
(431,-11,o),
(522,69,o),
(522,229,cs),
(522,280,ls),
(522,314,o),
(511,326,o),
(477,326,cs),
(362,326,ls),
(328,326,o),
(317,314,o),
(317,280,cs),
(317,217,ls),
(317,183,o),
(305,160,o),
(271,160,cs),
(237,160,o),
(225,183,o),
(225,217,cs),
(225,583,ls),
(225,617,o),
(237,640,o),
(271,640,cs),
(305,640,o),
(317,617,o),
(317,583,cs),
(317,531,ls),
(317,497,o),
(328,486,o),
(362,486,cs),
(477,486,ls),
(511,486,o),
(522,497,o),
(522,531,cs),
(522,572,ls),
(522,732,o),
(431,812,o),
(271,812,cs),
(111,812,o),
(19,732,o),
(19,572,cs),
(19,229,ls),
(19,69,o),
(111,-11,o),
(271,-11,cs)
);
}
);
width = 543;
}
);
unicode = 71;
},
{
color = 5;
glyphname = H;
kernLeft = H;
kernRight = H;
layers = (
{
layerId = m01;
shapes = (
{
closed = 1;
nodes = (
(194,0,ls),
(229,0,o),
(240,11,o),
(240,46,cs),
(240,320,ls),
(240,337,o),
(246,343,o),
(263,343,cs),
(309,343,ls),
(326,343,o),
(331,337,o),
(331,320,cs),
(331,46,ls),
(331,11,o),
(343,0,o),
(377,0,cs),
(491,0,ls),
(526,0,o),
(537,11,o),
(537,46,cs),
(537,754,ls),
(537,789,o),
(526,800,o),
(491,800,cs),
(377,800,ls),
(343,800,o),
(331,789,o),
(331,754,cs),
(331,537,ls),
(331,520,o),
(326,514,o),
(309,514,cs),
(263,514,ls),
(246,514,o),
(240,520,o),
(240,537,cs),
(240,754,ls),
(240,789,o),
(229,800,o),
(194,800,cs),
(80,800,ls),
(46,800,o),
(34,789,o),
(34,754,cs),
(34,46,ls),
(34,11,o),
(46,0,o),
(80,0,cs)
);
}
);
width = 572;
},
{
layerId = "6ABCF30A-460E-4EED-802C-9E4699B7E7F6";
shapes = (
{
closed = 1;
nodes = (
(223,0,ls),
(257,0,o),
(269,11,o),
(269,46,cs),
(269,297,ls),
(269,312,o),
(273,320,o),
(285,320,cs),
(287,320,ls),
(298,320,o),
(303,312,o),
(303,297,cs),
(303,46,ls),
(303,11,o),
(314,0,o),
(349,0,cs),
(509,0,ls),
(543,0,o),
(554,11,o),
(554,46,cs),
(554,754,ls),
(554,789,o),
(543,800,o),
(509,800,cs),
(349,800,ls),
(314,800,o),
(303,789,o),
(303,754,cs),
(303,537,ls),
(303,522,o),
(298,514,o),
(287,514,cs),
(285,514,ls),
(273,514,o),
(269,522,o),
(269,537,cs),
(269,754,ls),
(269,789,o),
(257,800,o),
(223,800,cs),
(63,800,ls),
(29,800,o),
(17,789,o),
(17,754,cs),
(17,46,ls),
(17,11,o),
(29,0,o),
(63,0,cs)
);
}
);
width = 572;
},
{
layerId = m003;
shapes = (
{
closed = 1;
nodes = (
(194,0,ls),
(229,0,o),
(240,11,o),
(240,46,cs),
(240,320,ls),
(240,337,o),
(246,343,o),
(263,343,cs),
(400,343,ls),
(417,343,o),
(423,337,o),
(423,320,cs),
(423,46,ls),
(423,11,o),
(434,0,o),
(469,0,cs),
(583,0,ls),
(617,0,o),
(629,11,o),
(629,46,cs),
(629,754,ls),
(629,789,o),
(617,800,o),
(583,800,cs),
(469,800,ls),
(434,800,o),
(423,789,o),
(423,754,cs),
(423,537,ls),
(423,520,o),
(417,514,o),
(400,514,cs),
(263,514,ls),
(246,514,o),
(240,520,o),
(240,537,cs),
(240,754,ls),
(240,789,o),
(229,800,o),
(194,800,cs),
(80,800,ls),
(46,800,o),
(34,789,o),
(34,754,cs),
(34,46,ls),
(34,11,o),
(46,0,o),
(80,0,cs)
);
}
);
width = 663;
},
{
layerId = m004;
shapes = (
{
closed = 1;
nodes = (
(269,0,ls),
(303,0,o),
(314,11,o),
(314,46,cs),
(314,297,ls),
(314,309,o),
(320,320,o),
(330,320,cs),
(333,320,ls),
(343,320,o),
(349,309,o),
(349,297,cs),
(349,46,ls),
(349,11,o),
(360,0,o),
(394,0,cs),
(600,0,ls),
(629,0,o),
(646,11,o),
(646,46,cs),
(646,754,ls),
(646,789,o),
(634,800,o),
(600,800,cs),
(394,800,ls),
(360,800,o),
(349,789,o),
(349,754,cs),
(349,537,ls),
(349,526,o),
(343,514,o),
(333,514,cs),
(330,514,ls),
(320,514,o),
(314,526,o),
(314,537,cs),
(314,754,ls),
(314,789,o),
(303,800,o),
(269,800,cs),
(63,800,ls),
(29,800,o),
(17,789,o),
(17,754,cs),
(17,46,ls),
(17,11,o),
(29,0,o),
(63,0,cs)
);
}
);
width = 663;
},
{
layerId = m005;
shapes = (
{
closed = 1;
nodes = (
(194,0,ls),
(229,0,o),
(240,11,o),
(240,46,cs),
(240,320,ls),
(240,337,o),
(246,343,o),
(263,343,cs),
(309,343,ls),
(326,343,o),
(331,337,o),
(331,320,cs),
(331,46,ls),
(331,11,o),
(343,0,o),
(377,0,cs),
(491,0,ls),
(526,0,o),
(537,11,o),
(537,46,cs),
(537,754,ls),
(537,789,o),
(526,800,o),
(491,800,cs),
(377,800,ls),
(343,800,o),
(331,789,o),
(331,754,cs),
(331,537,ls),
(331,520,o),
(326,514,o),
(309,514,cs),
(263,514,ls),
(246,514,o),
(240,520,o),
(240,537,cs),
(240,754,ls),
(240,789,o),
(229,800,o),
(194,800,cs),
(80,800,ls),
(46,800,o),
(34,789,o),
(34,754,cs),
(34,46,ls),
(34,11,o),
(46,0,o),
(80,0,cs)
);
}
);
width = 572;
}
);
unicode = 72;
},
{
color = 5;
glyphname = Hbar;
layers = (
{
layerId = m01;
shapes = (
{
closed = 1;
nodes = (
(217,0,ls),
(251,0,o),
(263,11,o),
(263,46,cs),
(263,320,ls),
(263,337,o),
(269,343,o),
(286,343,cs),
(331,343,ls),
(349,343,o),
(354,337,o),
(354,320,cs),
(354,46,ls),
(354,11,o),
(366,0,o),
(400,0,cs),
(514,0,ls),
(549,0,o),
(560,11,o),
(560,46,cs),
(560,572,l),
(583,572,ls),
(600,572,o),
(606,577,o),
(606,594,cs),
(606,694,ls),
(606,711,o),
(600,717,o),
(583,717,cs),
(560,717,l),
(560,754,ls),
(560,789,o),
(549,800,o),
(514,800,cs),
(400,800,ls),
(366,800,o),
(354,789,o),
(354,754,cs),
(354,717,l),
(263,717,l),
(263,754,ls),
(263,789,o),
(251,800,o),
(217,800,cs),
(103,800,ls),
(69,800,o),
(57,789,o),
(57,754,cs),
(57,717,l),
(34,717,ls),
(17,717,o),
(11,711,o),
(11,694,cs),
(11,594,ls),
(11,577,o),
(17,572,o),
(34,572,cs),
(57,572,l),
(57,46,ls),
(57,11,o),
(69,0,o),
(103,0,cs)
);
},
{
closed = 1;
nodes = (
(263,572,l),
(354,572,l),
(354,537,ls),
(354,520,o),
(349,514,o),
(331,514,cs),
(286,514,ls),
(269,514,o),
(263,520,o),
(263,537,cs)
);
}
);
width = 617;
},
{
layerId = "6ABCF30A-460E-4EED-802C-9E4699B7E7F6";
shapes = (
{
closed = 1;
nodes = (
(217,0,ls),
(251,0,o),
(263,11,o),
(263,46,cs),
(263,320,ls),
(263,337,o),
(269,343,o),
(286,343,cs),
(331,343,ls),
(349,343,o),
(354,337,o),
(354,320,cs),
(354,46,ls),
(354,11,o),
(366,0,o),
(400,0,cs),
(514,0,ls),
(549,0,o),
(560,11,o),
(560,46,cs),
(560,572,l),
(583,572,ls),
(600,572,o),
(606,577,o),
(606,594,cs),
(606,694,ls),
(606,711,o),
(600,717,o),
(583,717,cs),
(560,717,l),
(560,754,ls),
(560,789,o),
(549,800,o),
(514,800,cs),
(400,800,ls),
(366,800,o),
(354,789,o),
(354,754,cs),
(354,717,l),
(263,717,l),
(263,754,ls),
(263,789,o),
(251,800,o),
(217,800,cs),
(103,800,ls),
(69,800,o),
(57,789,o),
(57,754,cs),
(57,717,l),
(34,717,ls),
(17,717,o),
(11,711,o),
(11,694,cs),
(11,594,ls),
(11,577,o),
(17,572,o),
(34,572,cs),
(57,572,l),
(57,46,ls),
(57,11,o),
(69,0,o),
(103,0,cs)
);
},
{
closed = 1;
nodes = (
(263,572,l),
(354,572,l),
(354,537,ls),
(354,520,o),
(349,514,o),
(331,514,cs),
(286,514,ls),
(269,514,o),
(263,520,o),
(263,537,cs)
);
}
);
width = 617;
},
{
layerId = m003;
shapes = (
{
closed = 1;
nodes = (
(217,0,ls),
(251,0,o),
(263,11,o),
(263,46,cs),
(263,320,ls),
(263,337,o),
(269,343,o),
(286,343,cs),
(331,343,ls),
(349,343,o),
(354,337,o),
(354,320,cs),
(354,46,ls),
(354,11,o),
(366,0,o),
(400,0,cs),
(514,0,ls),
(549,0,o),
(560,11,o),
(560,46,cs),
(560,572,l),
(583,572,ls),
(600,572,o),
(606,577,o),
(606,594,cs),
(606,694,ls),
(606,711,o),
(600,717,o),
(583,717,cs),
(560,717,l),
(560,754,ls),
(560,789,o),
(549,800,o),
(514,800,cs),
(400,800,ls),
(366,800,o),
(354,789,o),
(354,754,cs),
(354,717,l),
(263,717,l),
(263,754,ls),
(263,789,o),
(251,800,o),
(217,800,cs),
(103,800,ls),
(69,800,o),
(57,789,o),
(57,754,cs),
(57,717,l),
(34,717,ls),
(17,717,o),
(11,711,o),
(11,694,cs),
(11,594,ls),
(11,577,o),
(17,572,o),
(34,572,cs),
(57,572,l),
(57,46,ls),
(57,11,o),
(69,0,o),
(103,0,cs)
);
},
{
closed = 1;
nodes = (
(263,572,l),
(354,572,l),
(354,537,ls),
(354,520,o),
(349,514,o),
(331,514,cs),
(286,514,ls),
(269,514,o),
(263,520,o),
(263,537,cs)
);
}
);
width = 617;
},
{
layerId = m004;
shapes = (
{
closed = 1;
nodes = (
(217,0,ls),
(251,0,o),
(263,11,o),
(263,46,cs),
(263,320,ls),
(263,337,o),
(269,343,o),
(286,343,cs),
(331,343,ls),
(349,343,o),
(354,337,o),
(354,320,cs),
(354,46,ls),
(354,11,o),
(366,0,o),
(400,0,cs),
(514,0,ls),
(549,0,o),
(560,11,o),
(560,46,cs),
(560,572,l),
(583,572,ls),
(600,572,o),
(606,577,o),
(606,594,cs),
(606,694,ls),
(606,711,o),
(600,717,o),
(583,717,cs),
(560,717,l),
(560,754,ls),
(560,789,o),
(549,800,o),
(514,800,cs),
(400,800,ls),
(366,800,o),
(354,789,o),
(354,754,cs),
(354,717,l),
(263,717,l),
(263,754,ls),
(263,789,o),
(251,800,o),
(217,800,cs),
(103,800,ls),
(69,800,o),
(57,789,o),
(57,754,cs),
(57,717,l),
(34,717,ls),
(17,717,o),
(11,711,o),
(11,694,cs),
(11,594,ls),
(11,577,o),
(17,572,o),
(34,572,cs),
(57,572,l),
(57,46,ls),
(57,11,o),
(69,0,o),
(103,0,cs)
);
},
{
closed = 1;
nodes = (
(263,572,l),
(354,572,l),
(354,537,ls),
(354,520,o),
(349,514,o),
(331,514,cs),
(286,514,ls),
(269,514,o),
(263,520,o),
(263,537,cs)
);
}
);
width = 617;
},
{
layerId = m005;
shapes = (
{
closed = 1;
nodes = (
(217,0,ls),
(251,0,o),
(263,11,o),
(263,46,cs),
(263,320,ls),
(263,337,o),
(269,343,o),
(286,343,cs),
(331,343,ls),
(349,343,o),
(354,337,o),
(354,320,cs),
(354,46,ls),
(354,11,o),
(366,0,o),
(400,0,cs),
(514,0,ls),
(549,0,o),
(560,11,o),
(560,46,cs),
(560,572,l),
(583,572,ls),
(600,572,o),
(606,577,o),
(606,594,cs),
(606,694,ls),
(606,711,o),
(600,717,o),
(583,717,cs),
(560,717,l),
(560,754,ls),
(560,789,o),
(549,800,o),
(514,800,cs),
(400,800,ls),
(366,800,o),
(354,789,o),
(354,754,cs),
(354,717,l),
(263,717,l),
(263,754,ls),
(263,789,o),
(251,800,o),
(217,800,cs),
(103,800,ls),
(69,800,o),
(57,789,o),
(57,754,cs),
(57,717,l),
(34,717,ls),
(17,717,o),
(11,711,o),
(11,694,cs),
(11,594,ls),
(11,577,o),
(17,572,o),
(34,572,cs),
(57,572,l),
(57,46,ls),
(57,11,o),
(69,0,o),
(103,0,cs)
);
},
{
closed = 1;
nodes = (
(263,572,l),
(354,572,l),
(354,537,ls),
(354,520,o),
(349,514,o),
(331,514,cs),
(286,514,ls),
(269,514,o),
(263,520,o),
(263,537,cs)
);
}
);
width = 617;
}
);
unicode = 294;
},
{
color = 5;
glyphname = I;
kernLeft = H;
kernRight = H;
layers = (
{
anchors = (
{
name = top;
pos = (137,800);
}
);
layerId = m01;
shapes = (
{
closed = 1;
nodes = (
(194,0,ls),
(229,0,o),
(240,11,o),
(240,46,cs),
(240,754,ls),
(240,789,o),
(229,800,o),
(194,800,cs),
(80,800,ls),
(46,800,o),
(34,789,o),
(34,754,cs),
(34,46,ls),
(34,11,o),
(46,0,o),
(80,0,cs)
);
}
);
width = 274;
},
{
anchors = (
{
name = top;
pos = (137,800);
}
);
layerId = "6ABCF30A-460E-4EED-802C-9E4699B7E7F6";
shapes = (
{
closed = 1;
nodes = (
(211,0,ls),
(246,0,o),
(257,11,o),
(257,46,cs),
(257,754,ls),
(257,789,o),
(246,800,o),
(211,800,cs),
(63,800,ls),
(29,800,o),
(17,789,o),
(17,754,cs),
(17,46,ls),
(17,11,o),
(29,0,o),
(63,0,cs)
);
}
);
width = 274;
},
{
anchors = (
{
name = top;
pos = (126,800);
}
);
layerId = m003;
shapes = (
{
closed = 1;
nodes = (
(194,0,ls),
(229,0,o),
(240,11,o),
(240,46,cs),
(240,754,ls),
(240,789,o),
(229,800,o),
(194,800,cs),
(80,800,ls),
(46,800,o),
(34,789,o),
(34,754,cs),
(34,46,ls),
(34,11,o),
(46,0,o),
(80,0,cs)
);
}
);
width = 274;
},
{
anchors = (
{
name = top;
pos = (166,800);
}
);
layerId = m004;
shapes = (
{
closed = 1;
nodes = (
(269,0,ls),
(303,0,o),
(314,11,o),
(314,46,cs),
(314,754,ls),
(314,789,o),
(303,800,o),
(269,800,cs),
(63,800,ls),
(29,800,o),
(17,789,o),
(17,754,cs),
(17,46,ls),
(17,11,o),
(29,0,o),
(63,0,cs)
);
}
);
width = 331;
},
{
anchors = (
{
name = top;
pos = (137,800);
}
);
layerId = m005;
shapes = (
{
closed = 1;
nodes = (
(160,0,ls),
(183,0,o),
(194,11,o),
(194,34,cs),
(194,766,ls),
(194,789,o),
(183,800,o),
(160,800,cs),
(114,800,ls),
(91,800,o),
(80,789,o),
(80,766,cs),
(80,34,ls),
(80,11,o),
(91,0,o),
(114,0,cs)
);
}
);
width = 274;
}
);
unicode = 73;
},
{
color = 5;
glyphname = Iogonek;
layers = (
{
layerId = m01;
shapes = (
{
closed = 1;
nodes = (
(69,0,o),
(73,-5,o),
(73,-11,cs),
(73,-34,o),
(21,-43,o),
(21,-105,cs),
(21,-168,o),
(82,-199,o),
(194,-199,cs),
(210,-199,o),
(217,-187,o),
(217,-176,cs),
(217,-118,ls),
(217,-104,o),
(210,-95,o),
(194,-95,cs),
(158,-95,o),
(126,-80,o),
(126,-57,cs),
(126,-33,o),
(146,0,o),
(194,0,cs),
(229,0,o),
(240,11,o),
(240,46,cs),
(240,754,ls),
(240,789,o),
(229,800,o),
(194,800,cs),
(57,800,ls),
(23,800,o),
(11,789,o),
(11,754,cs),
(11,46,ls),
(11,11,o),
(23,0,o),
(57,0,cs)
);
}
);
width = 251;
},
{
layerId = "6ABCF30A-460E-4EED-802C-9E4699B7E7F6";
shapes = (
{
closed = 1;
nodes = (
(69,0,o),
(73,-5,o),
(73,-11,cs),
(73,-34,o),
(21,-43,o),
(21,-105,cs),
(21,-168,o),
(82,-199,o),
(194,-199,cs),
(210,-199,o),
(217,-187,o),
(217,-176,cs),
(217,-118,ls),
(217,-104,o),
(210,-95,o),
(194,-95,cs),
(158,-95,o),
(126,-80,o),
(126,-57,cs),
(126,-33,o),
(146,0,o),
(194,0,cs),
(229,0,o),
(240,11,o),
(240,46,cs),
(240,754,ls),
(240,789,o),
(229,800,o),
(194,800,cs),
(57,800,ls),
(23,800,o),
(11,789,o),
(11,754,cs),
(11,46,ls),
(11,11,o),
(23,0,o),
(57,0,cs)
);
}
);
width = 251;
},
{
layerId = m003;
shapes = (
{
closed = 1;
nodes = (
(69,0,o),
(73,-5,o),
(73,-11,cs),
(73,-34,o),
(21,-43,o),
(21,-105,cs),
(21,-168,o),
(82,-199,o),
(194,-199,cs),
(210,-199,o),
(217,-187,o),
(217,-176,cs),
(217,-118,ls),
(217,-104,o),
(210,-95,o),
(194,-95,cs),
(158,-95,o),
(126,-80,o),
(126,-57,cs),
(126,-33,o),
(146,0,o),
(194,0,cs),
(229,0,o),
(240,11,o),
(240,46,cs),
(240,754,ls),
(240,789,o),
(229,800,o),
(194,800,cs),
(57,800,ls),
(23,800,o),
(11,789,o),
(11,754,cs),
(11,46,ls),
(11,11,o),
(23,0,o),
(57,0,cs)
);
}
);
width = 251;
},
{
layerId = m004;
shapes = (
{
closed = 1;
nodes = (
(69,0,o),
(73,-5,o),
(73,-11,cs),
(73,-34,o),
(21,-43,o),
(21,-105,cs),
(21,-168,o),
(82,-199,o),
(194,-199,cs),
(210,-199,o),
(217,-187,o),
(217,-176,cs),
(217,-118,ls),
(217,-104,o),
(210,-95,o),
(194,-95,cs),
(158,-95,o),
(126,-80,o),
(126,-57,cs),
(126,-33,o),
(146,0,o),
(194,0,cs),
(229,0,o),
(240,11,o),
(240,46,cs),
(240,754,ls),
(240,789,o),
(229,800,o),
(194,800,cs),
(57,800,ls),
(23,800,o),
(11,789,o),
(11,754,cs),
(11,46,ls),
(11,11,o),
(23,0,o),
(57,0,cs)
);
}
);
width = 251;
},
{
layerId = m005;
shapes = (
{
closed = 1;
nodes = (
(69,0,o),
(73,-5,o),
(73,-11,cs),
(73,-34,o),
(21,-43,o),
(21,-105,cs),
(21,-168,o),
(82,-199,o),
(194,-199,cs),
(210,-199,o),
(217,-187,o),
(217,-176,cs),
(217,-118,ls),
(217,-104,o),
(210,-95,o),
(194,-95,cs),
(158,-95,o),
(126,-80,o),
(126,-57,cs),
(126,-33,o),
(146,0,o),
(194,0,cs),
(229,0,o),
(240,11,o),
(240,46,cs),
(240,754,ls),
(240,789,o),
(229,800,o),
(194,800,cs),
(57,800,ls),
(23,800,o),
(11,789,o),
(11,754,cs),
(11,46,ls),
(11,11,o),
(23,0,o),
(57,0,cs)
);
}
);
width = 251;
}
);
unicode = 302;
},
{
color = 5;
glyphname = J;
kernLeft = J;
kernRight = J;
layers = (
{
layerId = m01;
shapes = (
{
closed = 1;
nodes = (
(161,0,ls),
(321,0,o),
(331,69,o),
(331,229,cs),
(331,754,ls),
(331,789,o),
(320,800,o),
(286,800,cs),
(171,800,ls),
(137,800,o),
(126,789,o),
(126,754,cs),
(126,194,ls),
(126,177,o),
(120,171,o),
(103,171,cs),
(57,171,ls),
(23,171,o),
(11,160,o),
(11,126,cs),
(11,46,ls),
(11,11,o),
(23,0,o),
(57,0,cs)
);
}
);
width = 349;
},
{
layerId = "6ABCF30A-460E-4EED-802C-9E4699B7E7F6";
shapes = (
{
closed = 1;
nodes = (
(167,0,ls),
(304,0,o),
(337,46,o),
(337,229,cs),
(337,754,ls),
(337,789,o),
(326,800,o),
(291,800,cs),
(137,800,ls),
(103,800,o),
(91,789,o),
(91,754,cs),
(91,263,ls),
(91,246,o),
(86,240,o),
(69,240,cs),
(57,240,ls),
(23,240,o),
(11,229,o),
(11,194,cs),
(11,46,ls),
(11,11,o),
(23,0,o),
(57,0,cs)
);
}
);
width = 349;
},
{
layerId = m004;
shapes = (
{
closed = 1;
nodes = (
(224,0,ls),
(384,0,o),
(394,69,o),
(394,229,cs),
(394,754,ls),
(394,789,o),
(383,800,o),
(349,800,cs),
(131,800,ls),
(97,800,o),
(86,789,o),
(86,754,cs),
(86,194,ls),
(86,177,o),
(80,171,o),
(63,171,cs),
(57,171,ls),
(23,171,o),
(11,160,o),
(11,126,cs),
(11,46,ls),
(11,11,o),
(23,0,o),
(57,0,cs)
);
}
);
width = 411;
},
{
layerId = m003;
shapes = (
{
closed = 1;
nodes = (
(161,0,ls),
(321,0,o),
(331,69,o),
(331,229,cs),
(331,754,ls),
(331,789,o),
(320,800,o),
(286,800,cs),
(171,800,ls),
(137,800,o),
(126,789,o),
(126,754,cs),
(126,194,ls),
(126,177,o),
(120,171,o),
(103,171,cs),
(57,171,ls),
(23,171,o),
(11,160,o),
(11,126,cs),
(11,46,ls),
(11,11,o),
(23,0,o),
(57,0,cs)
);
}
);
width = 349;
},
{
layerId = m005;
shapes = (
{
closed = 1;
nodes = (
(161,0,ls),
(321,0,o),
(331,69,o),
(331,229,cs),
(331,754,ls),
(331,789,o),
(320,800,o),
(286,800,cs),
(171,800,ls),
(137,800,o),
(126,789,o),
(126,754,cs),
(126,194,ls),
(126,177,o),
(120,171,o),
(103,171,cs),
(57,171,ls),
(23,171,o),
(11,160,o),
(11,126,cs),
(11,46,ls),
(11,11,o),
(23,0,o),
(57,0,cs)
);
}
);
width = 349;
}
);
unicode = 74;
},
{
color = 5;
glyphname = K;
kernLeft = H;
kernRight = K;
layers = (
{
anchors = (
{
name = bottom;
pos = (269,0);
}
);
layerId = m01;
shapes = (
{
closed = 1;
nodes = (
(183,0,ls),
(217,0,o),
(229,11,o),
(229,46,cs),
(229,331,ls),
(229,339,o),
(232,343,o),
(240,343,cs),
(246,343,o),
(253,339,o),
(257,320,cs),
(327,46,ls),
(336,11,o),
(350,0,o),
(384,0,cs),
(490,0,ls),
(525,0,o),
(536,11,o),
(536,46,cs),
(536,69,o),
(530,89,o),
(521,120,cs),
(439,395,ls),
(432,419,o),
(433,435,o),
(433,447,cs),
(433,458,o),
(439,477,o),
(450,510,cs),
(514,689,ls),
(521,708,o),
(537,750,o),
(537,766,cs),
(537,789,o),
(526,800,o),
(491,800,cs),
(384,800,ls),
(353,800,o),
(338,791,o),
(327,754,cs),
(257,537,ls),
(253,522,o),
(246,514,o),
(240,514,cs),
(232,514,o),
(229,518,o),
(229,526,cs),
(229,754,ls),
(229,789,o),
(217,800,o),
(183,800,cs),
(69,800,ls),
(34,800,o),
(23,789,o),
(23,754,cs),
(23,46,ls),
(23,11,o),
(34,-1,o),
(69,-1,cs)
);
}
);
width = 549;
},
{
anchors = (
{
name = bottom;
pos = (274,0);
}
);
layerId = "6ABCF30A-460E-4EED-802C-9E4699B7E7F6";
shapes = (
{
closed = 1;
nodes = (
(211,0,ls),
(246,0,o),
(257,11,o),
(257,46,cs),
(254,320,ls),
(254,335,o),
(259,343,o),
(271,343,cs),
(282,343,o),
(288,335,o),
(288,320,cs),
(291,46,ls),
(291,11,o),
(314,0,o),
(349,0,cs),
(496,0,ls),
(530,0,o),
(542,11,o),
(542,46,cs),
(542,69,o),
(538,89,o),
(533,120,cs),
(479,395,ls),
(474,419,o),
(473,435,o),
(473,447,cs),
(473,458,o),
(472,479,o),
(481,512,cs),
(529,689,ls),
(534,708,o),
(543,750,o),
(543,766,cs),
(543,789,o),
(531,800,o),
(497,800,cs),
(345,800,ls),
(314,800,o),
(288,791,o),
(288,754,cs),
(288,537,ls),
(288,522,o),
(282,514,o),
(271,514,cs),
(259,514,o),
(254,522,o),
(254,537,cs),
(254,754,ls),
(254,789,o),
(242,800,o),
(208,800,cs),
(63,800,ls),
(29,800,o),
(17,789,o),
(17,754,cs),
(17,46,ls),
(17,11,o),
(29,-1,o),
(63,-1,cs)
);
}
);
width = 549;
},
{
associatedMasterId = m01;
layerId = "28FAFFF5-5106-4221-A298-96EE7AA46BF8";
name = "Sep 28, 22, 14:25";
shapes = (
{
closed = 1;
nodes = (
(43,0,l),
(249,0,l),
(249,800,l),
(43,800,l)
);
},
{
closed = 1;
nodes = (
(114,259,l),
(249,217,l),
(567,800,l),
(361,800,l)
);
},
{
closed = 1;
nodes = (
(353,0,l),
(578,0,l),
(422,576,l),
(258,480,l)
);
}
);
width = 594;
},
{
associatedMasterId = m01;
layerId = "FF3A616A-420D-43A2-9FB8-15C05695BF8C";
name = "Sep 28, 22, 14:25";
shapes = (
{
closed = 1;
nodes = (
(183,0,ls),
(217,0,o),
(229,11,o),
(229,46,cs),
(229,331,ls),
(229,339,o),
(232,343,o),
(240,343,cs),
(246,343,o),
(251,339,o),
(257,320,cs),
(343,46,ls),
(353,11,o),
(366,0,o),
(400,0,cs),
(537,0,ls),
(572,0,o),
(583,11,o),
(583,46,cs),
(583,69,o),
(574,89,o),
(551,142,cs),
(440,403,ls),
(430,427,o),
(424,446,o),
(424,457,cs),
(424,469,o),
(429,482,o),
(445,513,cs),
(549,710,ls),
(559,728,o),
(572,750,o),
(572,766,cs),
(572,789,o),
(560,800,o),
(526,800,cs),
(417,800,ls),
(386,800,o),
(376,789,o),
(360,754,cs),
(257,537,ls),
(250,522,o),
(246,514,o),
(240,514,cs),
(232,514,o),
(229,518,o),
(229,526,cs),
(229,754,ls),
(229,789,o),
(217,800,o),
(183,800,cs),
(69,800,ls),
(34,800,o),
(23,789,o),
(23,754,cs),
(23,46,ls),
(23,11,o),
(34,-1,o),
(69,-1,cs)
);
}
);
width = 594;
},
{
associatedMasterId = m01;
layerId = "4DD78AB3-BE21-4D13-864C-D6B39781595E";
name = "Oct 1, 22, 11:17";
shapes = (
{
closed = 1;
nodes = (
(183,0,ls),
(217,0,o),
(229,11,o),
(229,46,cs),
(229,211,ls),
(229,231,o),
(231,237,o),
(233,242,cs),
(254,290,ls),
(257,298,o),
(264,305,o),
(270,305,cs),
(275,305,o),
(280,298,o),
(281,288,cs),
(320,46,ls),
(326,9,o),
(339,0,o),
(366,0,cs),
(485,0,ls),
(519,0,o),
(530,11,o),
(530,46,cs),
(530,57,o),
(523,86,o),
(511,141,cs),
(430,485,ls),
(424,509,o),
(417,528,o),
(417,539,cs),
(417,551,o),
(422,562,o),
(438,594,cs),
(497,710,ls),
(507,729,o),
(520,750,o),
(520,766,cs),
(520,789,o),
(509,800,o),
(474,800,cs),
(377,800,ls),
(346,800,o),
(337,792,o),
(320,754,cs),
(257,617,ls),
(250,602,o),
(246,594,o),
(240,594,cs),
(232,594,o),
(229,598,o),
(229,606,cs),
(229,754,ls),
(229,789,o),
(217,800,o),
(183,800,cs),
(69,800,ls),
(34,800,o),
(23,789,o),
(23,754,cs),
(23,46,ls),
(23,11,o),
(34,-1,o),
(69,-1,cs)
);
}
);
width = 542;
},
{
anchors = (
{
name = bottom;
pos = (269,0);
}
);
layerId = m003;
shapes = (
{
closed = 1;
nodes = (
(194,0,ls),
(229,0,o),
(240,11,o),
(240,46,cs),
(240,354,ls),
(240,362,o),
(243,366,o),
(251,366,cs),
(257,366,o),
(259,360,o),
(269,343,cs),
(430,46,ls),
(446,16,o),
(453,0,o),
(487,0,cs),
(593,0,ls),
(628,0,o),
(639,11,o),
(639,46,cs),
(639,69,o),
(642,94,o),
(624,120,cs),
(439,395,ls),
(425,416,o),
(422,435,o),
(422,447,cs),
(422,458,o),
(426,483,o),
(450,510,cs),
(617,689,ls),
(631,703,o),
(640,750,o),
(640,766,cs),
(640,789,o),
(629,800,o),
(594,800,cs),
(487,800,ls),
(456,800,o),
(451,788,o),
(430,754,cs),
(269,514,ls),
(261,503,o),
(257,491,o),
(251,491,cs),
(243,491,o),
(240,495,o),
(240,503,cs),
(240,754,ls),
(240,789,o),
(229,800,o),
(194,800,cs),
(80,800,ls),
(46,800,o),
(34,789,o),
(34,754,cs),
(34,46,ls),
(34,11,o),
(46,-1,o),
(80,-1,cs)
);
}
);
width = 663;
},
{
associatedMasterId = m003;
layerId = "CBBAD993-64ED-488E-A25D-EBCA4D91245C";
name = "Sep 28, 22, 14:25";
shapes = (
{
closed = 1;
nodes = (
(43,0,l),
(249,0,l),
(249,800,l),
(43,800,l)
);
},
{
closed = 1;
nodes = (
(114,259,l),
(249,217,l),
(567,800,l),
(361,800,l)
);
},
{
closed = 1;
nodes = (
(353,0,l),
(578,0,l),
(422,576,l),
(258,480,l)
);
}
);
width = 594;
},
{
associatedMasterId = m003;
layerId = "98A154BF-6AAA-40FF-8C00-771269A9A3B2";
name = "Sep 28, 22, 14:25";
shapes = (
{
closed = 1;
nodes = (
(183,0,ls),
(217,0,o),
(229,11,o),
(229,46,cs),
(229,331,ls),
(229,339,o),
(232,343,o),
(240,343,cs),
(246,343,o),
(251,339,o),
(257,320,cs),
(343,46,ls),
(353,11,o),
(366,0,o),
(400,0,cs),
(537,0,ls),
(572,0,o),
(583,11,o),
(583,46,cs),
(583,69,o),
(574,89,o),
(551,142,cs),
(440,403,ls),
(430,427,o),
(424,446,o),
(424,457,cs),
(424,469,o),
(429,482,o),
(445,513,cs),
(549,710,ls),
(559,728,o),
(572,750,o),
(572,766,cs),
(572,789,o),
(560,800,o),
(526,800,cs),
(417,800,ls),
(386,800,o),
(376,789,o),
(360,754,cs),
(257,537,ls),
(250,522,o),
(246,514,o),
(240,514,cs),
(232,514,o),
(229,518,o),
(229,526,cs),
(229,754,ls),
(229,789,o),
(217,800,o),
(183,800,cs),
(69,800,ls),
(34,800,o),
(23,789,o),
(23,754,cs),
(23,46,ls),
(23,11,o),
(34,-1,o),
(69,-1,cs)
);
}
);
width = 594;
},
{
associatedMasterId = m003;
layerId = "CFB88AB5-ECB1-4043-BA10-E8DBD5F44252";
name = "Oct 1, 22, 11:17";
shapes = (
{
closed = 1;
nodes = (
(183,0,ls),
(217,0,o),
(229,11,o),
(229,46,cs),
(229,211,ls),
(229,231,o),
(231,237,o),
(233,242,cs),
(254,290,ls),
(257,298,o),
(264,305,o),
(270,305,cs),
(275,305,o),
(280,298,o),
(281,288,cs),
(320,46,ls),
(326,9,o),
(339,0,o),
(366,0,cs),
(485,0,ls),
(519,0,o),
(530,11,o),
(530,46,cs),
(530,57,o),
(523,86,o),
(511,141,cs),
(430,485,ls),
(424,509,o),
(417,528,o),
(417,539,cs),
(417,551,o),
(422,562,o),
(438,594,cs),
(497,710,ls),
(507,729,o),
(520,750,o),
(520,766,cs),
(520,789,o),
(509,800,o),
(474,800,cs),
(377,800,ls),
(346,800,o),
(337,792,o),
(320,754,cs),
(257,617,ls),
(250,602,o),
(246,594,o),
(240,594,cs),
(232,594,o),
(229,598,o),
(229,606,cs),
(229,754,ls),
(229,789,o),
(217,800,o),
(183,800,cs),
(69,800,ls),
(34,800,o),
(23,789,o),
(23,754,cs),
(23,46,ls),
(23,11,o),
(34,-1,o),
(69,-1,cs)
);
}
);
width = 542;
},
{
anchors = (
{
name = bottom;
pos = (269,0);
}
);
layerId = m004;
shapes = (
{
closed = 1;
nodes = (
(269,0,ls),
(303,0,o),
(314,11,o),
(314,46,cs),
(311,320,ls),
(311,335,o),
(317,343,o),
(328,343,cs),
(339,343,o),
(345,335,o),
(345,320,cs),
(349,46,ls),
(349,11,o),
(371,0,o),
(406,0,cs),
(610,0,ls),
(645,0,o),
(656,11,o),
(656,46,cs),
(656,69,o),
(653,89,o),
(647,120,cs),
(593,395,ls),
(589,419,o),
(588,435,o),
(588,447,cs),
(588,458,o),
(586,479,o),
(596,512,cs),
(644,689,ls),
(648,708,o),
(657,750,o),
(657,766,cs),
(657,789,o),
(646,800,o),
(612,800,cs),
(402,800,ls),
(371,800,o),
(345,791,o),
(345,754,cs),
(345,537,ls),
(345,522,o),
(339,514,o),
(328,514,cs),
(317,514,o),
(311,522,o),
(311,537,cs),
(311,754,ls),
(311,789,o),
(299,800,o),
(265,800,cs),
(63,800,ls),
(29,800,o),
(17,789,o),
(17,754,cs),
(17,46,ls),
(17,11,o),
(29,-1,o),
(63,-1,cs)
);
}
);
width = 663;
},
{
anchors = (
{
name = bottom;
pos = (269,0);
}
);
layerId = m005;
shapes = (
{
closed = 1;
nodes = (
(183,0,ls),
(217,0,o),
(229,11,o),
(229,46,cs),
(229,331,ls),
(229,339,o),
(232,343,o),
(240,343,cs),
(246,343,o),
(253,339,o),
(257,320,cs),
(327,46,ls),
(336,11,o),
(350,0,o),
(384,0,cs),
(490,0,ls),
(525,0,o),
(536,11,o),
(536,46,cs),
(536,69,o),
(530,89,o),
(521,120,cs),
(439,395,ls),
(432,419,o),
(433,435,o),
(433,447,cs),
(433,458,o),
(439,477,o),
(450,510,cs),
(514,689,ls),
(521,708,o),
(537,750,o),
(537,766,cs),
(537,789,o),
(526,800,o),
(491,800,cs),
(384,800,ls),
(353,800,o),
(338,791,o),
(327,754,cs),
(257,537,ls),
(253,522,o),
(246,514,o),
(240,514,cs),
(232,514,o),
(229,518,o),
(229,526,cs),
(229,754,ls),
(229,789,o),
(217,800,o),
(183,800,cs),
(69,800,ls),
(34,800,o),
(23,789,o),
(23,754,cs),
(23,46,ls),
(23,11,o),
(34,-1,o),
(69,-1,cs)
);
}
);
width = 549;
},
{
associatedMasterId = m005;
layerId = "F1C62A36-F9C9-4115-9983-268B4F902838";
name = "Sep 28, 22, 14:25";
shapes = (
{
closed = 1;
nodes = (
(43,0,l),
(249,0,l),
(249,800,l),
(43,800,l)
);
},
{
closed = 1;
nodes = (
(114,259,l),
(249,217,l),
(567,800,l),
(361,800,l)
);
},
{
closed = 1;
nodes = (
(353,0,l),
(578,0,l),
(422,576,l),
(258,480,l)
);
}
);
width = 594;
},
{
associatedMasterId = m005;
layerId = "58D35BD2-DC29-44CD-A169-CE273F8F8D2E";
name = "Sep 28, 22, 14:25";
shapes = (
{
closed = 1;
nodes = (
(183,0,ls),
(217,0,o),
(229,11,o),
(229,46,cs),
(229,331,ls),
(229,339,o),
(232,343,o),
(240,343,cs),
(246,343,o),
(251,339,o),
(257,320,cs),
(343,46,ls),
(353,11,o),
(366,0,o),
(400,0,cs),
(537,0,ls),
(572,0,o),
(583,11,o),
(583,46,cs),
(583,69,o),
(574,89,o),
(551,142,cs),
(440,403,ls),
(430,427,o),
(424,446,o),
(424,457,cs),
(424,469,o),
(429,482,o),
(445,513,cs),
(549,710,ls),
(559,728,o),
(572,750,o),
(572,766,cs),
(572,789,o),
(560,800,o),
(526,800,cs),
(417,800,ls),
(386,800,o),
(376,789,o),
(360,754,cs),
(257,537,ls),
(250,522,o),
(246,514,o),
(240,514,cs),
(232,514,o),
(229,518,o),
(229,526,cs),
(229,754,ls),
(229,789,o),
(217,800,o),
(183,800,cs),
(69,800,ls),
(34,800,o),
(23,789,o),
(23,754,cs),
(23,46,ls),
(23,11,o),
(34,-1,o),
(69,-1,cs)
);
}
);
width = 594;
},
{
associatedMasterId = m005;
layerId = "01974653-ED83-40A1-9F01-3D0F2D9CB499";
name = "Oct 1, 22, 11:17";
shapes = (
{
closed = 1;
nodes = (
(183,0,ls),
(217,0,o),
(229,11,o),
(229,46,cs),
(229,211,ls),
(229,231,o),
(231,237,o),
(233,242,cs),
(254,290,ls),
(257,298,o),
(264,305,o),
(270,305,cs),
(275,305,o),
(280,298,o),
(281,288,cs),
(320,46,ls),
(326,9,o),
(339,0,o),
(366,0,cs),
(485,0,ls),
(519,0,o),
(530,11,o),
(530,46,cs),
(530,57,o),
(523,86,o),
(511,141,cs),
(430,485,ls),
(424,509,o),
(417,528,o),
(417,539,cs),
(417,551,o),
(422,562,o),
(438,594,cs),
(497,710,ls),
(507,729,o),
(520,750,o),
(520,766,cs),
(520,789,o),
(509,800,o),
(474,800,cs),
(377,800,ls),
(346,800,o),
(337,792,o),
(320,754,cs),
(257,617,ls),
(250,602,o),
(246,594,o),
(240,594,cs),
(232,594,o),
(229,598,o),
(229,606,cs),
(229,754,ls),
(229,789,o),
(217,800,o),
(183,800,cs),
(69,800,ls),
(34,800,o),
(23,789,o),
(23,754,cs),
(23,46,ls),
(23,11,o),
(34,-1,o),
(69,-1,cs)
);
}
);
width = 542;
}
);
unicode = 75;
},
{
color = 5;
glyphname = L;
kernLeft = H;
kernRight = L;
layers = (
{
anchors = (
{
name = bottom;
pos = (211,0);
},
{
name = topright;
pos = (223,800);
}
);
layerId = m01;
shapes = (
{
closed = 1;
nodes = (
(343,0,ls),
(377,0,o),
(389,11,o),
(389,46,cs),
(389,126,ls),
(389,160,o),
(377,171,o),
(343,171,cs),
(251,171,ls),
(234,171,o),
(229,177,o),
(229,194,cs),
(229,754,ls),
(229,789,o),
(217,800,o),
(183,800,cs),
(69,800,ls),
(34,800,o),
(23,789,o),
(23,754,cs),
(23,46,ls),
(23,11,o),
(34,0,o),
(69,0,cs)
);
}
);
width = 400;
},
{
anchors = (
{
name = bottom;
pos = (200,0);
},
{
name = topright;
pos = (223,800);
}
);
layerId = "6ABCF30A-460E-4EED-802C-9E4699B7E7F6";
shapes = (
{
closed = 1;
nodes = (
(343,0,ls),
(377,0,o),
(389,11,o),
(389,46,cs),
(389,194,ls),
(389,229,o),
(377,240,o),
(343,240,cs),
(274,240,ls),
(257,240,o),
(251,246,o),
(251,263,cs),
(251,754,ls),
(251,789,o),
(240,800,o),
(206,800,cs),
(57,800,ls),
(23,800,o),
(11,789,o),
(11,754,cs),
(11,46,ls),
(11,11,o),
(23,0,o),
(57,0,cs)
);
}
);
width = 400;
},
{
anchors = (
{
name = bottom;
pos = (211,0);
},
{
name = topright;
pos = (223,800);
}
);
layerId = m003;
shapes = (
{
closed = 1;
nodes = (
(446,0,ls),
(480,0,o),
(491,11,o),
(491,46,cs),
(491,126,ls),
(491,160,o),
(480,171,o),
(446,171,cs),
(263,171,ls),
(246,171,o),
(240,177,o),
(240,194,cs),
(240,754,ls),
(240,789,o),
(229,800,o),
(194,800,cs),
(80,800,ls),
(46,800,o),
(34,789,o),
(34,754,cs),
(34,46,ls),
(34,11,o),
(46,0,o),
(80,0,cs)
);
}
);
width = 514;
},
{
anchors = (
{
name = bottom;
pos = (200,0);
},
{
name = topright;
pos = (166,800);
}
);
layerId = m004;
shapes = (
{
closed = 1;
nodes = (
(469,0,ls),
(491,0,o),
(503,11,o),
(503,46,cs),
(503,217,ls),
(503,251,o),
(491,263,o),
(469,263,cs),
(354,263,ls),
(337,263,o),
(331,269,o),
(331,286,cs),
(331,754,ls),
(331,789,o),
(320,800,o),
(286,800,cs),
(69,800,ls),
(34,800,o),
(23,789,o),
(23,754,cs),
(23,46,ls),
(23,11,o),
(34,0,o),
(69,0,cs)
);
}
);
width = 514;
},
{
anchors = (
{
name = bottom;
pos = (211,0);
},
{
name = topright;
pos = (223,800);
}
);
layerId = m005;
shapes = (
{
closed = 1;
nodes = (
(354,0,ls),
(377,0,o),
(389,11,o),
(389,34,cs),
(389,69,ls),
(389,91,o),
(377,103,o),
(354,103,cs),
(160,103,ls),
(143,103,o),
(137,109,o),
(137,126,cs),
(137,766,ls),
(137,789,o),
(126,800,o),
(103,800,cs),
(57,800,ls),
(34,800,o),
(23,789,o),
(23,766,cs),
(23,34,ls),
(23,11,o),
(34,0,o),
(57,0,cs)
);
}
);
width = 400;
}
);
unicode = 76;
},
{
color = 5;
glyphname = Lslash;
layers = (
{
layerId = m01;
shapes = (
{
closed = 1;
nodes = (
(343,0,ls),
(377,0,o),
(389,11,o),
(389,46,cs),
(389,126,ls),
(389,160,o),
(377,171,o),
(343,171,cs),
(251,171,ls),
(234,171,o),
(229,177,o),
(229,194,cs),
(229,754,ls),
(229,789,o),
(217,800,o),
(183,800,cs),
(69,800,ls),
(34,800,o),
(23,789,o),
(23,754,cs),
(23,46,ls),
(23,11,o),
(34,0,o),
(69,0,cs)
);
},
{
closed = 1;
nodes = (
(-176,254,l),
(-71,254,l),
(386,701,l),
(281,701,l)
);
}
);
width = 400;
},
{
layerId = "6ABCF30A-460E-4EED-802C-9E4699B7E7F6";
shapes = (
{
closed = 1;
nodes = (
(343,0,ls),
(377,0,o),
(389,11,o),
(389,46,cs),
(389,126,ls),
(389,160,o),
(377,171,o),
(343,171,cs),
(251,171,ls),
(234,171,o),
(229,177,o),
(229,194,cs),
(229,754,ls),
(229,789,o),
(217,800,o),
(183,800,cs),
(69,800,ls),
(34,800,o),
(23,789,o),
(23,754,cs),
(23,46,ls),
(23,11,o),
(34,0,o),
(69,0,cs)
);
},
{
closed = 1;
nodes = (
(-176,254,l),
(-71,254,l),
(386,701,l),
(281,701,l)
);
}
);
width = 400;
},
{
layerId = m003;
shapes = (
{
closed = 1;
nodes = (
(343,0,ls),
(377,0,o),
(389,11,o),
(389,46,cs),
(389,126,ls),
(389,160,o),
(377,171,o),
(343,171,cs),
(251,171,ls),
(234,171,o),
(229,177,o),
(229,194,cs),
(229,754,ls),
(229,789,o),
(217,800,o),
(183,800,cs),
(69,800,ls),
(34,800,o),
(23,789,o),
(23,754,cs),
(23,46,ls),
(23,11,o),
(34,0,o),
(69,0,cs)
);
},
{
closed = 1;
nodes = (
(-176,254,l),
(-71,254,l),
(386,701,l),
(281,701,l)
);
}
);
width = 400;
},
{
layerId = m004;
shapes = (
{
closed = 1;
nodes = (
(343,0,ls),
(377,0,o),
(389,11,o),
(389,46,cs),
(389,126,ls),
(389,160,o),
(377,171,o),
(343,171,cs),
(251,171,ls),
(234,171,o),
(229,177,o),
(229,194,cs),
(229,754,ls),
(229,789,o),
(217,800,o),
(183,800,cs),
(69,800,ls),
(34,800,o),
(23,789,o),
(23,754,cs),
(23,46,ls),
(23,11,o),
(34,0,o),
(69,0,cs)
);
},
{
closed = 1;
nodes = (
(-176,254,l),
(-71,254,l),
(386,701,l),
(281,701,l)
);
}
);
width = 400;
},
{
layerId = m005;
shapes = (
{
closed = 1;
nodes = (
(343,0,ls),
(377,0,o),
(389,11,o),
(389,46,cs),
(389,126,ls),
(389,160,o),
(377,171,o),
(343,171,cs),
(251,171,ls),
(234,171,o),
(229,177,o),
(229,194,cs),
(229,754,ls),
(229,789,o),
(217,800,o),
(183,800,cs),
(69,800,ls),
(34,800,o),
(23,789,o),
(23,754,cs),
(23,46,ls),
(23,11,o),
(34,0,o),
(69,0,cs)
);
},
{
closed = 1;
nodes = (
(-176,254,l),
(-71,254,l),
(386,701,l),
(281,701,l)
);
}
);
width = 400;
}
);
unicode = 321;
},
{
color = 5;
glyphname = M;
kernLeft = H;
kernRight = H;
layers = (
{
layerId = m01;
shapes = (
{
closed = 1;
nodes = (
(171,0,ls),
(206,0,o),
(217,11,o),
(217,46,cs),
(217,422,ls),
(217,438,o),
(221,446,o),
(232,446,cs),
(243,446,o),
(248,438,o),
(251,406,cs),
(286,46,ls),
(288,21,o),
(291,0,o),
(314,0,cs),
(371,0,ls),
(394,0,o),
(398,23,o),
(400,46,cs),
(434,406,ls),
(438,438,o),
(442,446,o),
(453,446,cs),
(464,446,o),
(469,438,o),
(469,422,cs),
(469,46,ls),
(469,11,o),
(480,0,o),
(514,0,cs),
(617,0,ls),
(652,0,o),
(663,11,o),
(663,46,cs),
(663,754,ls),
(663,789,o),
(652,800,o),
(617,800,cs),
(451,800,ls),
(423,800,o),
(398,788,o),
(394,754,cs),
(359,387,ls),
(357,361,o),
(352,354,o),
(343,354,cs),
(334,354,o),
(329,361,o),
(327,387,cs),
(291,754,ls),
(288,786,o),
(263,800,o),
(234,800,cs),
(69,800,ls),
(34,800,o),
(23,789,o),
(23,754,cs),
(23,46,ls),
(23,11,o),
(34,0,o),
(69,0,cs)
);
}
);
width = 686;
},
{
associatedMasterId = m01;
layerId = "F688C055-9C97-4D66-8266-B110343FC198";
name = test;
shapes = (
{
closed = 1;
nodes = (
(354,513,o),
(341,545,qs),
(255,748,ls),
(238,788,o),
(197,812,o),
(161,812,qs),
(101,812,ls),
(81,812,o),
(54,800,o),
(40,786,o),
(33,757,o),
(32,738,o),
(32,720,qs),
(32,91,ls),
(32,73,o),
(33,55,o),
(40,25,o),
(54,11,o),
(81,0,o),
(101,0,qs),
(158,0,ls),
(177,0,o),
(205,11,o),
(218,25,o),
(225,55,o),
(226,73,o),
(226,91,qs),
(226,406,ls),
(226,417,o),
(232,417,qs),
(237,417,o),
(242,406,qs),
(257,376,o),
(287,313,o),
(303,278,o),
(320,242,o),
(330,225,o),
(343,210,o),
(355,206,o),
(371,206,o),
(384,210,o),
(397,225,o),
(407,242,o),
(423,278,o),
(440,313,o),
(470,375,o),
(485,406,qs),
(490,417,o),
(495,417,qs),
(501,417,o),
(501,406,qs),
(501,91,ls),
(501,73,o),
(502,55,o),
(509,25,o),
(522,11,o),
(550,0,o),
(569,0,qs),
(626,0,ls),
(646,0,o),
(673,11,o),
(687,25,o),
(694,55,o),
(695,73,o),
(695,91,qs),
(695,720,ls),
(695,738,o),
(694,757,o),
(687,786,o),
(673,800,o),
(646,812,o),
(626,812,qs),
(565,812,ls),
(529,812,o),
(489,789,o),
(472,748,qs),
(386,545,ls),
(373,513,o)
);
}
);
width = 732;
},
{
associatedMasterId = m01;
layerId = "FA050349-1282-4837-B37B-CF4E3E2D2328";
name = "Sep 11, 22, 15:10";
shapes = (
{
closed = 1;
nodes = (
(183,0,ls),
(217,0,o),
(229,11,o),
(229,46,cs),
(229,423,ls),
(229,439,o),
(231,446,o),
(240,446,cs),
(250,446,o),
(250,438,o),
(274,400,cs),
(323,321,o),
(331,297,o),
(354,297,cs),
(376,297,o),
(384,319,o),
(434,400,cs),
(458,438,o),
(459,446,o),
(469,446,cs),
(477,446,o),
(480,439,o),
(480,423,cs),
(480,46,ls),
(480,11,o),
(491,0,o),
(526,0,cs),
(640,0,ls),
(674,0,o),
(686,11,o),
(686,46,cs),
(686,754,ls),
(686,789,o),
(674,800,o),
(640,800,cs),
(514,800,ls),
(480,800,o),
(474,789,o),
(457,754,cs),
(382,606,ls),
(369,581,o),
(365,572,o),
(354,572,cs),
(345,572,o),
(339,584,o),
(328,606,cs),
(251,754,ls),
(234,788,o),
(229,800,o),
(194,800,cs),
(69,800,ls),
(34,800,o),
(23,789,o),
(23,754,cs),
(23,46,ls),
(23,11,o),
(34,0,o),
(69,0,cs)
);
}
);
width = 709;
},
{
associatedMasterId = m01;
layerId = "7FB62D56-ADA4-4438-90B2-D208D1EAB350";
name = "Sep 11, 22, 20:36";
shapes = (
{
closed = 1;
nodes = (
(171,0,ls),
(206,0,o),
(217,11,o),
(217,46,cs),
(217,343,ls),
(217,359,o),
(222,366,o),
(230,366,cs),
(240,366,o),
(240,353,o),
(264,309,cs),
(320,206,ls),
(333,182,o),
(337,171,o),
(354,171,cs),
(377,171,ls),
(394,171,o),
(399,182,o),
(411,206,cs),
(464,309,ls),
(486,352,o),
(491,366,o),
(501,366,cs),
(509,366,o),
(514,359,o),
(514,343,cs),
(514,46,ls),
(514,11,o),
(526,0,o),
(560,0,cs),
(663,0,ls),
(697,0,o),
(709,11,o),
(709,46,cs),
(709,754,ls),
(709,789,o),
(697,800,o),
(663,800,cs),
(549,800,ls),
(514,800,o),
(504,786,o),
(491,754,cs),
(393,513,ls),
(383,488,o),
(376,480,o),
(366,480,cs),
(357,480,o),
(350,489,o),
(339,513,cs),
(240,754,ls),
(227,785,o),
(217,800,o),
(183,800,cs),
(69,800,ls),
(34,800,o),
(23,789,o),
(23,754,cs),
(23,46,ls),
(23,11,o),
(34,0,o),
(69,0,cs)
);
}
);
width = 732;
},
{
associatedMasterId = m01;
layerId = "9D7C4878-F1B4-4F97-BAE7-DE9E3A2EB586";
name = "Sep 11, 22, 20:44";
shapes = (
{
closed = 1;
nodes = (
(171,0,ls),
(206,0,o),
(217,11,o),
(217,46,cs),
(217,343,ls),
(217,359,o),
(222,366,o),
(230,366,cs),
(240,366,o),
(240,358,o),
(253,309,cs),
(320,34,ls),
(327,8,o),
(337,0,o),
(354,0,cs),
(371,0,o),
(382,7,o),
(389,34,cs),
(453,309,ls),
(464,357,o),
(469,366,o),
(478,366,cs),
(486,366,o),
(491,359,o),
(491,343,cs),
(491,46,ls),
(491,11,o),
(503,0,o),
(537,0,cs),
(640,0,ls),
(674,0,o),
(686,11,o),
(686,46,cs),
(686,754,ls),
(686,789,o),
(674,800,o),
(640,800,cs),
(503,800,ls),
(469,800,o),
(454,786,o),
(446,754,cs),
(373,445,ls),
(367,419,o),
(361,411,o),
(354,411,cs),
(349,411,o),
(343,419,o),
(337,445,cs),
(263,754,ls),
(255,785,o),
(240,800,o),
(206,800,cs),
(69,800,ls),
(34,800,o),
(23,789,o),
(23,754,cs),
(23,46,ls),
(23,11,o),
(34,0,o),
(69,0,cs)
);
}
);
width = 709;
},
{
associatedMasterId = m01;
layerId = "D534A2C4-B49F-44A5-9A7C-B8990F7B1876";
name = "Sep 11, 22, 20:46";
shapes = (
{
closed = 1;
nodes = (
(171,0,ls),
(206,0,o),
(217,11,o),
(217,46,cs),
(217,309,ls),
(217,325,o),
(222,331,o),
(230,331,cs),
(240,331,o),
(239,323,o),
(253,274,cs),
(320,34,ls),
(327,8,o),
(337,0,o),
(354,0,cs),
(371,0,o),
(382,8,o),
(389,34,cs),
(453,274,ls),
(465,322,o),
(469,331,o),
(478,331,cs),
(486,331,o),
(491,325,o),
(491,309,cs),
(491,46,ls),
(491,11,o),
(503,0,o),
(537,0,cs),
(640,0,ls),
(674,0,o),
(686,11,o),
(686,46,cs),
(686,754,ls),
(686,789,o),
(674,800,o),
(640,800,cs),
(503,800,ls),
(469,800,o),
(453,786,o),
(446,754,cs),
(373,410,ls),
(367,385,o),
(361,377,o),
(354,377,cs),
(349,377,o),
(343,385,o),
(337,410,cs),
(263,754,ls),
(256,785,o),
(240,800,o),
(206,800,cs),
(69,800,ls),
(34,800,o),
(23,789,o),
(23,754,cs),
(23,46,ls),
(23,11,o),
(34,0,o),
(69,0,cs)
);
}
);
width = 709;
},
{
layerId = "6ABCF30A-460E-4EED-802C-9E4699B7E7F6";
shapes = (
{
closed = 1;
nodes = (
(206,0,ls),
(240,0,o),
(251,11,o),
(251,46,cs),
(251,422,ls),
(251,438,o),
(256,446,o),
(267,446,cs),
(278,446,o),
(286,438,o),
(286,406,cs),
(286,46,ls),
(286,21,o),
(291,0,o),
(314,0,cs),
(373,0,ls),
(395,0,o),
(401,23,o),
(401,46,cs),
(400,406,ls),
(400,438,o),
(409,446,o),
(418,446,cs),
(430,446,o),
(434,438,o),
(434,422,cs),
(434,46,ls),
(434,11,o),
(446,0,o),
(480,0,cs),
(623,0,ls),
(657,0,o),
(669,11,o),
(669,46,cs),
(669,754,ls),
(669,789,o),
(657,800,o),
(623,800,cs),
(416,800,ls),
(387,800,o),
(359,788,o),
(359,754,cs),
(359,387,ls),
(359,361,o),
(352,354,o),
(343,354,cs),
(334,354,o),
(327,361,o),
(327,387,cs),
(323,754,ls),
(323,786,o),
(295,800,o),
(266,800,cs),
(63,800,ls),
(29,800,o),
(17,789,o),
(17,754,cs),
(17,46,ls),
(17,11,o),
(29,0,o),
(63,0,cs)
);
}
);
width = 686;
},
{
associatedMasterId = m01;
layerId = "9DED20E6-D39C-4E3D-8E05-42571727FA9D";
name = "Sep 24, 22, 12:54";
shapes = (
{
closed = 1;
nodes = (
(183,0,ls),
(217,0,o),
(229,11,o),
(229,46,cs),
(229,377,ls),
(229,393,o),
(231,400,o),
(239,400,cs),
(249,400,o),
(250,391,o),
(269,343,cs),
(320,206,ls),
(330,179,o),
(337,171,o),
(354,171,cs),
(377,171,ls),
(394,171,o),
(401,179,o),
(411,206,cs),
(462,343,ls),
(479,390,o),
(482,400,o),
(491,400,cs),
(499,400,o),
(503,393,o),
(503,377,cs),
(503,46,ls),
(503,11,o),
(514,0,o),
(549,0,cs),
(663,0,ls),
(697,0,o),
(709,11,o),
(709,46,cs),
(709,754,ls),
(709,789,o),
(697,800,o),
(663,800,cs),
(537,800,ls),
(509,800,o),
(491,786,o),
(480,754,cs),
(393,502,ls),
(385,478,o),
(378,469,o),
(366,469,cs),
(354,469,o),
(347,478,o),
(339,502,cs),
(251,754,ls),
(240,786,o),
(223,800,o),
(194,800,cs),
(69,800,ls),
(34,800,o),
(23,789,o),
(23,754,cs),
(23,46,ls),
(23,11,o),
(34,0,o),
(69,0,cs)
);
}
);
width = 732;
},
{
layerId = m003;
shapes = (
{
closed = 1;
nodes = (
(183,0,ls),
(217,0,o),
(229,11,o),
(229,46,cs),
(229,422,ls),
(229,438,o),
(232,446,o),
(243,446,cs),
(255,446,o),
(256,438,o),
(263,406,cs),
(343,46,ls),
(349,21,o),
(349,0,o),
(371,0,cs),
(429,0,ls),
(451,0,o),
(453,23,o),
(457,46,cs),
(537,406,ls),
(544,438,o),
(545,446,o),
(555,446,cs),
(567,446,o),
(572,438,o),
(572,422,cs),
(572,46,ls),
(572,11,o),
(583,0,o),
(617,0,cs),
(720,0,ls),
(754,0,o),
(766,11,o),
(766,46,cs),
(766,754,ls),
(766,789,o),
(754,800,o),
(720,800,cs),
(554,800,ls),
(526,800,o),
(504,788,o),
(497,754,cs),
(416,387,ls),
(410,361,o),
(409,354,o),
(400,354,cs),
(391,354,o),
(390,361,o),
(384,387,cs),
(303,754,ls),
(296,786,o),
(274,800,o),
(246,800,cs),
(80,800,ls),
(46,800,o),
(34,789,o),
(34,754,cs),
(34,46,ls),
(34,11,o),
(46,0,o),
(80,0,cs)
);
}
);
width = 800;
},
{
associatedMasterId = m003;
layerId = "50A1166B-425F-4B40-8F68-E3C41177FBDB";
name = test;
shapes = (
{
closed = 1;
nodes = (
(354,513,o),
(341,545,qs),
(255,748,ls),
(238,788,o),
(197,812,o),
(161,812,qs),
(101,812,ls),
(81,812,o),
(54,800,o),
(40,786,o),
(33,757,o),
(32,738,o),
(32,720,qs),
(32,91,ls),
(32,73,o),
(33,55,o),
(40,25,o),
(54,11,o),
(81,0,o),
(101,0,qs),
(158,0,ls),
(177,0,o),
(205,11,o),
(218,25,o),
(225,55,o),
(226,73,o),
(226,91,qs),
(226,406,ls),
(226,417,o),
(232,417,qs),
(237,417,o),
(242,406,qs),
(257,376,o),
(287,313,o),
(303,278,o),
(320,242,o),
(330,225,o),
(343,210,o),
(355,206,o),
(371,206,o),
(384,210,o),
(397,225,o),
(407,242,o),
(423,278,o),
(440,313,o),
(470,375,o),
(485,406,qs),
(490,417,o),
(495,417,qs),
(501,417,o),
(501,406,qs),
(501,91,ls),
(501,73,o),
(502,55,o),
(509,25,o),
(522,11,o),
(550,0,o),
(569,0,qs),
(626,0,ls),
(646,0,o),
(673,11,o),
(687,25,o),
(694,55,o),
(695,73,o),
(695,91,qs),
(695,720,ls),
(695,738,o),
(694,757,o),
(687,786,o),
(673,800,o),
(646,812,o),
(626,812,qs),
(565,812,ls),
(529,812,o),
(489,789,o),
(472,748,qs),
(386,545,ls),
(373,513,o)
);
}
);
width = 732;
},
{
associatedMasterId = m003;
layerId = "820430A0-4843-4CA3-A664-471C701C5D30";
name = "Sep 11, 22, 15:10";
shapes = (
{
closed = 1;
nodes = (
(183,0,ls),
(217,0,o),
(229,11,o),
(229,46,cs),
(229,423,ls),
(229,439,o),
(231,446,o),
(240,446,cs),
(250,446,o),
(250,438,o),
(274,400,cs),
(323,321,o),
(331,297,o),
(354,297,cs),
(376,297,o),
(384,319,o),
(434,400,cs),
(458,438,o),
(459,446,o),
(469,446,cs),
(477,446,o),
(480,439,o),
(480,423,cs),
(480,46,ls),
(480,11,o),
(491,0,o),
(526,0,cs),
(640,0,ls),
(674,0,o),
(686,11,o),
(686,46,cs),
(686,754,ls),
(686,789,o),
(674,800,o),
(640,800,cs),
(514,800,ls),
(480,800,o),
(474,789,o),
(457,754,cs),
(382,606,ls),
(369,581,o),
(365,572,o),
(354,572,cs),
(345,572,o),
(339,584,o),
(328,606,cs),
(251,754,ls),
(234,788,o),
(229,800,o),
(194,800,cs),
(69,800,ls),
(34,800,o),
(23,789,o),
(23,754,cs),
(23,46,ls),
(23,11,o),
(34,0,o),
(69,0,cs)
);
}
);
width = 709;
},
{
associatedMasterId = m003;
layerId = "88AF5D7A-3484-4ADB-BC31-5683F1EE6681";
name = "Sep 11, 22, 20:36";
shapes = (
{
closed = 1;
nodes = (
(171,0,ls),
(206,0,o),
(217,11,o),
(217,46,cs),
(217,343,ls),
(217,359,o),
(222,366,o),
(230,366,cs),
(240,366,o),
(240,353,o),
(264,309,cs),
(320,206,ls),
(333,182,o),
(337,171,o),
(354,171,cs),
(377,171,ls),
(394,171,o),
(399,182,o),
(411,206,cs),
(464,309,ls),
(486,352,o),
(491,366,o),
(501,366,cs),
(509,366,o),
(514,359,o),
(514,343,cs),
(514,46,ls),
(514,11,o),
(526,0,o),
(560,0,cs),
(663,0,ls),
(697,0,o),
(709,11,o),
(709,46,cs),
(709,754,ls),
(709,789,o),
(697,800,o),
(663,800,cs),
(549,800,ls),
(514,800,o),
(504,786,o),
(491,754,cs),
(393,513,ls),
(383,488,o),
(376,480,o),
(366,480,cs),
(357,480,o),
(350,489,o),
(339,513,cs),
(240,754,ls),
(227,785,o),
(217,800,o),
(183,800,cs),
(69,800,ls),
(34,800,o),
(23,789,o),
(23,754,cs),
(23,46,ls),
(23,11,o),
(34,0,o),
(69,0,cs)
);
}
);
width = 732;
},
{
associatedMasterId = m003;
layerId = "F00F3CEE-9F9F-4A43-B40C-5DC446F70BEE";
name = "Sep 11, 22, 20:44";
shapes = (
{
closed = 1;
nodes = (
(171,0,ls),
(206,0,o),
(217,11,o),
(217,46,cs),
(217,343,ls),
(217,359,o),
(222,366,o),
(230,366,cs),
(240,366,o),
(240,358,o),
(253,309,cs),
(320,34,ls),
(327,8,o),
(337,0,o),
(354,0,cs),
(371,0,o),
(382,7,o),
(389,34,cs),
(453,309,ls),
(464,357,o),
(469,366,o),
(478,366,cs),
(486,366,o),
(491,359,o),
(491,343,cs),
(491,46,ls),
(491,11,o),
(503,0,o),
(537,0,cs),
(640,0,ls),
(674,0,o),
(686,11,o),
(686,46,cs),
(686,754,ls),
(686,789,o),
(674,800,o),
(640,800,cs),
(503,800,ls),
(469,800,o),
(454,786,o),
(446,754,cs),
(373,445,ls),
(367,419,o),
(361,411,o),
(354,411,cs),
(349,411,o),
(343,419,o),
(337,445,cs),
(263,754,ls),
(255,785,o),
(240,800,o),
(206,800,cs),
(69,800,ls),
(34,800,o),
(23,789,o),
(23,754,cs),
(23,46,ls),
(23,11,o),
(34,0,o),
(69,0,cs)
);
}
);
width = 709;
},
{
associatedMasterId = m003;
layerId = "6734D887-FDB7-4332-AB79-95E6EA32BA10";
name = "Sep 11, 22, 20:46";
shapes = (
{
closed = 1;
nodes = (
(171,0,ls),
(206,0,o),
(217,11,o),
(217,46,cs),
(217,309,ls),
(217,325,o),
(222,331,o),
(230,331,cs),
(240,331,o),
(239,323,o),
(253,274,cs),
(320,34,ls),
(327,8,o),
(337,0,o),
(354,0,cs),
(371,0,o),
(382,8,o),
(389,34,cs),
(453,274,ls),
(465,322,o),
(469,331,o),
(478,331,cs),
(486,331,o),
(491,325,o),
(491,309,cs),
(491,46,ls),
(491,11,o),
(503,0,o),
(537,0,cs),
(640,0,ls),
(674,0,o),
(686,11,o),
(686,46,cs),
(686,754,ls),
(686,789,o),
(674,800,o),
(640,800,cs),
(503,800,ls),
(469,800,o),
(453,786,o),
(446,754,cs),
(373,410,ls),
(367,385,o),
(361,377,o),
(354,377,cs),
(349,377,o),
(343,385,o),
(337,410,cs),
(263,754,ls),
(256,785,o),
(240,800,o),
(206,800,cs),
(69,800,ls),
(34,800,o),
(23,789,o),
(23,754,cs),
(23,46,ls),
(23,11,o),
(34,0,o),
(69,0,cs)
);
}
);
width = 709;
},
{
associatedMasterId = m003;
layerId = "587F0019-D5D4-4BD9-B085-A53F082DFFE1";
name = "Sep 24, 22, 12:54";
shapes = (
{
closed = 1;
nodes = (
(183,0,ls),
(217,0,o),
(229,11,o),
(229,46,cs),
(229,377,ls),
(229,393,o),
(231,400,o),
(239,400,cs),
(249,400,o),
(250,391,o),
(269,343,cs),
(320,206,ls),
(330,179,o),
(337,171,o),
(354,171,cs),
(377,171,ls),
(394,171,o),
(401,179,o),
(411,206,cs),
(462,343,ls),
(479,390,o),
(482,400,o),
(491,400,cs),
(499,400,o),
(503,393,o),
(503,377,cs),
(503,46,ls),
(503,11,o),
(514,0,o),
(549,0,cs),
(663,0,ls),
(697,0,o),
(709,11,o),
(709,46,cs),
(709,754,ls),
(709,789,o),
(697,800,o),
(663,800,cs),
(537,800,ls),
(509,800,o),
(491,786,o),
(480,754,cs),
(393,502,ls),
(385,478,o),
(378,469,o),
(366,469,cs),
(354,469,o),
(347,478,o),
(339,502,cs),
(251,754,ls),
(240,786,o),
(223,800,o),
(194,800,cs),
(69,800,ls),
(34,800,o),
(23,789,o),
(23,754,cs),
(23,46,ls),
(23,11,o),
(34,0,o),
(69,0,cs)
);
}
);
width = 732;
},
{
layerId = m004;
shapes = (
{
closed = 1;
nodes = (
(217,0,ls),
(251,0,o),
(263,11,o),
(263,46,cs),
(263,422,ls),
(263,438,o),
(267,446,o),
(279,446,cs),
(289,446,o),
(297,438,o),
(297,406,cs),
(297,46,ls),
(297,21,o),
(303,0,o),
(326,0,cs),
(475,0,ls),
(498,0,o),
(504,23,o),
(504,46,cs),
(503,406,ls),
(503,438,o),
(512,446,o),
(521,446,cs),
(533,446,o),
(537,438,o),
(537,422,cs),
(537,46,ls),
(537,11,o),
(549,0,o),
(583,0,cs),
(737,0,ls),
(772,0,o),
(783,11,o),
(783,46,cs),
(783,754,ls),
(783,789,o),
(772,800,o),
(737,800,cs),
(473,800,ls),
(445,800,o),
(416,788,o),
(416,754,cs),
(416,387,ls),
(416,361,o),
(409,354,o),
(400,354,cs),
(391,354,o),
(384,361,o),
(384,387,cs),
(381,754,ls),
(381,786,o),
(352,800,o),
(323,800,cs),
(63,800,ls),
(29,800,o),
(17,789,o),
(17,754,cs),
(17,46,ls),
(17,11,o),
(29,0,o),
(63,0,cs)
);
}
);
width = 800;
},
{
layerId = m005;
shapes = (
{
closed = 1;
nodes = (
(171,0,ls),
(206,0,o),
(217,11,o),
(217,46,cs),
(217,422,ls),
(217,438,o),
(221,446,o),
(232,446,cs),
(243,446,o),
(248,438,o),
(251,406,cs),
(286,46,ls),
(288,21,o),
(291,0,o),
(314,0,cs),
(371,0,ls),
(394,0,o),
(398,23,o),
(400,46,cs),
(434,406,ls),
(438,438,o),
(442,446,o),
(453,446,cs),
(464,446,o),
(469,438,o),
(469,422,cs),
(469,46,ls),
(469,11,o),
(480,0,o),
(514,0,cs),
(617,0,ls),
(652,0,o),
(663,11,o),
(663,46,cs),
(663,754,ls),
(663,789,o),
(652,800,o),
(617,800,cs),
(451,800,ls),
(423,800,o),
(398,788,o),
(394,754,cs),
(359,387,ls),
(357,361,o),
(352,354,o),
(343,354,cs),
(334,354,o),
(329,361,o),
(327,387,cs),
(291,754,ls),
(288,786,o),
(263,800,o),
(234,800,cs),
(69,800,ls),
(34,800,o),
(23,789,o),
(23,754,cs),
(23,46,ls),
(23,11,o),
(34,0,o),
(69,0,cs)
);
}
);
width = 686;
},
{
associatedMasterId = m005;
layerId = "2709B61C-9FBB-40E4-888B-9EA05E2D71A6";
name = test;
shapes = (
{
closed = 1;
nodes = (
(354,513,o),
(341,545,qs),
(255,748,ls),
(238,788,o),
(197,812,o),
(161,812,qs),
(101,812,ls),
(81,812,o),
(54,800,o),
(40,786,o),
(33,757,o),
(32,738,o),
(32,720,qs),
(32,91,ls),
(32,73,o),
(33,55,o),
(40,25,o),
(54,11,o),
(81,0,o),
(101,0,qs),
(158,0,ls),
(177,0,o),
(205,11,o),
(218,25,o),
(225,55,o),
(226,73,o),
(226,91,qs),
(226,406,ls),
(226,417,o),
(232,417,qs),
(237,417,o),
(242,406,qs),
(257,376,o),
(287,313,o),
(303,278,o),
(320,242,o),
(330,225,o),
(343,210,o),
(355,206,o),
(371,206,o),
(384,210,o),
(397,225,o),
(407,242,o),
(423,278,o),
(440,313,o),
(470,375,o),
(485,406,qs),
(490,417,o),
(495,417,qs),
(501,417,o),
(501,406,qs),
(501,91,ls),
(501,73,o),
(502,55,o),
(509,25,o),
(522,11,o),
(550,0,o),
(569,0,qs),
(626,0,ls),
(646,0,o),
(673,11,o),
(687,25,o),
(694,55,o),
(695,73,o),
(695,91,qs),
(695,720,ls),
(695,738,o),
(694,757,o),
(687,786,o),
(673,800,o),
(646,812,o),
(626,812,qs),
(565,812,ls),
(529,812,o),
(489,789,o),
(472,748,qs),
(386,545,ls),
(373,513,o)
);
}
);
width = 732;
},
{
associatedMasterId = m005;
layerId = "72218E7E-3EA2-4F04-AD6C-DB3882EFCBD3";
name = "Sep 11, 22, 15:10";
shapes = (
{
closed = 1;
nodes = (
(183,0,ls),
(217,0,o),
(229,11,o),
(229,46,cs),
(229,423,ls),
(229,439,o),
(231,446,o),
(240,446,cs),
(250,446,o),
(250,438,o),
(274,400,cs),
(323,321,o),
(331,297,o),
(354,297,cs),
(376,297,o),
(384,319,o),
(434,400,cs),
(458,438,o),
(459,446,o),
(469,446,cs),
(477,446,o),
(480,439,o),
(480,423,cs),
(480,46,ls),
(480,11,o),
(491,0,o),
(526,0,cs),
(640,0,ls),
(674,0,o),
(686,11,o),
(686,46,cs),
(686,754,ls),
(686,789,o),
(674,800,o),
(640,800,cs),
(514,800,ls),
(480,800,o),
(474,789,o),
(457,754,cs),
(382,606,ls),
(369,581,o),
(365,572,o),
(354,572,cs),
(345,572,o),
(339,584,o),
(328,606,cs),
(251,754,ls),
(234,788,o),
(229,800,o),
(194,800,cs),
(69,800,ls),
(34,800,o),
(23,789,o),
(23,754,cs),
(23,46,ls),
(23,11,o),
(34,0,o),
(69,0,cs)
);
}
);
width = 709;
},
{
associatedMasterId = m005;
layerId = "35AC98BC-443B-4C70-91E2-938780CDF010";
name = "Sep 11, 22, 20:36";
shapes = (
{
closed = 1;
nodes = (
(171,0,ls),
(206,0,o),
(217,11,o),
(217,46,cs),
(217,343,ls),
(217,359,o),
(222,366,o),
(230,366,cs),
(240,366,o),
(240,353,o),
(264,309,cs),
(320,206,ls),
(333,182,o),
(337,171,o),
(354,171,cs),
(377,171,ls),
(394,171,o),
(399,182,o),
(411,206,cs),
(464,309,ls),
(486,352,o),
(491,366,o),
(501,366,cs),
(509,366,o),
(514,359,o),
(514,343,cs),
(514,46,ls),
(514,11,o),
(526,0,o),
(560,0,cs),
(663,0,ls),
(697,0,o),
(709,11,o),
(709,46,cs),
(709,754,ls),
(709,789,o),
(697,800,o),
(663,800,cs),
(549,800,ls),
(514,800,o),
(504,786,o),
(491,754,cs),
(393,513,ls),
(383,488,o),
(376,480,o),
(366,480,cs),
(357,480,o),
(350,489,o),
(339,513,cs),
(240,754,ls),
(227,785,o),
(217,800,o),
(183,800,cs),
(69,800,ls),
(34,800,o),
(23,789,o),
(23,754,cs),
(23,46,ls),
(23,11,o),
(34,0,o),
(69,0,cs)
);
}
);
width = 732;
},
{
associatedMasterId = m005;
layerId = "38D7B0F4-9415-4FE9-8DC9-B40B7AD27AFF";
name = "Sep 11, 22, 20:44";
shapes = (
{
closed = 1;
nodes = (
(171,0,ls),
(206,0,o),
(217,11,o),
(217,46,cs),
(217,343,ls),
(217,359,o),
(222,366,o),
(230,366,cs),
(240,366,o),
(240,358,o),
(253,309,cs),
(320,34,ls),
(327,8,o),
(337,0,o),
(354,0,cs),
(371,0,o),
(382,7,o),
(389,34,cs),
(453,309,ls),
(464,357,o),
(469,366,o),
(478,366,cs),
(486,366,o),
(491,359,o),
(491,343,cs),
(491,46,ls),
(491,11,o),
(503,0,o),
(537,0,cs),
(640,0,ls),
(674,0,o),
(686,11,o),
(686,46,cs),
(686,754,ls),
(686,789,o),
(674,800,o),
(640,800,cs),
(503,800,ls),
(469,800,o),
(454,786,o),
(446,754,cs),
(373,445,ls),
(367,419,o),
(361,411,o),
(354,411,cs),
(349,411,o),
(343,419,o),
(337,445,cs),
(263,754,ls),
(255,785,o),
(240,800,o),
(206,800,cs),
(69,800,ls),
(34,800,o),
(23,789,o),
(23,754,cs),
(23,46,ls),
(23,11,o),
(34,0,o),
(69,0,cs)
);
}
);
width = 709;
},
{
associatedMasterId = m005;
layerId = "E6CB6CC4-3CA8-4A59-A86F-13C17DCBD546";
name = "Sep 11, 22, 20:46";
shapes = (
{
closed = 1;
nodes = (
(171,0,ls),
(206,0,o),
(217,11,o),
(217,46,cs),
(217,309,ls),
(217,325,o),
(222,331,o),
(230,331,cs),
(240,331,o),
(239,323,o),
(253,274,cs),
(320,34,ls),
(327,8,o),
(337,0,o),
(354,0,cs),
(371,0,o),
(382,8,o),
(389,34,cs),
(453,274,ls),
(465,322,o),
(469,331,o),
(478,331,cs),
(486,331,o),
(491,325,o),
(491,309,cs),
(491,46,ls),
(491,11,o),
(503,0,o),
(537,0,cs),
(640,0,ls),
(674,0,o),
(686,11,o),
(686,46,cs),
(686,754,ls),
(686,789,o),
(674,800,o),
(640,800,cs),
(503,800,ls),
(469,800,o),
(453,786,o),
(446,754,cs),
(373,410,ls),
(367,385,o),
(361,377,o),
(354,377,cs),
(349,377,o),
(343,385,o),
(337,410,cs),
(263,754,ls),
(256,785,o),
(240,800,o),
(206,800,cs),
(69,800,ls),
(34,800,o),
(23,789,o),
(23,754,cs),
(23,46,ls),
(23,11,o),
(34,0,o),
(69,0,cs)
);
}
);
width = 709;
},
{
associatedMasterId = m005;
layerId = "D238309B-A263-4413-9B13-11ECEF0F62B0";
name = "Sep 24, 22, 12:54";
shapes = (
{
closed = 1;
nodes = (
(183,0,ls),
(217,0,o),
(229,11,o),
(229,46,cs),
(229,377,ls),
(229,393,o),
(231,400,o),
(239,400,cs),
(249,400,o),
(250,391,o),
(269,343,cs),
(320,206,ls),
(330,179,o),
(337,171,o),
(354,171,cs),
(377,171,ls),
(394,171,o),
(401,179,o),
(411,206,cs),
(462,343,ls),
(479,390,o),
(482,400,o),
(491,400,cs),
(499,400,o),
(503,393,o),
(503,377,cs),
(503,46,ls),
(503,11,o),
(514,0,o),
(549,0,cs),
(663,0,ls),
(697,0,o),
(709,11,o),
(709,46,cs),
(709,754,ls),
(709,789,o),
(697,800,o),
(663,800,cs),
(537,800,ls),
(509,800,o),
(491,786,o),
(480,754,cs),
(393,502,ls),
(385,478,o),
(378,469,o),
(366,469,cs),
(354,469,o),
(347,478,o),
(339,502,cs),
(251,754,ls),
(240,786,o),
(223,800,o),
(194,800,cs),
(69,800,ls),
(34,800,o),
(23,789,o),
(23,754,cs),
(23,46,ls),
(23,11,o),
(34,0,o),
(69,0,cs)
);
}
);
width = 732;
}
);
unicode = 77;
},
{
color = 5;
glyphname = N;
kernLeft = H;
kernRight = H;
layers = (
{
anchors = (
{
name = bottom;
pos = (280,0);
},
{
name = top;
pos = (286,800);
}
);
layerId = m01;
shapes = (
{
closed = 1;
nodes = (
(183,0,ls),
(217,0,o),
(229,11,o),
(229,46,cs),
(229,423,ls),
(229,441,o),
(235,446,o),
(243,446,cs),
(250,446,o),
(256,439,o),
(258,423,cs),
(323,46,ls),
(330,7,o),
(347,0,o),
(375,0,cs),
(514,0,ls),
(549,0,o),
(560,11,o),
(560,46,cs),
(560,754,ls),
(560,789,o),
(549,800,o),
(514,800,cs),
(411,800,ls),
(377,800,o),
(366,789,o),
(366,754,cs),
(366,377,ls),
(366,361,o),
(361,354,o),
(351,354,cs),
(342,354,o),
(338,363,o),
(336,377,cs),
(271,754,ls),
(264,794,o),
(246,800,o),
(217,800,cs),
(80,800,ls),
(46,800,o),
(34,789,o),
(34,754,cs),
(34,46,ls),
(34,11,o),
(46,0,o),
(80,0,cs)
);
}
);
width = 594;
},
{
anchors = (
{
name = bottom;
pos = (255,0);
},
{
name = top;
pos = (309,800);
}
);
layerId = "6ABCF30A-460E-4EED-802C-9E4699B7E7F6";
shapes = (
{
closed = 1;
nodes = (
(200,0,ls),
(234,0,o),
(246,11,o),
(246,46,cs),
(246,423,ls),
(246,438,o),
(251,446,o),
(263,446,cs),
(274,446,o),
(280,438,o),
(280,423,cs),
(280,46,ls),
(280,11,o),
(291,0,o),
(326,0,cs),
(531,0,ls),
(566,0,o),
(577,11,o),
(577,46,cs),
(577,754,ls),
(577,789,o),
(566,800,o),
(531,800,cs),
(394,800,ls),
(360,800,o),
(349,789,o),
(349,754,cs),
(349,377,ls),
(349,362,o),
(343,354,o),
(331,354,cs),
(320,354,o),
(314,362,o),
(314,377,cs),
(314,754,ls),
(314,789,o),
(303,800,o),
(269,800,cs),
(63,800,ls),
(29,800,o),
(17,789,o),
(17,754,cs),
(17,46,ls),
(17,11,o),
(29,0,o),
(63,0,cs)
);
}
);
width = 594;
},
{
anchors = (
{
name = bottom;
pos = (331,0);
},
{
name = top;
pos = (343,800);
}
);
layerId = m003;
shapes = (
{
closed = 1;
nodes = (
(194,0,ls),
(229,0,o),
(240,11,o),
(240,46,cs),
(240,423,ls),
(240,441,o),
(247,446,o),
(255,446,cs),
(264,446,o),
(272,438,o),
(278,423,cs),
(415,46,ls),
(427,10,o),
(439,0,o),
(466,0,cs),
(606,0,ls),
(640,0,o),
(652,11,o),
(652,46,cs),
(652,754,ls),
(652,789,o),
(640,800,o),
(606,800,cs),
(491,800,ls),
(457,800,o),
(446,789,o),
(446,754,cs),
(446,377,ls),
(446,361,o),
(441,354,o),
(431,354,cs),
(419,354,o),
(413,365,o),
(408,377,cs),
(271,754,ls),
(257,792,o),
(246,800,o),
(217,800,cs),
(80,800,ls),
(46,800,o),
(34,789,o),
(34,754,cs),
(34,46,ls),
(34,11,o),
(46,0,o),
(80,0,cs)
);
}
);
width = 686;
},
{
anchors = (
{
name = bottom;
pos = (326,0);
},
{
name = top;
pos = (331,800);
}
);
layerId = m004;
shapes = (
{
closed = 1;
nodes = (
(240,0,ls),
(274,0,o),
(286,11,o),
(286,46,cs),
(286,423,ls),
(286,438,o),
(291,446,o),
(303,446,cs),
(314,446,o),
(320,438,o),
(320,423,cs),
(320,46,ls),
(320,11,o),
(331,0,o),
(366,0,cs),
(623,0,ls),
(657,0,o),
(669,11,o),
(669,46,cs),
(669,754,ls),
(669,789,o),
(657,800,o),
(623,800,cs),
(446,800,ls),
(411,800,o),
(400,789,o),
(400,754,cs),
(400,377,ls),
(400,362,o),
(394,354,o),
(383,354,cs),
(371,354,o),
(366,362,o),
(366,377,cs),
(366,754,ls),
(366,789,o),
(354,800,o),
(320,800,cs),
(63,800,ls),
(29,800,o),
(17,789,o),
(17,754,cs),
(17,46,ls),
(17,11,o),
(29,0,o),
(63,0,cs)
);
}
);
width = 686;
},
{
anchors = (
{
name = bottom;
pos = (280,0);
},
{
name = top;
pos = (286,800);
}
);
layerId = m005;
shapes = (
{
closed = 1;
nodes = (
(183,0,ls),
(217,0,o),
(229,11,o),
(229,46,cs),
(229,423,ls),
(229,441,o),
(235,446,o),
(243,446,cs),
(250,446,o),
(256,439,o),
(258,423,cs),
(323,46,ls),
(330,7,o),
(347,0,o),
(375,0,cs),
(514,0,ls),
(549,0,o),
(560,11,o),
(560,46,cs),
(560,754,ls),
(560,789,o),
(549,800,o),
(514,800,cs),
(411,800,ls),
(377,800,o),
(366,789,o),
(366,754,cs),
(366,377,ls),
(366,361,o),
(361,354,o),
(351,354,cs),
(342,354,o),
(338,363,o),
(336,377,cs),
(271,754,ls),
(264,794,o),
(246,800,o),
(217,800,cs),
(80,800,ls),
(46,800,o),
(34,789,o),
(34,754,cs),
(34,46,ls),
(34,11,o),
(46,0,o),
(80,0,cs)
);
}
);
width = 594;
}
);
unicode = 78;
},
{
color = 5;
glyphname = Eng;
layers = (
{
layerId = m01;
shapes = (
{
closed = 1;
nodes = (
(171,0,ls),
(206,0,o),
(217,11,o),
(217,46,cs),
(217,423,ls),
(217,441,o),
(224,446,o),
(232,446,cs),
(239,446,o),
(245,439,o),
(247,423,cs),
(267,297,o),
(309,195,o),
(309,46,cs),
(309,-63,ls),
(309,-80,o),
(303,-86,o),
(286,-86,cs),
(240,-86,ls),
(206,-86,o),
(194,-97,o),
(194,-131,cs),
(194,-211,ls),
(194,-246,o),
(206,-257,o),
(240,-257,cs),
(375,-257,ls),
(535,-257,o),
(545,-189,o),
(545,-29,cs),
(545,754,ls),
(545,789,o),
(534,800,o),
(499,800,cs),
(397,800,ls),
(362,800,o),
(351,789,o),
(351,754,cs),
(351,377,ls),
(351,361,o),
(346,354,o),
(336,354,cs),
(327,354,o),
(323,363,o),
(321,377,cs),
(259,754,ls),
(253,794,o),
(234,800,o),
(206,800,cs),
(69,800,ls),
(34,800,o),
(23,789,o),
(23,754,cs),
(23,46,ls),
(23,11,o),
(34,0,o),
(69,0,cs)
);
}
);
width = 568;
},
{
layerId = "6ABCF30A-460E-4EED-802C-9E4699B7E7F6";
shapes = (
{
closed = 1;
nodes = (
(171,0,ls),
(206,0,o),
(217,11,o),
(217,46,cs),
(217,423,ls),
(217,441,o),
(224,446,o),
(232,446,cs),
(239,446,o),
(245,439,o),
(247,423,cs),
(267,297,o),
(309,195,o),
(309,46,cs),
(309,-63,ls),
(309,-80,o),
(303,-86,o),
(286,-86,cs),
(240,-86,ls),
(206,-86,o),
(194,-97,o),
(194,-131,cs),
(194,-211,ls),
(194,-246,o),
(206,-257,o),
(240,-257,cs),
(375,-257,ls),
(535,-257,o),
(545,-189,o),
(545,-29,cs),
(545,754,ls),
(545,789,o),
(534,800,o),
(499,800,cs),
(397,800,ls),
(362,800,o),
(351,789,o),
(351,754,cs),
(351,377,ls),
(351,361,o),
(346,354,o),
(336,354,cs),
(327,354,o),
(323,363,o),
(321,377,cs),
(259,754,ls),
(253,794,o),
(234,800,o),
(206,800,cs),
(69,800,ls),
(34,800,o),
(23,789,o),
(23,754,cs),
(23,46,ls),
(23,11,o),
(34,0,o),
(69,0,cs)
);
}
);
width = 568;
},
{
layerId = m003;
shapes = (
{
closed = 1;
nodes = (
(171,0,ls),
(206,0,o),
(217,11,o),
(217,46,cs),
(217,423,ls),
(217,441,o),
(224,446,o),
(232,446,cs),
(239,446,o),
(245,439,o),
(247,423,cs),
(267,297,o),
(309,195,o),
(309,46,cs),
(309,-63,ls),
(309,-80,o),
(303,-86,o),
(286,-86,cs),
(240,-86,ls),
(206,-86,o),
(194,-97,o),
(194,-131,cs),
(194,-211,ls),
(194,-246,o),
(206,-257,o),
(240,-257,cs),
(375,-257,ls),
(535,-257,o),
(545,-189,o),
(545,-29,cs),
(545,754,ls),
(545,789,o),
(534,800,o),
(499,800,cs),
(397,800,ls),
(362,800,o),
(351,789,o),
(351,754,cs),
(351,377,ls),
(351,361,o),
(346,354,o),
(336,354,cs),
(327,354,o),
(323,363,o),
(321,377,cs),
(259,754,ls),
(253,794,o),
(234,800,o),
(206,800,cs),
(69,800,ls),
(34,800,o),
(23,789,o),
(23,754,cs),
(23,46,ls),
(23,11,o),
(34,0,o),
(69,0,cs)
);
}
);
width = 568;
},
{
layerId = m004;
shapes = (
{
closed = 1;
nodes = (
(171,0,ls),
(206,0,o),
(217,11,o),
(217,46,cs),
(217,423,ls),
(217,441,o),
(224,446,o),
(232,446,cs),
(239,446,o),
(245,439,o),
(247,423,cs),
(267,297,o),
(309,195,o),
(309,46,cs),
(309,-63,ls),
(309,-80,o),
(303,-86,o),
(286,-86,cs),
(240,-86,ls),
(206,-86,o),
(194,-97,o),
(194,-131,cs),
(194,-211,ls),
(194,-246,o),
(206,-257,o),
(240,-257,cs),
(375,-257,ls),
(535,-257,o),
(545,-189,o),
(545,-29,cs),
(545,754,ls),
(545,789,o),
(534,800,o),
(499,800,cs),
(397,800,ls),
(362,800,o),
(351,789,o),
(351,754,cs),
(351,377,ls),
(351,361,o),
(346,354,o),
(336,354,cs),
(327,354,o),
(323,363,o),
(321,377,cs),
(259,754,ls),
(253,794,o),
(234,800,o),
(206,800,cs),
(69,800,ls),
(34,800,o),
(23,789,o),
(23,754,cs),
(23,46,ls),
(23,11,o),
(34,0,o),
(69,0,cs)
);
}
);
width = 568;
},
{
layerId = m005;
shapes = (
{
closed = 1;
nodes = (
(171,0,ls),
(206,0,o),
(217,11,o),
(217,46,cs),
(217,423,ls),
(217,441,o),
(224,446,o),
(232,446,cs),
(239,446,o),
(245,439,o),
(247,423,cs),
(267,297,o),
(309,195,o),
(309,46,cs),
(309,-63,ls),
(309,-80,o),
(303,-86,o),
(286,-86,cs),
(240,-86,ls),
(206,-86,o),
(194,-97,o),
(194,-131,cs),
(194,-211,ls),
(194,-246,o),
(206,-257,o),
(240,-257,cs),
(375,-257,ls),
(535,-257,o),
(545,-189,o),
(545,-29,cs),
(545,754,ls),
(545,789,o),
(534,800,o),
(499,800,cs),
(397,800,ls),
(362,800,o),
(351,789,o),
(351,754,cs),
(351,377,ls),
(351,361,o),
(346,354,o),
(336,354,cs),
(327,354,o),
(323,363,o),
(321,377,cs),
(259,754,ls),
(253,794,o),
(234,800,o),
(206,800,cs),
(69,800,ls),
(34,800,o),
(23,789,o),
(23,754,cs),
(23,46,ls),
(23,11,o),
(34,0,o),
(69,0,cs)
);
}
);
width = 568;
}
);
unicode = 330;
},
{
color = 5;
glyphname = O;
kernLeft = O;
kernRight = O;
layers = (
{
anchors = (
{
name = top;
pos = (280,800);
}
);
layerId = m01;
shapes = (
{
closed = 1;
nodes = (
(440,-11,o),
(531,69,o),
(531,229,cs),
(531,572,ls),
(531,732,o),
(440,812,o),
(280,812,cs),
(120,812,o),
(29,732,o),
(29,572,cs),
(29,229,ls),
(29,69,o),
(120,-11,o),
(280,-11,cs)
);
},
{
closed = 1;
nodes = (
(246,160,o),
(234,183,o),
(234,217,cs),
(234,583,ls),
(234,617,o),
(246,640,o),
(280,640,cs),
(314,640,o),
(326,617,o),
(326,583,cs),
(326,217,ls),
(326,183,o),
(314,160,o),
(280,160,cs)
);
}
);
width = 560;
},
{
anchors = (
{
name = top;
pos = (274,800);
}
);
layerId = "6ABCF30A-460E-4EED-802C-9E4699B7E7F6";
shapes = (
{
closed = 1;
nodes = (
(440,-11,o),
(543,57,o),
(543,217,cs),
(543,583,ls),
(543,743,o),
(440,812,o),
(280,812,cs),
(120,812,o),
(17,743,o),
(17,583,cs),
(17,217,ls),
(17,57,o),
(120,-11,o),
(280,-11,cs)
);
},
{
closed = 1;
nodes = (
(269,160,o),
(263,171,o),
(263,183,cs),
(263,617,ls),
(263,629,o),
(269,640,o),
(280,640,cs),
(291,640,o),
(297,629,o),
(297,617,cs),
(297,183,ls),
(297,171,o),
(291,160,o),
(280,160,cs)
);
}
);
width = 560;
},
{
anchors = (
{
name = top;
pos = (331,800);
}
);
layerId = m003;
shapes = (
{
closed = 1;
nodes = (
(537,-11,o),
(640,80,o),
(640,297,cs),
(640,503,ls),
(640,720,o),
(537,812,o),
(331,812,cs),
(126,812,o),
(23,720,o),
(23,503,cs),
(23,297,ls),
(23,80,o),
(126,-11,o),
(331,-11,cs)
);
},
{
closed = 1;
nodes = (
(263,160,o),
(229,206,o),
(229,286,cs),
(229,514,ls),
(229,594,o),
(263,640,o),
(331,640,cs),
(400,640,o),
(434,594,o),
(434,514,cs),
(434,286,ls),
(434,206,o),
(400,160,o),
(331,160,cs)
);
}
);
width = 663;
},
{
anchors = (
{
name = top;
pos = (328,800);
}
);
layerId = m004;
shapes = (
{
closed = 1;
nodes = (
(537,-11,o),
(652,34,o),
(652,240,cs),
(652,560,ls),
(652,766,o),
(537,812,o),
(331,812,cs),
(126,812,o),
(11,766,o),
(11,560,cs),
(11,240,ls),
(11,34,o),
(126,-11,o),
(331,-11,cs)
);
},
{
closed = 1;
nodes = (
(320,160,o),
(314,168,o),
(314,183,cs),
(314,617,ls),
(314,632,o),
(320,640,o),
(331,640,cs),
(343,640,o),
(349,632,o),
(349,617,cs),
(349,183,ls),
(349,168,o),
(343,160,o),
(331,160,cs)
);
}
);
width = 663;
},
{
anchors = (
{
name = top;
pos = (280,800);
}
);
layerId = m005;
shapes = (
{
closed = 1;
nodes = (
(440,-11,o),
(531,69,o),
(531,229,cs),
(531,572,ls),
(531,732,o),
(440,812,o),
(280,812,cs),
(120,812,o),
(29,732,o),
(29,572,cs),
(29,229,ls),
(29,69,o),
(120,-11,o),
(280,-11,cs)
);
},
{
closed = 1;
nodes = (
(246,160,o),
(234,183,o),
(234,217,cs),
(234,583,ls),
(234,617,o),
(246,640,o),
(280,640,cs),
(314,640,o),
(326,617,o),
(326,583,cs),
(326,217,ls),
(326,183,o),
(314,160,o),
(280,160,cs)
);
}
);
width = 560;
}
);
unicode = 79;
},
{
color = 5;
glyphname = Oslash;
layers = (
{
layerId = m01;
shapes = (
{
closed = 1;
nodes = (
(431,-11,o),
(522,80,o),
(522,229,cs),
(522,572,ls),
(522,720,o),
(431,812,o),
(271,812,cs),
(111,812,o),
(19,720,o),
(19,572,cs),
(19,229,ls),
(19,80,o),
(111,-11,o),
(271,-11,cs)
);
},
{
closed = 1;
nodes = (
(237,160,o),
(225,183,o),
(225,217,cs),
(225,583,ls),
(225,617,o),
(237,640,o),
(271,640,cs),
(305,640,o),
(317,617,o),
(317,583,cs),
(317,217,ls),
(317,183,o),
(305,160,o),
(271,160,cs)
);
},
{
closed = 1;
nodes = (
(74,0,l),
(519,846,l),
(467,846,l),
(23,0,l)
);
}
);
width = 542;
},
{
layerId = "6ABCF30A-460E-4EED-802C-9E4699B7E7F6";
shapes = (
{
closed = 1;
nodes = (
(431,-11,o),
(522,80,o),
(522,229,cs),
(522,572,ls),
(522,720,o),
(431,812,o),
(271,812,cs),
(111,812,o),
(19,720,o),
(19,572,cs),
(19,229,ls),
(19,80,o),
(111,-11,o),
(271,-11,cs)
);
},
{
closed = 1;
nodes = (
(237,160,o),
(225,183,o),
(225,217,cs),
(225,583,ls),
(225,617,o),
(237,640,o),
(271,640,cs),
(305,640,o),
(317,617,o),
(317,583,cs),
(317,217,ls),
(317,183,o),
(305,160,o),
(271,160,cs)
);
},
{
closed = 1;
nodes = (
(74,0,l),
(519,846,l),
(467,846,l),
(23,0,l)
);
}
);
width = 542;
},
{
layerId = m003;
shapes = (
{
closed = 1;
nodes = (
(431,-11,o),
(522,80,o),
(522,229,cs),
(522,572,ls),
(522,720,o),
(431,812,o),
(271,812,cs),
(111,812,o),
(19,720,o),
(19,572,cs),
(19,229,ls),
(19,80,o),
(111,-11,o),
(271,-11,cs)
);
},
{
closed = 1;
nodes = (
(237,160,o),
(225,183,o),
(225,217,cs),
(225,583,ls),
(225,617,o),
(237,640,o),
(271,640,cs),
(305,640,o),
(317,617,o),
(317,583,cs),
(317,217,ls),
(317,183,o),
(305,160,o),
(271,160,cs)
);
},
{
closed = 1;
nodes = (
(74,0,l),
(519,846,l),
(467,846,l),
(23,0,l)
);
}
);
width = 542;
},
{
layerId = m004;
shapes = (
{
closed = 1;
nodes = (
(431,-11,o),
(522,80,o),
(522,229,cs),
(522,572,ls),
(522,720,o),
(431,812,o),
(271,812,cs),
(111,812,o),
(19,720,o),
(19,572,cs),
(19,229,ls),
(19,80,o),
(111,-11,o),
(271,-11,cs)
);
},
{
closed = 1;
nodes = (
(237,160,o),
(225,183,o),
(225,217,cs),
(225,583,ls),
(225,617,o),
(237,640,o),
(271,640,cs),
(305,640,o),
(317,617,o),
(317,583,cs),
(317,217,ls),
(317,183,o),
(305,160,o),
(271,160,cs)
);
},
{
closed = 1;
nodes = (
(74,0,l),
(519,846,l),
(467,846,l),
(23,0,l)
);
}
);
width = 542;
},
{
layerId = m005;
shapes = (
{
closed = 1;
nodes = (
(431,-11,o),
(522,80,o),
(522,229,cs),
(522,572,ls),
(522,720,o),
(431,812,o),
(271,812,cs),
(111,812,o),
(19,720,o),
(19,572,cs),
(19,229,ls),
(19,80,o),
(111,-11,o),
(271,-11,cs)
);
},
{
closed = 1;
nodes = (
(237,160,o),
(225,183,o),
(225,217,cs),
(225,583,ls),
(225,617,o),
(237,640,o),
(271,640,cs),
(305,640,o),
(317,617,o),
(317,583,cs),
(317,217,ls),
(317,183,o),
(305,160,o),
(271,160,cs)
);
},
{
closed = 1;
nodes = (
(74,0,l),
(519,846,l),
(467,846,l),
(23,0,l)
);
}
);
width = 542;
}
);
unicode = 216;
},
{
color = 5;
glyphname = OE;
layers = (
{
layerId = m01;
shapes = (
{
closed = 1;
nodes = (
(306,-11,o),
(336,0,o),
(366,0,cs),
(671,0,ls),
(705,0,o),
(717,11,o),
(717,46,cs),
(717,126,ls),
(717,160,o),
(705,171,o),
(671,171,cs),
(545,171,ls),
(528,171,o),
(522,177,o),
(522,194,cs),
(522,309,ls),
(522,326,o),
(528,331,o),
(545,331,cs),
(625,331,ls),
(660,331,o),
(671,343,o),
(671,377,cs),
(671,446,ls),
(671,480,o),
(660,491,o),
(625,491,cs),
(545,491,ls),
(528,491,o),
(522,497,o),
(522,514,cs),
(522,606,ls),
(522,623,o),
(528,629,o),
(545,629,cs),
(671,629,ls),
(705,629,o),
(717,640,o),
(717,674,cs),
(717,754,ls),
(717,789,o),
(705,800,o),
(671,800,cs),
(366,800,ls),
(336,800,o),
(306,812,o),
(271,812,cs),
(111,812,o),
(19,732,o),
(19,572,cs),
(19,229,ls),
(19,69,o),
(111,-11,o),
(271,-11,cs)
);
},
{
closed = 1;
nodes = (
(225,583,ls),
(225,617,o),
(237,640,o),
(271,640,cs),
(305,640,o),
(317,617,o),
(317,583,cs),
(317,217,ls),
(317,183,o),
(305,160,o),
(271,160,cs),
(237,160,o),
(225,183,o),
(225,217,cs)
);
}
);
width = 734;
},
{
layerId = "6ABCF30A-460E-4EED-802C-9E4699B7E7F6";
shapes = (
{
closed = 1;
nodes = (
(306,-11,o),
(336,0,o),
(366,0,cs),
(671,0,ls),
(705,0,o),
(717,11,o),
(717,46,cs),
(717,126,ls),
(717,160,o),
(705,171,o),
(671,171,cs),
(545,171,ls),
(528,171,o),
(522,177,o),
(522,194,cs),
(522,309,ls),
(522,326,o),
(528,331,o),
(545,331,cs),
(625,331,ls),
(660,331,o),
(671,343,o),
(671,377,cs),
(671,446,ls),
(671,480,o),
(660,491,o),
(625,491,cs),
(545,491,ls),
(528,491,o),
(522,497,o),
(522,514,cs),
(522,606,ls),
(522,623,o),
(528,629,o),
(545,629,cs),
(671,629,ls),
(705,629,o),
(717,640,o),
(717,674,cs),
(717,754,ls),
(717,789,o),
(705,800,o),
(671,800,cs),
(366,800,ls),
(336,800,o),
(306,812,o),
(271,812,cs),
(111,812,o),
(19,732,o),
(19,572,cs),
(19,229,ls),
(19,69,o),
(111,-11,o),
(271,-11,cs)
);
},
{
closed = 1;
nodes = (
(225,583,ls),
(225,617,o),
(237,640,o),
(271,640,cs),
(305,640,o),
(317,617,o),
(317,583,cs),
(317,217,ls),
(317,183,o),
(305,160,o),
(271,160,cs),
(237,160,o),
(225,183,o),
(225,217,cs)
);
}
);
width = 734;
},
{
layerId = m003;
shapes = (
{
closed = 1;
nodes = (
(306,-11,o),
(336,0,o),
(366,0,cs),
(671,0,ls),
(705,0,o),
(717,11,o),
(717,46,cs),
(717,126,ls),
(717,160,o),
(705,171,o),
(671,171,cs),
(545,171,ls),
(528,171,o),
(522,177,o),
(522,194,cs),
(522,309,ls),
(522,326,o),
(528,331,o),
(545,331,cs),
(625,331,ls),
(660,331,o),
(671,343,o),
(671,377,cs),
(671,446,ls),
(671,480,o),
(660,491,o),
(625,491,cs),
(545,491,ls),
(528,491,o),
(522,497,o),
(522,514,cs),
(522,606,ls),
(522,623,o),
(528,629,o),
(545,629,cs),
(671,629,ls),
(705,629,o),
(717,640,o),
(717,674,cs),
(717,754,ls),
(717,789,o),
(705,800,o),
(671,800,cs),
(366,800,ls),
(336,800,o),
(306,812,o),
(271,812,cs),
(111,812,o),
(19,732,o),
(19,572,cs),
(19,229,ls),
(19,69,o),
(111,-11,o),
(271,-11,cs)
);
},
{
closed = 1;
nodes = (
(225,583,ls),
(225,617,o),
(237,640,o),
(271,640,cs),
(305,640,o),
(317,617,o),
(317,583,cs),
(317,217,ls),
(317,183,o),
(305,160,o),
(271,160,cs),
(237,160,o),
(225,183,o),
(225,217,cs)
);
}
);
width = 734;
},
{
layerId = m004;
shapes = (
{
closed = 1;
nodes = (
(306,-11,o),
(336,0,o),
(366,0,cs),
(671,0,ls),
(705,0,o),
(717,11,o),
(717,46,cs),
(717,126,ls),
(717,160,o),
(705,171,o),
(671,171,cs),
(545,171,ls),
(528,171,o),
(522,177,o),
(522,194,cs),
(522,309,ls),
(522,326,o),
(528,331,o),
(545,331,cs),
(625,331,ls),
(660,331,o),
(671,343,o),
(671,377,cs),
(671,446,ls),
(671,480,o),
(660,491,o),
(625,491,cs),
(545,491,ls),
(528,491,o),
(522,497,o),
(522,514,cs),
(522,606,ls),
(522,623,o),
(528,629,o),
(545,629,cs),
(671,629,ls),
(705,629,o),
(717,640,o),
(717,674,cs),
(717,754,ls),
(717,789,o),
(705,800,o),
(671,800,cs),
(366,800,ls),
(336,800,o),
(306,812,o),
(271,812,cs),
(111,812,o),
(19,732,o),
(19,572,cs),
(19,229,ls),
(19,69,o),
(111,-11,o),
(271,-11,cs)
);
},
{
closed = 1;
nodes = (
(225,583,ls),
(225,617,o),
(237,640,o),
(271,640,cs),
(305,640,o),
(317,617,o),
(317,583,cs),
(317,217,ls),
(317,183,o),
(305,160,o),
(271,160,cs),
(237,160,o),
(225,183,o),
(225,217,cs)
);
}
);
width = 734;
},
{
layerId = m005;
shapes = (
{
closed = 1;
nodes = (
(306,-11,o),
(336,0,o),
(366,0,cs),
(671,0,ls),
(705,0,o),
(717,11,o),
(717,46,cs),
(717,126,ls),
(717,160,o),
(705,171,o),
(671,171,cs),
(545,171,ls),
(528,171,o),
(522,177,o),
(522,194,cs),
(522,309,ls),
(522,326,o),
(528,331,o),
(545,331,cs),
(625,331,ls),
(660,331,o),
(671,343,o),
(671,377,cs),
(671,446,ls),
(671,480,o),
(660,491,o),
(625,491,cs),
(545,491,ls),
(528,491,o),
(522,497,o),
(522,514,cs),
(522,606,ls),
(522,623,o),
(528,629,o),
(545,629,cs),
(671,629,ls),
(705,629,o),
(717,640,o),
(717,674,cs),
(717,754,ls),
(717,789,o),
(705,800,o),
(671,800,cs),
(366,800,ls),
(336,800,o),
(306,812,o),
(271,812,cs),
(111,812,o),
(19,732,o),
(19,572,cs),
(19,229,ls),
(19,69,o),
(111,-11,o),
(271,-11,cs)
);
},
{
closed = 1;
nodes = (
(225,583,ls),
(225,617,o),
(237,640,o),
(271,640,cs),
(305,640,o),
(317,617,o),
(317,583,cs),
(317,217,ls),
(317,183,o),
(305,160,o),
(271,160,cs),
(237,160,o),
(225,183,o),
(225,217,cs)
);
}
);
width = 734;
}
);
unicode = 338;
},
{
color = 5;
glyphname = P;
kernLeft = H;
kernRight = P;
layers = (
{
layerId = m01;
shapes = (
{
closed = 1;
nodes = (
(206,0,ls),
(240,0,o),
(251,11,o),
(251,46,cs),
(251,274,ls),
(251,291,o),
(257,297,o),
(274,297,cs),
(286,297,ls),
(434,297,o),
(514,354,o),
(514,503,cs),
(514,583,ls),
(514,732,o),
(434,800,o),
(286,800,cs),
(80,800,ls),
(46,800,o),
(34,789,o),
(34,754,cs),
(34,46,ls),
(34,11,o),
(46,0,o),
(80,0,cs)
);
},
{
closed = 1;
nodes = (
(257,457,o),
(251,463,o),
(251,480,cs),
(251,606,ls),
(251,623,o),
(257,629,o),
(274,629,cs),
(286,629,ls),
(320,629,o),
(331,617,o),
(331,572,cs),
(331,514,ls),
(331,469,o),
(320,457,o),
(286,457,cs),
(274,457,ls)
);
}
);
width = 537;
},
{
layerId = "6ABCF30A-460E-4EED-802C-9E4699B7E7F6";
shapes = (
{
closed = 1;
nodes = (
(234,0,ls),
(269,0,o),
(280,11,o),
(280,46,cs),
(280,274,ls),
(280,291,o),
(286,297,o),
(303,297,cs),
(314,297,ls),
(457,297,o),
(520,366,o),
(520,514,cs),
(520,572,ls),
(520,720,o),
(457,800,o),
(303,800,cs),
(63,800,ls),
(29,800,o),
(17,789,o),
(17,754,cs),
(17,46,ls),
(17,11,o),
(29,0,o),
(63,0,cs)
);
},
{
closed = 1;
nodes = (
(285,457,o),
(280,465,o),
(280,480,cs),
(280,606,ls),
(280,621,o),
(285,629,o),
(296,629,cs),
(298,629,ls),
(310,629,o),
(314,621,o),
(314,606,cs),
(314,480,ls),
(314,465,o),
(310,457,o),
(298,457,cs),
(296,457,ls)
);
}
);
width = 537;
},
{
layerId = m003;
shapes = (
{
closed = 1;
nodes = (
(194,0,ls),
(229,0,o),
(240,11,o),
(240,46,cs),
(240,274,ls),
(240,291,o),
(246,297,o),
(263,297,cs),
(297,297,ls),
(446,297,o),
(526,354,o),
(526,503,cs),
(526,583,ls),
(526,732,o),
(446,800,o),
(297,800,cs),
(80,800,ls),
(46,800,o),
(34,789,o),
(34,754,cs),
(34,46,ls),
(34,11,o),
(46,0,o),
(80,0,cs)
);
},
{
closed = 1;
nodes = (
(246,457,o),
(240,463,o),
(240,480,cs),
(240,606,ls),
(240,623,o),
(246,629,o),
(263,629,cs),
(286,629,ls),
(320,629,o),
(331,617,o),
(331,572,cs),
(331,514,ls),
(331,469,o),
(320,457,o),
(286,457,cs),
(263,457,ls)
);
}
);
width = 537;
},
{
layerId = m004;
shapes = (
{
closed = 1;
nodes = (
(211,0,ls),
(246,0,o),
(257,11,o),
(257,46,cs),
(257,274,ls),
(257,291,o),
(263,297,o),
(280,297,cs),
(314,297,ls),
(463,297,o),
(526,366,o),
(526,514,cs),
(526,572,ls),
(526,720,o),
(463,800,o),
(303,800,cs),
(63,800,ls),
(29,800,o),
(17,789,o),
(17,754,cs),
(17,46,ls),
(17,11,o),
(29,0,o),
(63,0,cs)
);
},
{
closed = 1;
nodes = (
(262,457,o),
(257,465,o),
(257,480,cs),
(257,606,ls),
(257,621,o),
(262,629,o),
(273,629,cs),
(275,629,ls),
(287,629,o),
(291,621,o),
(291,606,cs),
(291,480,ls),
(291,465,o),
(287,457,o),
(275,457,cs),
(273,457,ls)
);
}
);
width = 537;
},
{
layerId = m005;
shapes = (
{
closed = 1;
nodes = (
(126,0,ls),
(160,0,o),
(171,11,o),
(171,46,cs),
(171,274,ls),
(171,291,o),
(177,297,o),
(194,297,cs),
(263,297,ls),
(423,297,o),
(480,354,o),
(480,503,cs),
(480,583,ls),
(480,732,o),
(434,800,o),
(274,800,cs),
(103,800,ls),
(69,800,o),
(57,789,o),
(57,754,cs),
(57,46,ls),
(57,11,o),
(69,0,o),
(103,0,cs)
);
},
{
closed = 1;
nodes = (
(177,389,o),
(171,394,o),
(171,411,cs),
(171,674,ls),
(171,692,o),
(177,697,o),
(194,697,cs),
(297,697,ls),
(343,697,o),
(377,663,o),
(377,617,cs),
(377,469,ls),
(377,423,o),
(343,389,o),
(297,389,cs),
(194,389,ls)
);
}
);
width = 537;
}
);
unicode = 80;
},
{
color = 5;
glyphname = Thorn;
layers = (
{
layerId = m01;
shapes = (
{
closed = 1;
nodes = (
(183,0,ls),
(217,0,o),
(229,11,o),
(229,46,cs),
(229,126,ls),
(229,143,o),
(234,149,o),
(251,149,cs),
(274,149,ls),
(423,149,o),
(503,206,o),
(503,354,cs),
(503,434,ls),
(503,583,o),
(423,652,o),
(274,652,cs),
(251,652,ls),
(234,652,o),
(229,657,o),
(229,674,cs),
(229,754,ls),
(229,789,o),
(217,800,o),
(183,800,cs),
(69,800,ls),
(34,800,o),
(23,789,o),
(23,754,cs),
(23,46,ls),
(23,11,o),
(34,0,o),
(69,0,cs)
);
},
{
closed = 1;
nodes = (
(229,457,ls),
(229,474,o),
(234,480,o),
(251,480,cs),
(263,480,ls),
(297,480,o),
(309,469,o),
(309,423,cs),
(309,366,ls),
(309,320,o),
(297,309,o),
(263,309,cs),
(251,309,ls),
(234,309,o),
(229,314,o),
(229,331,cs)
);
}
);
width = 514;
},
{
layerId = "6ABCF30A-460E-4EED-802C-9E4699B7E7F6";
shapes = (
{
closed = 1;
nodes = (
(183,0,ls),
(217,0,o),
(229,11,o),
(229,46,cs),
(229,126,ls),
(229,143,o),
(234,149,o),
(251,149,cs),
(274,149,ls),
(423,149,o),
(503,206,o),
(503,354,cs),
(503,434,ls),
(503,583,o),
(423,652,o),
(274,652,cs),
(251,652,ls),
(234,652,o),
(229,657,o),
(229,674,cs),
(229,754,ls),
(229,789,o),
(217,800,o),
(183,800,cs),
(69,800,ls),
(34,800,o),
(23,789,o),
(23,754,cs),
(23,46,ls),
(23,11,o),
(34,0,o),
(69,0,cs)
);
},
{
closed = 1;
nodes = (
(229,457,ls),
(229,474,o),
(234,480,o),
(251,480,cs),
(263,480,ls),
(297,480,o),
(309,469,o),
(309,423,cs),
(309,366,ls),
(309,320,o),
(297,309,o),
(263,309,cs),
(251,309,ls),
(234,309,o),
(229,314,o),
(229,331,cs)
);
}
);
width = 514;
},
{
layerId = m003;
shapes = (
{
closed = 1;
nodes = (
(183,0,ls),
(217,0,o),
(229,11,o),
(229,46,cs),
(229,126,ls),
(229,143,o),
(234,149,o),
(251,149,cs),
(274,149,ls),
(423,149,o),
(503,206,o),
(503,354,cs),
(503,434,ls),
(503,583,o),
(423,652,o),
(274,652,cs),
(251,652,ls),
(234,652,o),
(229,657,o),
(229,674,cs),
(229,754,ls),
(229,789,o),
(217,800,o),
(183,800,cs),
(69,800,ls),
(34,800,o),
(23,789,o),
(23,754,cs),
(23,46,ls),
(23,11,o),
(34,0,o),
(69,0,cs)
);
},
{
closed = 1;
nodes = (
(229,457,ls),
(229,474,o),
(234,480,o),
(251,480,cs),
(263,480,ls),
(297,480,o),
(309,469,o),
(309,423,cs),
(309,366,ls),
(309,320,o),
(297,309,o),
(263,309,cs),
(251,309,ls),
(234,309,o),
(229,314,o),
(229,331,cs)
);
}
);
width = 514;
},
{
layerId = m004;
shapes = (
{
closed = 1;
nodes = (
(183,0,ls),
(217,0,o),
(229,11,o),
(229,46,cs),
(229,126,ls),
(229,143,o),
(234,149,o),
(251,149,cs),
(274,149,ls),
(423,149,o),
(503,206,o),
(503,354,cs),
(503,434,ls),
(503,583,o),
(423,652,o),
(274,652,cs),
(251,652,ls),
(234,652,o),
(229,657,o),
(229,674,cs),
(229,754,ls),
(229,789,o),
(217,800,o),
(183,800,cs),
(69,800,ls),
(34,800,o),
(23,789,o),
(23,754,cs),
(23,46,ls),
(23,11,o),
(34,0,o),
(69,0,cs)
);
},
{
closed = 1;
nodes = (
(229,457,ls),
(229,474,o),
(234,480,o),
(251,480,cs),
(263,480,ls),
(297,480,o),
(309,469,o),
(309,423,cs),
(309,366,ls),
(309,320,o),
(297,309,o),
(263,309,cs),
(251,309,ls),
(234,309,o),
(229,314,o),
(229,331,cs)
);
}
);
width = 514;
},
{
layerId = m005;
shapes = (
{
closed = 1;
nodes = (
(183,0,ls),
(217,0,o),
(229,11,o),
(229,46,cs),
(229,126,ls),
(229,143,o),
(234,149,o),
(251,149,cs),
(274,149,ls),
(423,149,o),
(503,206,o),
(503,354,cs),
(503,434,ls),
(503,583,o),
(423,652,o),
(274,652,cs),
(251,652,ls),
(234,652,o),
(229,657,o),
(229,674,cs),
(229,754,ls),
(229,789,o),
(217,800,o),
(183,800,cs),
(69,800,ls),
(34,800,o),
(23,789,o),
(23,754,cs),
(23,46,ls),
(23,11,o),
(34,0,o),
(69,0,cs)
);
},
{
closed = 1;
nodes = (
(229,457,ls),
(229,474,o),
(234,480,o),
(251,480,cs),
(263,480,ls),
(297,480,o),
(309,469,o),
(309,423,cs),
(309,366,ls),
(309,320,o),
(297,309,o),
(263,309,cs),
(251,309,ls),
(234,309,o),
(229,314,o),
(229,331,cs)
);
}
);
width = 514;
}
);
unicode = 222;
},
{
color = 5;
glyphname = Q;
kernLeft = O;
kernRight = Q;
layers = (
{
layerId = m01;
shapes = (
{
closed = 1;
nodes = (
(346,-11,o),
(378,34,o),
(401,34,cs),
(429,34,o),
(440,0,o),
(509,0,cs),
(520,0,ls),
(554,0,o),
(560,11,o),
(560,46,cs),
(560,137,ls),
(560,171,o),
(554,183,o),
(520,183,cs),
(503,183,o),
(497,190,o),
(497,206,cs),
(497,229,o),
(520,246,o),
(520,331,cs),
(520,572,ls),
(520,732,o),
(429,812,o),
(269,812,cs),
(109,812,o),
(17,732,o),
(17,572,cs),
(17,229,ls),
(17,69,o),
(109,-11,o),
(269,-11,cs)
);
},
{
closed = 1;
nodes = (
(234,160,o),
(223,183,o),
(223,217,cs),
(223,583,ls),
(223,617,o),
(234,640,o),
(269,640,cs),
(303,640,o),
(314,617,o),
(314,583,cs),
(314,217,ls),
(314,183,o),
(303,160,o),
(269,160,cs)
);
}
);
width = 572;
},
{
layerId = "6ABCF30A-460E-4EED-802C-9E4699B7E7F6";
shapes = (
{
closed = 1;
nodes = (
(341,-11,o),
(384,34,o),
(407,34,cs),
(434,34,o),
(446,0,o),
(514,0,cs),
(526,0,ls),
(560,0,o),
(566,11,o),
(566,46,cs),
(566,137,ls),
(566,171,o),
(560,183,o),
(526,183,cs),
(509,183,o),
(503,190,o),
(503,206,cs),
(503,229,o),
(526,246,o),
(526,331,cs),
(526,572,ls),
(526,732,o),
(423,812,o),
(263,812,cs),
(103,812,o),
(11,732,o),
(11,572,cs),
(11,229,ls),
(11,69,o),
(103,-11,o),
(263,-11,cs)
);
},
{
closed = 1;
nodes = (
(257,160,o),
(251,171,o),
(251,183,cs),
(251,617,ls),
(251,629,o),
(257,640,o),
(269,640,cs),
(280,640,o),
(286,629,o),
(286,617,cs),
(286,183,ls),
(286,171,o),
(280,160,o),
(269,160,cs)
);
}
);
width = 572;
},
{
associatedMasterId = m01;
layerId = "C4D1A468-879B-4D37-86EA-3CD9078B41A4";
name = "Sep 28, 22, 18:51";
shapes = (
{
closed = 1;
nodes = (
(431,-11,o),
(522,69,o),
(522,229,cs),
(522,572,ls),
(522,732,o),
(431,812,o),
(271,812,cs),
(111,812,o),
(19,732,o),
(19,572,cs),
(19,229,ls),
(19,69,o),
(111,-11,o),
(271,-11,cs)
);
},
{
closed = 1;
nodes = (
(237,160,o),
(225,183,o),
(225,217,cs),
(225,583,ls),
(225,617,o),
(237,640,o),
(271,640,cs),
(305,640,o),
(317,617,o),
(317,583,cs),
(317,217,ls),
(317,183,o),
(305,160,o),
(271,160,cs)
);
}
);
width = 580;
},
{
layerId = m003;
shapes = (
{
closed = 1;
nodes = (
(409,-11,o),
(487,34,o),
(510,34,cs),
(537,34,o),
(549,0,o),
(617,0,cs),
(629,0,ls),
(663,0,o),
(669,11,o),
(669,46,cs),
(669,137,ls),
(669,171,o),
(663,183,o),
(629,183,cs),
(612,183,o),
(606,190,o),
(606,206,cs),
(606,229,o),
(629,246,o),
(629,331,cs),
(629,503,ls),
(629,720,o),
(537,812,o),
(331,812,cs),
(126,812,o),
(34,720,o),
(34,503,cs),
(34,297,ls),
(34,80,o),
(126,-11,o),
(331,-11,cs)
);
},
{
closed = 1;
nodes = (
(263,160,o),
(240,206,o),
(240,286,cs),
(240,514,ls),
(240,594,o),
(263,640,o),
(331,640,cs),
(400,640,o),
(423,594,o),
(423,514,cs),
(423,286,ls),
(423,206,o),
(400,160,o),
(331,160,cs)
);
}
);
width = 686;
},
{
associatedMasterId = m003;
layerId = "4E2BA8D3-E3D8-4575-82BE-23C83B4D9C31";
name = "Sep 28, 22, 18:51";
shapes = (
{
closed = 1;
nodes = (
(431,-11,o),
(522,69,o),
(522,229,cs),
(522,572,ls),
(522,732,o),
(431,812,o),
(271,812,cs),
(111,812,o),
(19,732,o),
(19,572,cs),
(19,229,ls),
(19,69,o),
(111,-11,o),
(271,-11,cs)
);
},
{
closed = 1;
nodes = (
(237,160,o),
(225,183,o),
(225,217,cs),
(225,583,ls),
(225,617,o),
(237,640,o),
(271,640,cs),
(305,640,o),
(317,617,o),
(317,583,cs),
(317,217,ls),
(317,183,o),
(305,160,o),
(271,160,cs)
);
}
);
width = 580;
},
{
layerId = m004;
shapes = (
{
closed = 1;
nodes = (
(352,-11,o),
(407,34,o),
(430,34,cs),
(457,34,o),
(469,0,o),
(537,0,cs),
(549,0,ls),
(583,0,o),
(589,11,o),
(589,46,cs),
(589,137,ls),
(589,171,o),
(583,183,o),
(549,183,cs),
(531,183,o),
(526,190,o),
(526,206,cs),
(526,229,o),
(549,246,o),
(549,331,cs),
(549,572,ls),
(549,732,o),
(434,812,o),
(274,812,cs),
(114,812,o),
(11,732,o),
(11,572,cs),
(11,229,ls),
(11,69,o),
(114,-11,o),
(274,-11,cs)
);
},
{
closed = 1;
nodes = (
(269,160,o),
(263,171,o),
(263,183,cs),
(263,617,ls),
(263,629,o),
(269,640,o),
(280,640,cs),
(291,640,o),
(297,629,o),
(297,617,cs),
(297,183,ls),
(297,171,o),
(291,160,o),
(280,160,cs)
);
}
);
width = 594;
},
{
layerId = m005;
shapes = (
{
closed = 1;
nodes = (
(346,-11,o),
(378,34,o),
(401,34,cs),
(429,34,o),
(440,0,o),
(509,0,cs),
(520,0,ls),
(554,0,o),
(560,11,o),
(560,46,cs),
(560,137,ls),
(560,171,o),
(554,183,o),
(520,183,cs),
(503,183,o),
(497,190,o),
(497,206,cs),
(497,229,o),
(520,246,o),
(520,331,cs),
(520,572,ls),
(520,732,o),
(429,812,o),
(269,812,cs),
(109,812,o),
(17,732,o),
(17,572,cs),
(17,229,ls),
(17,69,o),
(109,-11,o),
(269,-11,cs)
);
},
{
closed = 1;
nodes = (
(234,160,o),
(223,183,o),
(223,217,cs),
(223,583,ls),
(223,617,o),
(234,640,o),
(269,640,cs),
(303,640,o),
(314,617,o),
(314,583,cs),
(314,217,ls),
(314,183,o),
(303,160,o),
(269,160,cs)
);
}
);
width = 572;
},
{
associatedMasterId = m005;
layerId = "E201445B-8165-4708-B3C0-D7162320D830";
name = "Sep 28, 22, 18:51";
shapes = (
{
closed = 1;
nodes = (
(431,-11,o),
(522,69,o),
(522,229,cs),
(522,572,ls),
(522,732,o),
(431,812,o),
(271,812,cs),
(111,812,o),
(19,732,o),
(19,572,cs),
(19,229,ls),
(19,69,o),
(111,-11,o),
(271,-11,cs)
);
},
{
closed = 1;
nodes = (
(237,160,o),
(225,183,o),
(225,217,cs),
(225,583,ls),
(225,617,o),
(237,640,o),
(271,640,cs),
(305,640,o),
(317,617,o),
(317,583,cs),
(317,217,ls),
(317,183,o),
(305,160,o),
(271,160,cs)
);
}
);
width = 580;
}
);
unicode = 81;
},
{
color = 5;
glyphname = R;
kernLeft = H;
kernRight = R;
layers = (
{
anchors = (
{
name = bottom;
pos = (286,0);
},
{
name = top;
pos = (286,800);
}
);
layerId = m01;
shapes = (
{
closed = 1;
nodes = (
(194,0,ls),
(229,0,o),
(240,11,o),
(240,46,cs),
(240,297,ls),
(240,314,o),
(246,320,o),
(263,320,cs),
(286,320,ls),
(320,320,o),
(331,309,o),
(331,263,cs),
(331,91,ls),
(331,34,o),
(343,0,o),
(400,0,cs),
(491,0,ls),
(526,0,o),
(537,11,o),
(537,30,cs),
(537,49,o),
(526,49,o),
(526,91,cs),
(526,240,ls),
(526,306,o),
(507,346,o),
(470,377,cs),
(450,393,o),
(448,395,o),
(448,401,cs),
(448,407,o),
(456,411,o),
(470,425,cs),
(504,457,o),
(526,499,o),
(526,560,cs),
(526,583,ls),
(526,732,o),
(434,800,o),
(286,800,cs),
(80,800,ls),
(46,800,o),
(34,789,o),
(34,754,cs),
(34,46,ls),
(34,11,o),
(46,0,o),
(80,0,cs)
);
},
{
closed = 1;
nodes = (
(246,480,o),
(240,486,o),
(240,503,cs),
(240,606,ls),
(240,623,o),
(246,629,o),
(263,629,cs),
(286,629,ls),
(320,629,o),
(331,617,o),
(331,572,cs),
(331,537,ls),
(331,491,o),
(320,480,o),
(286,480,cs),
(263,480,ls)
);
}
);
width = 560;
},
{
anchors = (
{
name = bottom;
pos = (280,0);
},
{
name = top;
pos = (280,800);
}
);
layerId = "6ABCF30A-460E-4EED-802C-9E4699B7E7F6";
shapes = (
{
closed = 1;
nodes = (
(217,0,ls),
(251,0,o),
(263,11,o),
(263,46,cs),
(263,297,ls),
(263,312,o),
(267,320,o),
(279,320,cs),
(281,320,ls),
(293,320,o),
(297,312,o),
(297,297,cs),
(297,91,ls),
(297,34,o),
(320,0,o),
(377,0,cs),
(503,0,ls),
(537,0,o),
(549,11,o),
(549,30,cs),
(549,49,o),
(537,49,o),
(537,91,cs),
(537,240,ls),
(537,306,o),
(519,346,o),
(481,377,cs),
(462,393,o),
(459,395,o),
(459,401,cs),
(459,407,o),
(467,411,o),
(481,425,cs),
(515,457,o),
(537,499,o),
(537,560,cs),
(537,583,ls),
(537,732,o),
(446,800,o),
(297,800,cs),
(63,800,ls),
(29,800,o),
(17,789,o),
(17,754,cs),
(17,46,ls),
(17,11,o),
(29,0,o),
(63,0,cs)
);
},
{
closed = 1;
nodes = (
(267,457,o),
(263,465,o),
(263,480,cs),
(263,606,ls),
(263,621,o),
(267,629,o),
(279,629,cs),
(281,629,ls),
(293,629,o),
(297,621,o),
(297,606,cs),
(297,480,ls),
(297,465,o),
(293,457,o),
(281,457,cs),
(279,457,ls)
);
}
);
width = 560;
},
{
anchors = (
{
name = top;
pos = (274,800);
}
);
associatedMasterId = m01;
layerId = "07787294-6064-4A53-AB2F-EFB308EAD9E4";
name = "Sep 28, 22, 19:42";
shapes = (
{
closed = 1;
nodes = (
(183,0,ls),
(217,0,o),
(229,11,o),
(229,46,cs),
(229,274,ls),
(229,291,o),
(234,297,o),
(251,297,cs),
(286,297,ls),
(434,297,o),
(526,354,o),
(526,503,cs),
(526,583,ls),
(526,732,o),
(434,800,o),
(286,800,cs),
(69,800,ls),
(34,800,o),
(23,789,o),
(23,754,cs),
(23,46,ls),
(23,11,o),
(34,0,o),
(69,0,cs)
);
},
{
closed = 1;
nodes = (
(234,457,o),
(229,463,o),
(229,480,cs),
(229,606,ls),
(229,623,o),
(234,629,o),
(251,629,cs),
(274,629,ls),
(309,629,o),
(320,617,o),
(320,572,cs),
(320,514,ls),
(320,469,o),
(309,457,o),
(274,457,cs),
(251,457,ls)
);
}
);
width = 553;
},
{
anchors = (
{
name = bottom;
pos = (274,0);
},
{
name = top;
pos = (274,800);
}
);
layerId = m003;
shapes = (
{
closed = 1;
nodes = (
(194,0,ls),
(229,0,o),
(240,11,o),
(240,46,cs),
(240,297,ls),
(240,314,o),
(246,320,o),
(263,320,cs),
(343,320,ls),
(400,320,o),
(423,297,o),
(423,229,cs),
(423,91,ls),
(423,34,o),
(434,0,o),
(491,0,cs),
(594,0,ls),
(629,0,o),
(640,11,o),
(640,30,cs),
(640,49,o),
(629,49,o),
(629,91,cs),
(629,240,ls),
(629,306,o),
(610,346,o),
(573,377,cs),
(553,393,o),
(551,395,o),
(551,401,cs),
(551,407,o),
(559,411,o),
(573,425,cs),
(607,457,o),
(629,499,o),
(629,560,cs),
(629,583,ls),
(629,732,o),
(537,800,o),
(389,800,cs),
(80,800,ls),
(46,800,o),
(34,789,o),
(34,754,cs),
(34,46,ls),
(34,11,o),
(46,0,o),
(80,0,cs)
);
},
{
closed = 1;
nodes = (
(246,480,o),
(240,486,o),
(240,503,cs),
(240,606,ls),
(240,623,o),
(246,629,o),
(263,629,cs),
(343,629,ls),
(400,629,o),
(423,601,o),
(423,555,cs),
(423,553,ls),
(423,507,o),
(400,480,o),
(343,480,cs),
(263,480,ls)
);
}
);
width = 663;
},
{
anchors = (
{
name = top;
pos = (274,800);
}
);
associatedMasterId = m003;
layerId = "AE13765B-798A-40B5-8255-80F3456FDBCE";
name = "Sep 28, 22, 19:42";
shapes = (
{
closed = 1;
nodes = (
(183,0,ls),
(217,0,o),
(229,11,o),
(229,46,cs),
(229,274,ls),
(229,291,o),
(234,297,o),
(251,297,cs),
(286,297,ls),
(434,297,o),
(526,354,o),
(526,503,cs),
(526,583,ls),
(526,732,o),
(434,800,o),
(286,800,cs),
(69,800,ls),
(34,800,o),
(23,789,o),
(23,754,cs),
(23,46,ls),
(23,11,o),
(34,0,o),
(69,0,cs)
);
},
{
closed = 1;
nodes = (
(234,457,o),
(229,463,o),
(229,480,cs),
(229,606,ls),
(229,623,o),
(234,629,o),
(251,629,cs),
(274,629,ls),
(309,629,o),
(320,617,o),
(320,572,cs),
(320,514,ls),
(320,469,o),
(309,457,o),
(274,457,cs),
(251,457,ls)
);
}
);
width = 553;
},
{
anchors = (
{
name = bottom;
pos = (274,0);
},
{
name = top;
pos = (274,800);
}
);
layerId = m004;
shapes = (
{
closed = 1;
nodes = (
(211,0,ls),
(246,0,o),
(257,11,o),
(257,46,cs),
(257,297,ls),
(257,312,o),
(262,320,o),
(273,320,cs),
(275,320,ls),
(287,320,o),
(291,312,o),
(291,297,cs),
(291,91,ls),
(291,34,o),
(314,0,o),
(371,0,cs),
(497,0,ls),
(531,0,o),
(543,11,o),
(543,30,cs),
(543,49,o),
(531,49,o),
(531,91,cs),
(531,240,ls),
(531,306,o),
(513,346,o),
(475,377,cs),
(456,393,o),
(454,395,o),
(454,401,cs),
(454,407,o),
(462,411,o),
(475,425,cs),
(510,457,o),
(531,499,o),
(531,560,cs),
(531,583,ls),
(531,732,o),
(440,800,o),
(291,800,cs),
(63,800,ls),
(29,800,o),
(17,789,o),
(17,754,cs),
(17,46,ls),
(17,11,o),
(29,0,o),
(63,0,cs)
);
},
{
closed = 1;
nodes = (
(262,457,o),
(257,465,o),
(257,480,cs),
(257,606,ls),
(257,621,o),
(262,629,o),
(273,629,cs),
(275,629,ls),
(287,629,o),
(291,621,o),
(291,606,cs),
(291,480,ls),
(291,465,o),
(287,457,o),
(275,457,cs),
(273,457,ls)
);
}
);
width = 549;
},
{
anchors = (
{
name = bottom;
pos = (286,0);
},
{
name = top;
pos = (286,800);
}
);
layerId = m005;
shapes = (
{
closed = 1;
nodes = (
(194,0,ls),
(229,0,o),
(240,11,o),
(240,46,cs),
(240,297,ls),
(240,314,o),
(246,320,o),
(263,320,cs),
(286,320,ls),
(320,320,o),
(331,309,o),
(331,263,cs),
(331,91,ls),
(331,34,o),
(343,0,o),
(400,0,cs),
(491,0,ls),
(526,0,o),
(537,11,o),
(537,30,cs),
(537,49,o),
(526,49,o),
(526,91,cs),
(526,240,ls),
(526,306,o),
(507,346,o),
(470,377,cs),
(450,393,o),
(448,395,o),
(448,401,cs),
(448,407,o),
(456,411,o),
(470,425,cs),
(504,457,o),
(526,499,o),
(526,560,cs),
(526,583,ls),
(526,732,o),
(434,800,o),
(286,800,cs),
(80,800,ls),
(46,800,o),
(34,789,o),
(34,754,cs),
(34,46,ls),
(34,11,o),
(46,0,o),
(80,0,cs)
);
},
{
closed = 1;
nodes = (
(246,480,o),
(240,486,o),
(240,503,cs),
(240,606,ls),
(240,623,o),
(246,629,o),
(263,629,cs),
(286,629,ls),
(320,629,o),
(331,617,o),
(331,572,cs),
(331,537,ls),
(331,491,o),
(320,480,o),
(286,480,cs),
(263,480,ls)
);
}
);
width = 560;
},
{
anchors = (
{
name = top;
pos = (274,800);
}
);
associatedMasterId = m005;
layerId = "18EE82C1-BA11-4F5E-9E40-734C4C0E171A";
name = "Sep 28, 22, 19:42";
shapes = (
{
closed = 1;
nodes = (
(183,0,ls),
(217,0,o),
(229,11,o),
(229,46,cs),
(229,274,ls),
(229,291,o),
(234,297,o),
(251,297,cs),
(286,297,ls),
(434,297,o),
(526,354,o),
(526,503,cs),
(526,583,ls),
(526,732,o),
(434,800,o),
(286,800,cs),
(69,800,ls),
(34,800,o),
(23,789,o),
(23,754,cs),
(23,46,ls),
(23,11,o),
(34,0,o),
(69,0,cs)
);
},
{
closed = 1;
nodes = (
(234,457,o),
(229,463,o),
(229,480,cs),
(229,606,ls),
(229,623,o),
(234,629,o),
(251,629,cs),
(274,629,ls),
(309,629,o),
(320,617,o),
(320,572,cs),
(320,514,ls),
(320,469,o),
(309,457,o),
(274,457,cs),
(251,457,ls)
);
}
);
width = 553;
}
);
unicode = 82;
},
{
color = 5;
glyphname = S;
kernLeft = S;
kernRight = S;
layers = (
{
anchors = (
{
name = bottom;
pos = (263,0);
},
{
name = top;
pos = (271,800);
}
);
layerId = m01;
shapes = (
{
closed = 1;
nodes = (
(423,-11,o),
(526,46,o),
(526,206,cs),
(526,323,o),
(479,378,o),
(362,453,cs),
(318,481,ls),
(235,534,o),
(229,555,o),
(229,594,cs),
(229,623,o),
(241,640,o),
(269,640,cs),
(298,640,o),
(311,623,o),
(311,594,cs),
(311,583,ls),
(311,549,o),
(322,537,o),
(357,537,cs),
(471,537,ls),
(505,537,o),
(517,549,o),
(517,583,cs),
(517,732,o),
(431,812,o),
(269,812,cs),
(111,812,o),
(23,732,o),
(23,594,cs),
(23,488,o),
(63,408,o),
(153,349,cs),
(206,314,ls),
(273,271,o),
(320,249,o),
(320,206,cs),
(320,179,o),
(307,160,o),
(269,160,cs),
(231,160,o),
(217,179,o),
(217,206,cs),
(217,217,ls),
(217,251,o),
(206,263,o),
(171,263,cs),
(57,263,ls),
(23,263,o),
(11,251,o),
(11,217,cs),
(11,46,o),
(103,-11,o),
(269,-11,cs)
);
}
);
width = 537;
},
{
anchors = (
{
name = bottom;
pos = (274,0);
},
{
name = top;
pos = (274,800);
}
);
layerId = "6ABCF30A-460E-4EED-802C-9E4699B7E7F6";
shapes = (
{
closed = 1;
nodes = (
(423,-11,o),
(526,46,o),
(526,217,cs),
(526,347,o),
(495,389,o),
(384,453,cs),
(333,482,ls),
(257,526,o),
(257,541,o),
(257,617,cs),
(257,632,o),
(263,640,o),
(274,640,cs),
(286,640,o),
(291,632,o),
(291,617,cs),
(291,583,ls),
(291,549,o),
(298,537,o),
(333,537,cs),
(469,537,ls),
(503,537,o),
(514,549,o),
(514,583,cs),
(514,732,o),
(431,812,o),
(271,812,cs),
(111,812,o),
(23,732,o),
(23,583,cs),
(23,431,o),
(81,383,o),
(171,335,cs),
(206,317,ls),
(289,272,o),
(291,264,o),
(291,183,cs),
(291,168,o),
(286,160,o),
(274,160,cs),
(263,160,o),
(257,168,o),
(257,183,cs),
(257,217,ls),
(257,251,o),
(240,263,o),
(206,263,cs),
(57,263,ls),
(23,263,o),
(11,251,o),
(11,217,cs),
(11,46,o),
(103,-11,o),
(263,-11,cs)
);
}
);
width = 537;
},
{
anchors = (
{
name = bottom;
pos = (323,0);
},
{
name = top;
pos = (329,800);
}
);
layerId = m003;
shapes = (
{
closed = 1;
nodes = (
(486,-11,o),
(629,46,o),
(629,206,cs),
(629,319,o),
(601,387,o),
(469,437,cs),
(339,485,ls),
(254,517,o),
(240,530,o),
(240,568,cs),
(240,600,o),
(264,640,o),
(327,640,cs),
(390,640,o),
(414,615,o),
(414,572,cs),
(414,560,ls),
(414,526,o),
(425,514,o),
(459,514,cs),
(574,514,ls),
(608,514,o),
(620,526,o),
(620,560,cs),
(620,709,o),
(501,812,o),
(328,812,cs),
(168,812,o),
(34,720,o),
(34,572,cs),
(34,435,o),
(110,390,o),
(209,349,cs),
(386,275,ls),
(416,263,o),
(429,245,o),
(429,218,cs),
(429,174,o),
(394,160,o),
(326,160,cs),
(257,160,o),
(229,185,o),
(229,238,cs),
(229,240,ls),
(229,274,o),
(217,286,o),
(183,286,cs),
(69,286,ls),
(34,286,o),
(23,274,o),
(23,240,cs),
(23,69,o),
(143,-11,o),
(326,-11,cs)
);
}
);
width = 652;
},
{
anchors = (
{
name = bottom;
pos = (320,0);
},
{
name = top;
pos = (328,800);
}
);
layerId = m004;
shapes = (
{
closed = 1;
nodes = (
(480,-11,o),
(640,34,o),
(640,240,cs),
(640,406,o),
(597,433,o),
(438,479,cs),
(394,491,ls),
(326,511,o),
(314,517,o),
(314,617,cs),
(314,632,o),
(320,640,o),
(331,640,cs),
(343,640,o),
(349,632,o),
(349,617,cs),
(349,572,ls),
(349,542,o),
(365,526,o),
(394,526,cs),
(585,526,ls),
(620,526,o),
(631,537,o),
(631,572,cs),
(631,766,o),
(522,812,o),
(328,812,cs),
(145,812,o),
(23,766,o),
(23,560,cs),
(23,400,o),
(90,353,o),
(223,320,cs),
(269,309,ls),
(338,291,o),
(349,282,o),
(349,183,cs),
(349,168,o),
(343,160,o),
(331,160,cs),
(320,160,o),
(314,168,o),
(314,183,cs),
(314,229,ls),
(314,258,o),
(298,274,o),
(269,274,cs),
(57,274,ls),
(23,274,o),
(11,263,o),
(11,229,cs),
(11,34,o),
(160,-11,o),
(320,-11,cs)
);
}
);
width = 652;
},
{
anchors = (
{
name = bottom;
pos = (320,0);
},
{
name = top;
pos = (328,800);
}
);
associatedMasterId = m004;
layerId = "AA0F36F3-DD68-4107-BC45-164E0611EB34";
name = "Feb 22, 23 at 18:34";
shapes = (
{
closed = 1;
nodes = (
(537,-11,o),
(652,34,o),
(652,240,cs),
(652,560,ls),
(652,766,o),
(537,812,o),
(331,812,cs),
(126,812,o),
(11,766,o),
(11,560,cs),
(11,240,ls),
(11,34,o),
(126,-11,o),
(331,-11,cs)
);
},
{
closed = 1;
nodes = (
(320,160,o),
(314,168,o),
(314,183,cs),
(314,617,ls),
(314,632,o),
(320,640,o),
(331,640,cs),
(343,640,o),
(349,632,o),
(349,617,cs),
(349,183,ls),
(349,168,o),
(343,160,o),
(331,160,cs)
);
}
);
visible = 1;
width = 652;
},
{
anchors = (
{
name = bottom;
pos = (263,0);
},
{
name = top;
pos = (271,800);
}
);
layerId = m005;
shapes = (
{
closed = 1;
nodes = (
(423,-11,o),
(526,46,o),
(526,206,cs),
(526,323,o),
(479,378,o),
(362,453,cs),
(318,481,ls),
(235,534,o),
(229,555,o),
(229,594,cs),
(229,623,o),
(241,640,o),
(269,640,cs),
(298,640,o),
(311,623,o),
(311,594,cs),
(311,583,ls),
(311,549,o),
(322,537,o),
(357,537,cs),
(471,537,ls),
(505,537,o),
(517,549,o),
(517,583,cs),
(517,732,o),
(431,812,o),
(269,812,cs),
(111,812,o),
(23,732,o),
(23,594,cs),
(23,488,o),
(63,408,o),
(153,349,cs),
(206,314,ls),
(273,271,o),
(320,249,o),
(320,206,cs),
(320,179,o),
(307,160,o),
(269,160,cs),
(231,160,o),
(217,179,o),
(217,206,cs),
(217,217,ls),
(217,251,o),
(206,263,o),
(171,263,cs),
(57,263,ls),
(23,263,o),
(11,251,o),
(11,217,cs),
(11,46,o),
(103,-11,o),
(269,-11,cs)
);
}
);
width = 537;
}
);
unicode = 83;
},
{
color = 5;
glyphname = Scedilla;
layers = (
{
layerId = m01;
shapes = (
{
closed = 1;
nodes = (
(11,61,o),
(87,0,o),
(222,-10,c),
(241,-22,o),
(250,-41,o),
(250,-57,cs),
(250,-80,o),
(218,-95,o),
(182,-95,cs),
(166,-95,o),
(159,-104,o),
(159,-118,cs),
(159,-176,ls),
(159,-187,o),
(166,-199,o),
(182,-199,cs),
(294,-199,o),
(355,-168,o),
(355,-105,cs),
(355,-43,o),
(303,-34,o),
(303,-11,cs),
(303,-10,l),
(440,-1,o),
(526,59,o),
(526,206,cs),
(526,323,o),
(480,379,o),
(362,453,cs),
(240,529,o),
(229,550,o),
(229,594,cs),
(229,623,o),
(241,640,o),
(270,640,cs),
(298,640,o),
(311,623,o),
(311,594,cs),
(311,583,ls),
(311,549,o),
(322,537,o),
(357,537,cs),
(471,537,ls),
(505,537,o),
(517,549,o),
(517,583,cs),
(517,732,o),
(431,812,o),
(271,812,cs),
(111,812,o),
(23,732,o),
(23,594,cs),
(23,470,o),
(95,387,o),
(206,315,cs),
(274,271,o),
(320,248,o),
(320,206,cs),
(320,179,o),
(307,160,o),
(269,160,cs),
(231,160,o),
(217,179,o),
(217,206,cs),
(217,217,ls),
(217,251,o),
(206,263,o),
(171,263,cs),
(57,263,ls),
(23,263,o),
(11,251,o),
(11,217,cs)
);
}
);
width = 537;
},
{
layerId = "6ABCF30A-460E-4EED-802C-9E4699B7E7F6";
shapes = (
{
closed = 1;
nodes = (
(11,61,o),
(87,0,o),
(222,-10,c),
(241,-22,o),
(250,-41,o),
(250,-57,cs),
(250,-80,o),
(218,-95,o),
(182,-95,cs),
(166,-95,o),
(159,-104,o),
(159,-118,cs),
(159,-176,ls),
(159,-187,o),
(166,-199,o),
(182,-199,cs),
(294,-199,o),
(355,-168,o),
(355,-105,cs),
(355,-43,o),
(303,-34,o),
(303,-11,cs),
(303,-10,l),
(440,-1,o),
(526,59,o),
(526,206,cs),
(526,323,o),
(480,379,o),
(362,453,cs),
(240,529,o),
(229,550,o),
(229,594,cs),
(229,623,o),
(241,640,o),
(270,640,cs),
(298,640,o),
(311,623,o),
(311,594,cs),
(311,583,ls),
(311,549,o),
(322,537,o),
(357,537,cs),
(471,537,ls),
(505,537,o),
(517,549,o),
(517,583,cs),
(517,732,o),
(431,812,o),
(271,812,cs),
(111,812,o),
(23,732,o),
(23,594,cs),
(23,470,o),
(95,387,o),
(206,315,cs),
(274,271,o),
(320,248,o),
(320,206,cs),
(320,179,o),
(307,160,o),
(269,160,cs),
(231,160,o),
(217,179,o),
(217,206,cs),
(217,217,ls),
(217,251,o),
(206,263,o),
(171,263,cs),
(57,263,ls),
(23,263,o),
(11,251,o),
(11,217,cs)
);
}
);
width = 537;
},
{
layerId = m003;
shapes = (
{
closed = 1;
nodes = (
(11,61,o),
(87,0,o),
(222,-10,c),
(241,-22,o),
(250,-41,o),
(250,-57,cs),
(250,-80,o),
(218,-95,o),
(182,-95,cs),
(166,-95,o),
(159,-104,o),
(159,-118,cs),
(159,-176,ls),
(159,-187,o),
(166,-199,o),
(182,-199,cs),
(294,-199,o),
(355,-168,o),
(355,-105,cs),
(355,-43,o),
(303,-34,o),
(303,-11,cs),
(303,-10,l),
(440,-1,o),
(526,59,o),
(526,206,cs),
(526,323,o),
(480,379,o),
(362,453,cs),
(240,529,o),
(229,550,o),
(229,594,cs),
(229,623,o),
(241,640,o),
(270,640,cs),
(298,640,o),
(311,623,o),
(311,594,cs),
(311,583,ls),
(311,549,o),
(322,537,o),
(357,537,cs),
(471,537,ls),
(505,537,o),
(517,549,o),
(517,583,cs),
(517,732,o),
(431,812,o),
(271,812,cs),
(111,812,o),
(23,732,o),
(23,594,cs),
(23,470,o),
(95,387,o),
(206,315,cs),
(274,271,o),
(320,248,o),
(320,206,cs),
(320,179,o),
(307,160,o),
(269,160,cs),
(231,160,o),
(217,179,o),
(217,206,cs),
(217,217,ls),
(217,251,o),
(206,263,o),
(171,263,cs),
(57,263,ls),
(23,263,o),
(11,251,o),
(11,217,cs)
);
}
);
width = 537;
},
{
layerId = m004;
shapes = (
{
closed = 1;
nodes = (
(11,61,o),
(87,0,o),
(222,-10,c),
(241,-22,o),
(250,-41,o),
(250,-57,cs),
(250,-80,o),
(218,-95,o),
(182,-95,cs),
(166,-95,o),
(159,-104,o),
(159,-118,cs),
(159,-176,ls),
(159,-187,o),
(166,-199,o),
(182,-199,cs),
(294,-199,o),
(355,-168,o),
(355,-105,cs),
(355,-43,o),
(303,-34,o),
(303,-11,cs),
(303,-10,l),
(440,-1,o),
(526,59,o),
(526,206,cs),
(526,323,o),
(480,379,o),
(362,453,cs),
(240,529,o),
(229,550,o),
(229,594,cs),
(229,623,o),
(241,640,o),
(270,640,cs),
(298,640,o),
(311,623,o),
(311,594,cs),
(311,583,ls),
(311,549,o),
(322,537,o),
(357,537,cs),
(471,537,ls),
(505,537,o),
(517,549,o),
(517,583,cs),
(517,732,o),
(431,812,o),
(271,812,cs),
(111,812,o),
(23,732,o),
(23,594,cs),
(23,470,o),
(95,387,o),
(206,315,cs),
(274,271,o),
(320,248,o),
(320,206,cs),
(320,179,o),
(307,160,o),
(269,160,cs),
(231,160,o),
(217,179,o),
(217,206,cs),
(217,217,ls),
(217,251,o),
(206,263,o),
(171,263,cs),
(57,263,ls),
(23,263,o),
(11,251,o),
(11,217,cs)
);
}
);
width = 537;
},
{
layerId = m005;
shapes = (
{
closed = 1;
nodes = (
(11,61,o),
(87,0,o),
(222,-10,c),
(241,-22,o),
(250,-41,o),
(250,-57,cs),
(250,-80,o),
(218,-95,o),
(182,-95,cs),
(166,-95,o),
(159,-104,o),
(159,-118,cs),
(159,-176,ls),
(159,-187,o),
(166,-199,o),
(182,-199,cs),
(294,-199,o),
(355,-168,o),
(355,-105,cs),
(355,-43,o),
(303,-34,o),
(303,-11,cs),
(303,-10,l),
(440,-1,o),
(526,59,o),
(526,206,cs),
(526,323,o),
(480,379,o),
(362,453,cs),
(240,529,o),
(229,550,o),
(229,594,cs),
(229,623,o),
(241,640,o),
(270,640,cs),
(298,640,o),
(311,623,o),
(311,594,cs),
(311,583,ls),
(311,549,o),
(322,537,o),
(357,537,cs),
(471,537,ls),
(505,537,o),
(517,549,o),
(517,583,cs),
(517,732,o),
(431,812,o),
(271,812,cs),
(111,812,o),
(23,732,o),
(23,594,cs),
(23,470,o),
(95,387,o),
(206,315,cs),
(274,271,o),
(320,248,o),
(320,206,cs),
(320,179,o),
(307,160,o),
(269,160,cs),
(231,160,o),
(217,179,o),
(217,206,cs),
(217,217,ls),
(217,251,o),
(206,263,o),
(171,263,cs),
(57,263,ls),
(23,263,o),
(11,251,o),
(11,217,cs)
);
}
);
width = 537;
}
);
unicode = 350;
},
{
color = 5;
glyphname = Germandbls;
layers = (
{
layerId = m01;
shapes = (
{
closed = 1;
nodes = (
(183,0,ls),
(217,0,o),
(229,11,o),
(229,46,cs),
(229,617,ls),
(229,634,o),
(234,640,o),
(251,640,cs),
(331,640,ls),
(366,640,o),
(400,629,o),
(400,583,cs),
(400,549,ls),
(400,503,o),
(389,491,o),
(354,491,cs),
(343,491,ls),
(326,491,o),
(320,486,o),
(320,469,cs),
(320,354,ls),
(320,337,o),
(326,331,o),
(343,331,cs),
(354,331,ls),
(389,331,o),
(400,320,o),
(400,263,cs),
(400,229,ls),
(400,171,o),
(389,160,o),
(354,160,cs),
(305,160,ls),
(288,160,o),
(282,154,o),
(282,137,cs),
(282,23,ls),
(282,6,o),
(288,0,o),
(305,0,cs),
(400,0,ls),
(549,0,o),
(617,69,o),
(617,206,cs),
(617,240,ls),
(617,343,o),
(555,385,o),
(526,400,cs),
(520,403,o),
(514,406,o),
(514,411,cs),
(514,417,o),
(519,418,o),
(526,423,cs),
(552,440,o),
(594,480,o),
(594,560,cs),
(594,594,ls),
(594,743,o),
(480,800,o),
(331,800,cs),
(69,800,ls),
(34,800,o),
(23,789,o),
(23,754,cs),
(23,46,ls),
(23,11,o),
(35,0,o),
(67,0,cs)
);
}
);
width = 629;
},
{
layerId = "6ABCF30A-460E-4EED-802C-9E4699B7E7F6";
shapes = (
{
closed = 1;
nodes = (
(183,0,ls),
(217,0,o),
(229,11,o),
(229,46,cs),
(229,617,ls),
(229,634,o),
(234,640,o),
(251,640,cs),
(331,640,ls),
(366,640,o),
(400,629,o),
(400,583,cs),
(400,549,ls),
(400,503,o),
(389,491,o),
(354,491,cs),
(343,491,ls),
(326,491,o),
(320,486,o),
(320,469,cs),
(320,354,ls),
(320,337,o),
(326,331,o),
(343,331,cs),
(354,331,ls),
(389,331,o),
(400,320,o),
(400,263,cs),
(400,229,ls),
(400,171,o),
(389,160,o),
(354,160,cs),
(305,160,ls),
(288,160,o),
(282,154,o),
(282,137,cs),
(282,23,ls),
(282,6,o),
(288,0,o),
(305,0,cs),
(400,0,ls),
(549,0,o),
(617,69,o),
(617,206,cs),
(617,240,ls),
(617,343,o),
(555,385,o),
(526,400,cs),
(520,403,o),
(514,406,o),
(514,411,cs),
(514,417,o),
(519,418,o),
(526,423,cs),
(552,440,o),
(594,480,o),
(594,560,cs),
(594,594,ls),
(594,743,o),
(480,800,o),
(331,800,cs),
(69,800,ls),
(34,800,o),
(23,789,o),
(23,754,cs),
(23,46,ls),
(23,11,o),
(35,0,o),
(67,0,cs)
);
}
);
width = 629;
},
{
layerId = m003;
shapes = (
{
closed = 1;
nodes = (
(183,0,ls),
(217,0,o),
(229,11,o),
(229,46,cs),
(229,617,ls),
(229,634,o),
(234,640,o),
(251,640,cs),
(331,640,ls),
(366,640,o),
(400,629,o),
(400,583,cs),
(400,549,ls),
(400,503,o),
(389,491,o),
(354,491,cs),
(343,491,ls),
(326,491,o),
(320,486,o),
(320,469,cs),
(320,354,ls),
(320,337,o),
(326,331,o),
(343,331,cs),
(354,331,ls),
(389,331,o),
(400,320,o),
(400,263,cs),
(400,229,ls),
(400,171,o),
(389,160,o),
(354,160,cs),
(305,160,ls),
(288,160,o),
(282,154,o),
(282,137,cs),
(282,23,ls),
(282,6,o),
(288,0,o),
(305,0,cs),
(400,0,ls),
(549,0,o),
(617,69,o),
(617,206,cs),
(617,240,ls),
(617,343,o),
(555,385,o),
(526,400,cs),
(520,403,o),
(514,406,o),
(514,411,cs),
(514,417,o),
(519,418,o),
(526,423,cs),
(552,440,o),
(594,480,o),
(594,560,cs),
(594,594,ls),
(594,743,o),
(480,800,o),
(331,800,cs),
(69,800,ls),
(34,800,o),
(23,789,o),
(23,754,cs),
(23,46,ls),
(23,11,o),
(35,0,o),
(67,0,cs)
);
}
);
width = 629;
},
{
layerId = m004;
shapes = (
{
closed = 1;
nodes = (
(183,0,ls),
(217,0,o),
(229,11,o),
(229,46,cs),
(229,617,ls),
(229,634,o),
(234,640,o),
(251,640,cs),
(331,640,ls),
(366,640,o),
(400,629,o),
(400,583,cs),
(400,549,ls),
(400,503,o),
(389,491,o),
(354,491,cs),
(343,491,ls),
(326,491,o),
(320,486,o),
(320,469,cs),
(320,354,ls),
(320,337,o),
(326,331,o),
(343,331,cs),
(354,331,ls),
(389,331,o),
(400,320,o),
(400,263,cs),
(400,229,ls),
(400,171,o),
(389,160,o),
(354,160,cs),
(305,160,ls),
(288,160,o),
(282,154,o),
(282,137,cs),
(282,23,ls),
(282,6,o),
(288,0,o),
(305,0,cs),
(400,0,ls),
(549,0,o),
(617,69,o),
(617,206,cs),
(617,240,ls),
(617,343,o),
(555,385,o),
(526,400,cs),
(520,403,o),
(514,406,o),
(514,411,cs),
(514,417,o),
(519,418,o),
(526,423,cs),
(552,440,o),
(594,480,o),
(594,560,cs),
(594,594,ls),
(594,743,o),
(480,800,o),
(331,800,cs),
(69,800,ls),
(34,800,o),
(23,789,o),
(23,754,cs),
(23,46,ls),
(23,11,o),
(35,0,o),
(67,0,cs)
);
}
);
width = 629;
},
{
layerId = m005;
shapes = (
{
closed = 1;
nodes = (
(183,0,ls),
(217,0,o),
(229,11,o),
(229,46,cs),
(229,617,ls),
(229,634,o),
(234,640,o),
(251,640,cs),
(331,640,ls),
(366,640,o),
(400,629,o),
(400,583,cs),
(400,549,ls),
(400,503,o),
(389,491,o),
(354,491,cs),
(343,491,ls),
(326,491,o),
(320,486,o),
(320,469,cs),
(320,354,ls),
(320,337,o),
(326,331,o),
(343,331,cs),
(354,331,ls),
(389,331,o),
(400,320,o),
(400,263,cs),
(400,229,ls),
(400,171,o),
(389,160,o),
(354,160,cs),
(305,160,ls),
(288,160,o),
(282,154,o),
(282,137,cs),
(282,23,ls),
(282,6,o),
(288,0,o),
(305,0,cs),
(400,0,ls),
(549,0,o),
(617,69,o),
(617,206,cs),
(617,240,ls),
(617,343,o),
(555,385,o),
(526,400,cs),
(520,403,o),
(514,406,o),
(514,411,cs),
(514,417,o),
(519,418,o),
(526,423,cs),
(552,440,o),
(594,480,o),
(594,560,cs),
(594,594,ls),
(594,743,o),
(480,800,o),
(331,800,cs),
(69,800,ls),
(34,800,o),
(23,789,o),
(23,754,cs),
(23,46,ls),
(23,11,o),
(35,0,o),
(67,0,cs)
);
}
);
width = 629;
}
);
unicode = 7838;
},
{
color = 5;
glyphname = T;
kernLeft = T;
kernRight = T;
layers = (
{
anchors = (
{
name = bottom;
pos = (251,0);
},
{
name = top;
pos = (251,800);
}
);
layerId = m01;
shapes = (
{
closed = 1;
nodes = (
(314,0,ls),
(349,0,o),
(360,11,o),
(360,46,cs),
(360,606,ls),
(360,623,o),
(366,629,o),
(383,629,cs),
(434,629,ls),
(469,629,o),
(480,640,o),
(480,674,cs),
(480,754,ls),
(480,789,o),
(469,800,o),
(434,800,cs),
(69,800,ls),
(33,800,o),
(23,789,o),
(23,754,cs),
(23,674,ls),
(23,646,o),
(34,629,o),
(69,629,cs),
(120,629,ls),
(137,629,o),
(143,623,o),
(143,606,cs),
(143,46,ls),
(143,11,o),
(154,0,o),
(189,0,cs)
);
}
);
width = 503;
},
{
anchors = (
{
name = bottom;
pos = (240,0);
},
{
name = top;
pos = (240,800);
}
);
layerId = "6ABCF30A-460E-4EED-802C-9E4699B7E7F6";
shapes = (
{
closed = 1;
nodes = (
(337,0,ls),
(371,0,o),
(383,11,o),
(383,46,cs),
(383,526,ls),
(383,543,o),
(389,549,o),
(406,549,cs),
(446,549,ls),
(480,549,o),
(491,560,o),
(491,594,cs),
(491,754,ls),
(491,789,o),
(480,800,o),
(446,800,cs),
(57,800,ls),
(22,800,o),
(11,789,o),
(11,754,cs),
(11,594,ls),
(11,566,o),
(23,549,o),
(57,549,cs),
(97,549,ls),
(114,549,o),
(120,543,o),
(120,526,cs),
(120,46,ls),
(120,11,o),
(131,0,o),
(166,0,cs)
);
}
);
width = 503;
},
{
anchors = (
{
name = bottom;
pos = (297,0);
},
{
name = top;
pos = (297,800);
}
);
layerId = m003;
shapes = (
{
closed = 1;
nodes = (
(354,0,ls),
(389,0,o),
(400,11,o),
(400,46,cs),
(400,606,ls),
(400,623,o),
(406,629,o),
(423,629,cs),
(537,629,ls),
(572,629,o),
(583,640,o),
(583,674,cs),
(583,754,ls),
(583,789,o),
(572,800,o),
(537,800,cs),
(57,800,ls),
(22,800,o),
(11,789,o),
(11,754,cs),
(11,674,ls),
(11,646,o),
(23,629,o),
(57,629,cs),
(171,629,ls),
(189,629,o),
(194,623,o),
(194,606,cs),
(194,46,ls),
(194,11,o),
(206,0,o),
(240,0,cs)
);
}
);
width = 594;
},
{
anchors = (
{
name = bottom;
pos = (217,0);
},
{
name = top;
pos = (217,800);
}
);
layerId = m004;
shapes = (
{
closed = 1;
nodes = (
(331,0,ls),
(366,0,o),
(377,11,o),
(377,46,cs),
(377,491,ls),
(377,509,o),
(383,514,o),
(400,514,cs),
(423,514,ls),
(457,514,o),
(469,526,o),
(469,560,cs),
(469,754,ls),
(469,789,o),
(457,800,o),
(423,800,cs),
(57,800,ls),
(22,800,o),
(11,789,o),
(11,754,cs),
(11,560,ls),
(11,531,o),
(23,514,o),
(57,514,cs),
(80,514,ls),
(97,514,o),
(103,509,o),
(103,491,cs),
(103,46,ls),
(103,11,o),
(114,0,o),
(149,0,cs)
);
}
);
width = 480;
},
{
anchors = (
{
name = bottom;
pos = (251,0);
},
{
name = top;
pos = (251,800);
}
);
layerId = m005;
shapes = (
{
closed = 1;
nodes = (
(314,0,ls),
(349,0,o),
(360,11,o),
(360,46,cs),
(360,606,ls),
(360,623,o),
(366,629,o),
(383,629,cs),
(434,629,ls),
(469,629,o),
(480,640,o),
(480,674,cs),
(480,754,ls),
(480,789,o),
(469,800,o),
(434,800,cs),
(69,800,ls),
(33,800,o),
(23,789,o),
(23,754,cs),
(23,674,ls),
(23,646,o),
(34,629,o),
(69,629,cs),
(120,629,ls),
(137,629,o),
(143,623,o),
(143,606,cs),
(143,46,ls),
(143,11,o),
(154,0,o),
(189,0,cs)
);
}
);
width = 503;
}
);
unicode = 84;
},
{
color = 5;
glyphname = Tcedilla;
layers = (
{
layerId = m01;
shapes = (
{
closed = 1;
nodes = (
(208,0,o),
(229,-33,o),
(229,-57,cs),
(229,-80,o),
(197,-95,o),
(160,-95,cs),
(144,-95,o),
(137,-104,o),
(137,-118,cs),
(137,-176,ls),
(137,-187,o),
(144,-199,o),
(160,-199,cs),
(272,-199,o),
(334,-168,o),
(334,-105,cs),
(334,-43,o),
(258,-34,o),
(258,-11,cs),
(258,-5,o),
(263,0,o),
(274,0,cs),
(309,0,o),
(320,11,o),
(320,46,cs),
(320,606,ls),
(320,623,o),
(326,629,o),
(343,629,cs),
(377,629,ls),
(411,629,o),
(423,640,o),
(423,674,cs),
(423,754,ls),
(423,789,o),
(411,800,o),
(377,800,cs),
(57,800,ls),
(22,800,o),
(11,789,o),
(11,754,cs),
(11,674,ls),
(11,646,o),
(23,629,o),
(57,629,cs),
(91,629,ls),
(109,629,o),
(114,623,o),
(114,606,cs),
(114,46,ls),
(114,11,o),
(126,0,o),
(160,0,cs)
);
}
);
width = 434;
},
{
layerId = "6ABCF30A-460E-4EED-802C-9E4699B7E7F6";
shapes = (
{
closed = 1;
nodes = (
(208,0,o),
(229,-33,o),
(229,-57,cs),
(229,-80,o),
(197,-95,o),
(160,-95,cs),
(144,-95,o),
(137,-104,o),
(137,-118,cs),
(137,-176,ls),
(137,-187,o),
(144,-199,o),
(160,-199,cs),
(272,-199,o),
(334,-168,o),
(334,-105,cs),
(334,-43,o),
(258,-34,o),
(258,-11,cs),
(258,-5,o),
(263,0,o),
(274,0,cs),
(309,0,o),
(320,11,o),
(320,46,cs),
(320,606,ls),
(320,623,o),
(326,629,o),
(343,629,cs),
(377,629,ls),
(411,629,o),
(423,640,o),
(423,674,cs),
(423,754,ls),
(423,789,o),
(411,800,o),
(377,800,cs),
(57,800,ls),
(22,800,o),
(11,789,o),
(11,754,cs),
(11,674,ls),
(11,646,o),
(23,629,o),
(57,629,cs),
(91,629,ls),
(109,629,o),
(114,623,o),
(114,606,cs),
(114,46,ls),
(114,11,o),
(126,0,o),
(160,0,cs)
);
}
);
width = 434;
},
{
layerId = m003;
shapes = (
{
closed = 1;
nodes = (
(208,0,o),
(229,-33,o),
(229,-57,cs),
(229,-80,o),
(197,-95,o),
(160,-95,cs),
(144,-95,o),
(137,-104,o),
(137,-118,cs),
(137,-176,ls),
(137,-187,o),
(144,-199,o),
(160,-199,cs),
(272,-199,o),
(334,-168,o),
(334,-105,cs),
(334,-43,o),
(258,-34,o),
(258,-11,cs),
(258,-5,o),
(263,0,o),
(274,0,cs),
(309,0,o),
(320,11,o),
(320,46,cs),
(320,606,ls),
(320,623,o),
(326,629,o),
(343,629,cs),
(377,629,ls),
(411,629,o),
(423,640,o),
(423,674,cs),
(423,754,ls),
(423,789,o),
(411,800,o),
(377,800,cs),
(57,800,ls),
(22,800,o),
(11,789,o),
(11,754,cs),
(11,674,ls),
(11,646,o),
(23,629,o),
(57,629,cs),
(91,629,ls),
(109,629,o),
(114,623,o),
(114,606,cs),
(114,46,ls),
(114,11,o),
(126,0,o),
(160,0,cs)
);
}
);
width = 434;
},
{
layerId = m004;
shapes = (
{
closed = 1;
nodes = (
(208,0,o),
(229,-33,o),
(229,-57,cs),
(229,-80,o),
(197,-95,o),
(160,-95,cs),
(144,-95,o),
(137,-104,o),
(137,-118,cs),
(137,-176,ls),
(137,-187,o),
(144,-199,o),
(160,-199,cs),
(272,-199,o),
(334,-168,o),
(334,-105,cs),
(334,-43,o),
(258,-34,o),
(258,-11,cs),
(258,-5,o),
(263,0,o),
(274,0,cs),
(309,0,o),
(320,11,o),
(320,46,cs),
(320,606,ls),
(320,623,o),
(326,629,o),
(343,629,cs),
(377,629,ls),
(411,629,o),
(423,640,o),
(423,674,cs),
(423,754,ls),
(423,789,o),
(411,800,o),
(377,800,cs),
(57,800,ls),
(22,800,o),
(11,789,o),
(11,754,cs),
(11,674,ls),
(11,646,o),
(23,629,o),
(57,629,cs),
(91,629,ls),
(109,629,o),
(114,623,o),
(114,606,cs),
(114,46,ls),
(114,11,o),
(126,0,o),
(160,0,cs)
);
}
);
width = 434;
},
{
layerId = m005;
shapes = (
{
closed = 1;
nodes = (
(208,0,o),
(229,-33,o),
(229,-57,cs),
(229,-80,o),
(197,-95,o),
(160,-95,cs),
(144,-95,o),
(137,-104,o),
(137,-118,cs),
(137,-176,ls),
(137,-187,o),
(144,-199,o),
(160,-199,cs),
(272,-199,o),
(334,-168,o),
(334,-105,cs),
(334,-43,o),
(258,-34,o),
(258,-11,cs),
(258,-5,o),
(263,0,o),
(274,0,cs),
(309,0,o),
(320,11,o),
(320,46,cs),
(320,606,ls),
(320,623,o),
(326,629,o),
(343,629,cs),
(377,629,ls),
(411,629,o),
(423,640,o),
(423,674,cs),
(423,754,ls),
(423,789,o),
(411,800,o),
(377,800,cs),
(57,800,ls),
(22,800,o),
(11,789,o),
(11,754,cs),
(11,674,ls),
(11,646,o),
(23,629,o),
(57,629,cs),
(91,629,ls),
(109,629,o),
(114,623,o),
(114,606,cs),
(114,46,ls),
(114,11,o),
(126,0,o),
(160,0,cs)
);
}
);
width = 434;
}
);
unicode = 354;
},
{
color = 5;
glyphname = U;
kernLeft = U;
kernRight = U;
layers = (
{
anchors = (
{
name = top;
pos = (278,800);
}
);
layerId = m01;
shapes = (
{
closed = 1;
nodes = (
(434,-11,o),
(520,69,o),
(520,229,cs),
(520,754,ls),
(520,789,o),
(509,800,o),
(474,800,cs),
(360,800,ls),
(326,800,o),
(314,789,o),
(314,754,cs),
(314,217,ls),
(314,171,o),
(297,160,o),
(274,160,cs),
(251,160,o),
(234,171,o),
(234,217,cs),
(234,754,ls),
(234,789,o),
(223,800,o),
(189,800,cs),
(74,800,ls),
(40,800,o),
(29,789,o),
(29,754,cs),
(29,229,ls),
(29,69,o),
(114,-11,o),
(274,-11,cs)
);
}
);
width = 549;
},
{
anchors = (
{
name = top;
pos = (272,800);
}
);
layerId = "6ABCF30A-460E-4EED-802C-9E4699B7E7F6";
shapes = (
{
closed = 1;
nodes = (
(434,-11,o),
(531,80,o),
(531,229,cs),
(531,754,ls),
(531,789,o),
(520,800,o),
(486,800,cs),
(337,800,ls),
(303,800,o),
(291,789,o),
(291,754,cs),
(291,183,ls),
(291,168,o),
(286,160,o),
(274,160,cs),
(263,160,o),
(257,168,o),
(257,183,cs),
(257,754,ls),
(257,789,o),
(246,800,o),
(211,800,cs),
(63,800,ls),
(29,800,o),
(17,789,o),
(17,754,cs),
(17,229,ls),
(17,80,o),
(114,-11,o),
(274,-11,cs)
);
}
);
width = 549;
},
{
anchors = (
{
name = top;
pos = (323,800);
}
);
layerId = m003;
shapes = (
{
closed = 1;
nodes = (
(529,-11,o),
(613,103,o),
(613,263,cs),
(613,754,ls),
(613,789,o),
(601,800,o),
(567,800,cs),
(455,800,ls),
(421,800,o),
(409,789,o),
(409,754,cs),
(409,251,ls),
(409,183,o),
(381,160,o),
(323,160,cs),
(266,160,o),
(238,183,o),
(238,251,cs),
(238,754,ls),
(238,789,o),
(226,800,o),
(192,800,cs),
(80,800,ls),
(46,800,o),
(34,789,o),
(34,754,cs),
(34,263,ls),
(34,103,o),
(118,-11,o),
(323,-11,cs)
);
}
);
width = 647;
},
{
anchors = (
{
name = top;
pos = (323,800);
}
);
layerId = m004;
shapes = (
{
closed = 1;
nodes = (
(483,-11,o),
(636,57,o),
(636,274,cs),
(636,754,ls),
(636,789,o),
(624,800,o),
(590,800,cs),
(386,800,ls),
(352,800,o),
(341,789,o),
(341,754,cs),
(341,183,ls),
(341,168,o),
(335,160,o),
(323,160,cs),
(312,160,o),
(306,168,o),
(306,183,cs),
(306,754,ls),
(306,789,o),
(295,800,o),
(261,800,cs),
(57,800,ls),
(23,800,o),
(11,789,o),
(11,754,cs),
(11,274,ls),
(11,57,o),
(163,-11,o),
(323,-11,cs)
);
}
);
width = 647;
},
{
anchors = (
{
name = top;
pos = (278,800);
}
);
layerId = m005;
shapes = (
{
closed = 1;
nodes = (
(434,-11,o),
(520,69,o),
(520,229,cs),
(520,754,ls),
(520,789,o),
(509,800,o),
(474,800,cs),
(360,800,ls),
(326,800,o),
(314,789,o),
(314,754,cs),
(314,217,ls),
(314,171,o),
(297,160,o),
(274,160,cs),
(251,160,o),
(234,171,o),
(234,217,cs),
(234,754,ls),
(234,789,o),
(223,800,o),
(189,800,cs),
(74,800,ls),
(40,800,o),
(29,789,o),
(29,754,cs),
(29,229,ls),
(29,69,o),
(114,-11,o),
(274,-11,cs)
);
}
);
width = 549;
}
);
unicode = 85;
},
{
color = 5;
glyphname = Uogonek;
layers = (
{
layerId = m01;
shapes = (
{
closed = 1;
nodes = (
(266,-34,o),
(214,-43,o),
(214,-105,cs),
(214,-168,o),
(275,-199,o),
(387,-199,cs),
(403,-199,o),
(410,-187,o),
(410,-176,cs),
(410,-118,ls),
(410,-104,o),
(403,-95,o),
(387,-95,cs),
(351,-95,o),
(319,-80,o),
(319,-57,cs),
(319,-27,o),
(359,-10,o),
(395,13,cs),
(466,57,o),
(512,119,o),
(512,229,cs),
(512,754,ls),
(512,789,o),
(501,800,o),
(466,800,cs),
(352,800,ls),
(318,800,o),
(306,789,o),
(306,754,cs),
(306,217,ls),
(306,171,o),
(289,160,o),
(266,160,cs),
(243,160,o),
(226,171,o),
(226,217,cs),
(226,754,ls),
(226,789,o),
(215,800,o),
(181,800,cs),
(66,800,ls),
(32,800,o),
(21,789,o),
(21,754,cs),
(21,229,ls),
(21,69,o),
(106,-11,o),
(266,-11,c)
);
}
);
width = 533;
},
{
layerId = "6ABCF30A-460E-4EED-802C-9E4699B7E7F6";
shapes = (
{
closed = 1;
nodes = (
(266,-34,o),
(214,-43,o),
(214,-105,cs),
(214,-168,o),
(275,-199,o),
(387,-199,cs),
(403,-199,o),
(410,-187,o),
(410,-176,cs),
(410,-118,ls),
(410,-104,o),
(403,-95,o),
(387,-95,cs),
(351,-95,o),
(319,-80,o),
(319,-57,cs),
(319,-27,o),
(359,-10,o),
(395,13,cs),
(466,57,o),
(512,119,o),
(512,229,cs),
(512,754,ls),
(512,789,o),
(501,800,o),
(466,800,cs),
(352,800,ls),
(318,800,o),
(306,789,o),
(306,754,cs),
(306,217,ls),
(306,171,o),
(289,160,o),
(266,160,cs),
(243,160,o),
(226,171,o),
(226,217,cs),
(226,754,ls),
(226,789,o),
(215,800,o),
(181,800,cs),
(66,800,ls),
(32,800,o),
(21,789,o),
(21,754,cs),
(21,229,ls),
(21,69,o),
(106,-11,o),
(266,-11,c)
);
}
);
width = 533;
},
{
layerId = m003;
shapes = (
{
closed = 1;
nodes = (
(266,-34,o),
(214,-43,o),
(214,-105,cs),
(214,-168,o),
(275,-199,o),
(387,-199,cs),
(403,-199,o),
(410,-187,o),
(410,-176,cs),
(410,-118,ls),
(410,-104,o),
(403,-95,o),
(387,-95,cs),
(351,-95,o),
(319,-80,o),
(319,-57,cs),
(319,-27,o),
(359,-10,o),
(395,13,cs),
(466,57,o),
(512,119,o),
(512,229,cs),
(512,754,ls),
(512,789,o),
(501,800,o),
(466,800,cs),
(352,800,ls),
(318,800,o),
(306,789,o),
(306,754,cs),
(306,217,ls),
(306,171,o),
(289,160,o),
(266,160,cs),
(243,160,o),
(226,171,o),
(226,217,cs),
(226,754,ls),
(226,789,o),
(215,800,o),
(181,800,cs),
(66,800,ls),
(32,800,o),
(21,789,o),
(21,754,cs),
(21,229,ls),
(21,69,o),
(106,-11,o),
(266,-11,c)
);
}
);
width = 533;
},
{
layerId = m004;
shapes = (
{
closed = 1;
nodes = (
(266,-34,o),
(214,-43,o),
(214,-105,cs),
(214,-168,o),
(275,-199,o),
(387,-199,cs),
(403,-199,o),
(410,-187,o),
(410,-176,cs),
(410,-118,ls),
(410,-104,o),
(403,-95,o),
(387,-95,cs),
(351,-95,o),
(319,-80,o),
(319,-57,cs),
(319,-27,o),
(359,-10,o),
(395,13,cs),
(466,57,o),
(512,119,o),
(512,229,cs),
(512,754,ls),
(512,789,o),
(501,800,o),
(466,800,cs),
(352,800,ls),
(318,800,o),
(306,789,o),
(306,754,cs),
(306,217,ls),
(306,171,o),
(289,160,o),
(266,160,cs),
(243,160,o),
(226,171,o),
(226,217,cs),
(226,754,ls),
(226,789,o),
(215,800,o),
(181,800,cs),
(66,800,ls),
(32,800,o),
(21,789,o),
(21,754,cs),
(21,229,ls),
(21,69,o),
(106,-11,o),
(266,-11,c)
);
}
);
width = 533;
},
{
layerId = m005;
shapes = (
{
closed = 1;
nodes = (
(266,-34,o),
(214,-43,o),
(214,-105,cs),
(214,-168,o),
(275,-199,o),
(387,-199,cs),
(403,-199,o),
(410,-187,o),
(410,-176,cs),
(410,-118,ls),
(410,-104,o),
(403,-95,o),
(387,-95,cs),
(351,-95,o),
(319,-80,o),
(319,-57,cs),
(319,-27,o),
(359,-10,o),
(395,13,cs),
(466,57,o),
(512,119,o),
(512,229,cs),
(512,754,ls),
(512,789,o),
(501,800,o),
(466,800,cs),
(352,800,ls),
(318,800,o),
(306,789,o),
(306,754,cs),
(306,217,ls),
(306,171,o),
(289,160,o),
(266,160,cs),
(243,160,o),
(226,171,o),
(226,217,cs),
(226,754,ls),
(226,789,o),
(215,800,o),
(181,800,cs),
(66,800,ls),
(32,800,o),
(21,789,o),
(21,754,cs),
(21,229,ls),
(21,69,o),
(106,-11,o),
(266,-11,c)
);
}
);
width = 533;
}
);
unicode = 370;
},
{
color = 5;
glyphname = V;
kernLeft = V;
kernRight = V;
layers = (
{
layerId = m01;
shapes = (
{
closed = 1;
nodes = (
(267,171,o),
(264,179,o),
(263,194,cs),
(219,754,ls),
(217,790,o),
(208,800,o),
(185,800,cs),
(57,800,ls),
(23,800,o),
(11,789,o),
(11,754,cs),
(11,732,o),
(19,686,o),
(23,663,cs),
(114,46,ls),
(119,11,o),
(137,0,o),
(171,0,cs),
(377,0,ls),
(411,0,o),
(430,11,o),
(434,46,cs),
(526,663,ls),
(529,686,o),
(537,732,o),
(537,754,cs),
(537,789,o),
(526,800,o),
(491,800,cs),
(363,800,ls),
(341,800,o),
(331,790,o),
(329,754,cs),
(286,194,ls),
(285,179,o),
(281,171,o),
(274,171,cs)
);
}
);
width = 549;
},
{
associatedMasterId = m01;
layerId = "7786A122-C3EC-43E0-B566-6DF7C6BDD768";
name = "Sep 11, 22, 11:30";
shapes = (
{
closed = 1;
nodes = (
(375,800,ls),
(352,800,o),
(344,790,o),
(341,754,cs),
(331,663,ls),
(329,646,o),
(326,640,o),
(309,640,cs),
(263,640,ls),
(246,640,o),
(242,646,o),
(240,663,cs),
(231,754,ls),
(227,790,o),
(219,800,o),
(197,800,cs),
(69,800,ls),
(34,800,o),
(23,789,o),
(23,754,cs),
(23,732,o),
(31,686,o),
(34,663,cs),
(126,46,ls),
(130,11,o),
(149,0,o),
(183,0,cs),
(389,0,ls),
(423,0,o),
(441,11,o),
(446,46,cs),
(537,663,ls),
(541,686,o),
(549,732,o),
(549,754,cs),
(549,789,o),
(537,800,o),
(503,800,cs)
);
},
{
closed = 1;
nodes = (
(315,469,o),
(320,463,o),
(320,450,cs),
(320,442,o),
(319,434,o),
(318,422,cs),
(297,194,ls),
(296,179,o),
(293,171,o),
(286,171,cs),
(279,171,o),
(275,179,o),
(274,194,cs),
(254,422,ls),
(253,434,o),
(251,442,o),
(251,450,cs),
(251,463,o),
(257,469,o),
(274,469,cs),
(297,469,ls)
);
}
);
visible = 1;
width = 572;
},
{
layerId = "6ABCF30A-460E-4EED-802C-9E4699B7E7F6";
shapes = (
{
closed = 1;
nodes = (
(263,171,o),
(257,179,o),
(257,194,cs),
(257,754,ls),
(257,790,o),
(246,800,o),
(223,800,cs),
(57,800,ls),
(23,800,o),
(11,789,o),
(11,754,cs),
(11,732,o),
(15,686,o),
(17,663,cs),
(69,46,ls),
(71,11,o),
(91,0,o),
(126,0,cs),
(423,0,ls),
(457,0,o),
(478,11,o),
(480,46,cs),
(531,663,ls),
(534,686,o),
(537,732,o),
(537,754,cs),
(537,789,o),
(526,800,o),
(491,800,cs),
(326,800,ls),
(303,800,o),
(291,790,o),
(291,754,cs),
(291,194,ls),
(291,179,o),
(286,171,o),
(274,171,cs)
);
}
);
width = 549;
},
{
associatedMasterId = m01;
layerId = "1CC594B7-7B73-4FAA-9496-5220C426A6CB";
name = "Oct 1, 22, 11:36";
shapes = (
{
closed = 1;
nodes = (
(389,0,ls),
(417,0,o),
(430,13,o),
(434,46,cs),
(528,702,ls),
(534,740,o),
(537,754,o),
(537,766,cs),
(537,789,o),
(526,800,o),
(503,800,cs),
(383,800,ls),
(349,800,o),
(339,789,o),
(337,754,cs),
(291,194,ls),
(290,178,o),
(286,171,o),
(274,171,cs),
(263,171,o),
(258,177,o),
(257,194,cs),
(211,754,ls),
(209,789,o),
(200,800,o),
(166,800,cs),
(46,800,ls),
(23,800,o),
(11,789,o),
(11,766,cs),
(11,754,o),
(11,740,o),
(17,702,cs),
(114,46,ls),
(119,11,o),
(131,0,o),
(160,0,cs)
);
}
);
width = 549;
},
{
layerId = m003;
shapes = (
{
closed = 1;
nodes = (
(325,171,o),
(322,179,o),
(320,194,cs),
(219,754,ls),
(213,790,o),
(208,800,o),
(185,800,cs),
(57,800,ls),
(23,800,o),
(11,789,o),
(11,754,cs),
(11,732,o),
(17,686,o),
(23,663,cs),
(171,46,ls),
(179,11,o),
(194,0,o),
(229,0,cs),
(434,0,ls),
(469,0,o),
(483,11,o),
(491,46,cs),
(640,663,ls),
(646,686,o),
(652,732,o),
(652,754,cs),
(652,789,o),
(640,800,o),
(606,800,cs),
(478,800,ls),
(455,800,o),
(450,790,o),
(443,754,cs),
(343,194,ls),
(341,179,o),
(338,171,o),
(331,171,cs)
);
}
);
width = 663;
},
{
associatedMasterId = m003;
layerId = "5E29D43E-30A1-4784-BBB9-A11B9626442F";
name = "Sep 11, 22, 11:30";
shapes = (
{
closed = 1;
nodes = (
(375,800,ls),
(352,800,o),
(344,790,o),
(341,754,cs),
(331,663,ls),
(329,646,o),
(326,640,o),
(309,640,cs),
(263,640,ls),
(246,640,o),
(242,646,o),
(240,663,cs),
(231,754,ls),
(227,790,o),
(219,800,o),
(197,800,cs),
(69,800,ls),
(34,800,o),
(23,789,o),
(23,754,cs),
(23,732,o),
(31,686,o),
(34,663,cs),
(126,46,ls),
(130,11,o),
(149,0,o),
(183,0,cs),
(389,0,ls),
(423,0,o),
(441,11,o),
(446,46,cs),
(537,663,ls),
(541,686,o),
(549,732,o),
(549,754,cs),
(549,789,o),
(537,800,o),
(503,800,cs)
);
},
{
closed = 1;
nodes = (
(315,469,o),
(320,463,o),
(320,450,cs),
(320,442,o),
(319,434,o),
(318,422,cs),
(297,194,ls),
(296,179,o),
(293,171,o),
(286,171,cs),
(279,171,o),
(275,179,o),
(274,194,cs),
(254,422,ls),
(253,434,o),
(251,442,o),
(251,450,cs),
(251,463,o),
(257,469,o),
(274,469,cs),
(297,469,ls)
);
}
);
width = 572;
},
{
associatedMasterId = m003;
layerId = "289EE2BF-7908-4DA3-90C8-FBE0AC498F5A";
name = "Oct 1, 22, 11:36";
shapes = (
{
closed = 1;
nodes = (
(389,0,ls),
(417,0,o),
(430,13,o),
(434,46,cs),
(528,702,ls),
(534,740,o),
(537,754,o),
(537,766,cs),
(537,789,o),
(526,800,o),
(503,800,cs),
(383,800,ls),
(349,800,o),
(339,789,o),
(337,754,cs),
(291,194,ls),
(290,178,o),
(286,171,o),
(274,171,cs),
(263,171,o),
(258,177,o),
(257,194,cs),
(211,754,ls),
(209,789,o),
(200,800,o),
(166,800,cs),
(46,800,ls),
(23,800,o),
(11,789,o),
(11,766,cs),
(11,754,o),
(11,740,o),
(17,702,cs),
(114,46,ls),
(119,11,o),
(131,0,o),
(160,0,cs)
);
}
);
width = 549;
},
{
layerId = m004;
shapes = (
{
closed = 1;
nodes = (
(320,171,o),
(315,179,o),
(314,194,cs),
(291,754,ls),
(290,790,o),
(280,800,o),
(257,800,cs),
(57,800,ls),
(23,800,o),
(11,789,o),
(11,754,cs),
(11,732,o),
(15,686,o),
(17,663,cs),
(91,46,ls),
(96,11,o),
(114,0,o),
(149,0,cs),
(514,0,ls),
(549,0,o),
(567,11,o),
(572,46,cs),
(646,663,ls),
(648,686,o),
(652,732,o),
(652,754,cs),
(652,789,o),
(640,800,o),
(606,800,cs),
(406,800,ls),
(383,800,o),
(373,790,o),
(371,754,cs),
(349,194,ls),
(347,179,o),
(343,171,o),
(331,171,cs)
);
}
);
width = 663;
},
{
layerId = m005;
shapes = (
{
closed = 1;
nodes = (
(267,171,o),
(264,179,o),
(263,194,cs),
(219,754,ls),
(217,790,o),
(208,800,o),
(185,800,cs),
(57,800,ls),
(23,800,o),
(11,789,o),
(11,754,cs),
(11,732,o),
(19,686,o),
(23,663,cs),
(114,46,ls),
(119,11,o),
(137,0,o),
(171,0,cs),
(377,0,ls),
(411,0,o),
(430,11,o),
(434,46,cs),
(526,663,ls),
(529,686,o),
(537,732,o),
(537,754,cs),
(537,789,o),
(526,800,o),
(491,800,cs),
(363,800,ls),
(341,800,o),
(331,790,o),
(329,754,cs),
(286,194,ls),
(285,179,o),
(281,171,o),
(274,171,cs)
);
}
);
width = 549;
},
{
associatedMasterId = m005;
layerId = "8F8592C8-0283-48F8-B92A-0BBD29FE65F0";
name = "Sep 11, 22, 11:30";
shapes = (
{
closed = 1;
nodes = (
(375,800,ls),
(352,800,o),
(344,790,o),
(341,754,cs),
(331,663,ls),
(329,646,o),
(326,640,o),
(309,640,cs),
(263,640,ls),
(246,640,o),
(242,646,o),
(240,663,cs),
(231,754,ls),
(227,790,o),
(219,800,o),
(197,800,cs),
(69,800,ls),
(34,800,o),
(23,789,o),
(23,754,cs),
(23,732,o),
(31,686,o),
(34,663,cs),
(126,46,ls),
(130,11,o),
(149,0,o),
(183,0,cs),
(389,0,ls),
(423,0,o),
(441,11,o),
(446,46,cs),
(537,663,ls),
(541,686,o),
(549,732,o),
(549,754,cs),
(549,789,o),
(537,800,o),
(503,800,cs)
);
},
{
closed = 1;
nodes = (
(315,469,o),
(320,463,o),
(320,450,cs),
(320,442,o),
(319,434,o),
(318,422,cs),
(297,194,ls),
(296,179,o),
(293,171,o),
(286,171,cs),
(279,171,o),
(275,179,o),
(274,194,cs),
(254,422,ls),
(253,434,o),
(251,442,o),
(251,450,cs),
(251,463,o),
(257,469,o),
(274,469,cs),
(297,469,ls)
);
}
);
width = 572;
},
{
associatedMasterId = m005;
layerId = "52C6A4BC-E379-45A5-84B9-CCFA0152BEA7";
name = "Oct 1, 22, 11:36";
shapes = (
{
closed = 1;
nodes = (
(389,0,ls),
(417,0,o),
(430,13,o),
(434,46,cs),
(528,702,ls),
(534,740,o),
(537,754,o),
(537,766,cs),
(537,789,o),
(526,800,o),
(503,800,cs),
(383,800,ls),
(349,800,o),
(339,789,o),
(337,754,cs),
(291,194,ls),
(290,178,o),
(286,171,o),
(274,171,cs),
(263,171,o),
(258,177,o),
(257,194,cs),
(211,754,ls),
(209,789,o),
(200,800,o),
(166,800,cs),
(46,800,ls),
(23,800,o),
(11,789,o),
(11,766,cs),
(11,754,o),
(11,740,o),
(17,702,cs),
(114,46,ls),
(119,11,o),
(131,0,o),
(160,0,cs)
);
}
);
width = 549;
}
);
unicode = 86;
},
